<svg width="318" height="334" viewBox="0 0 318 334" fill="none" xmlns="http://www.w3.org/2000/svg">
<path d="M317.115 10.7168H30.9146C14.3146 10.7168 0.914551 24.1168 0.914551 40.7168V264.217H119.915C136.515 264.217 149.915 277.617 149.915 294.217V302.917C149.915 319.517 163.315 332.917 179.915 332.917H194.915C211.515 332.917 224.915 319.517 224.915 302.917V248.417V169.017C224.915 152.417 238.315 139.017 254.915 139.017H287.115C303.715 139.017 317.115 125.617 317.115 109.017V66.1168V10.7168Z" fill="#003274" stroke="black"/>
<path d="M317.115 0.716797H30.9146C14.3146 0.716797 0.914551 14.1168 0.914551 30.7168V254.217H119.915C136.515 254.217 149.915 267.617 149.915 284.217V292.917C149.915 309.517 163.315 322.917 179.915 322.917H194.915C211.515 322.917 224.915 309.517 224.915 292.917V238.417V159.017C224.915 142.417 238.315 129.017 254.915 129.017H287.115C303.715 129.017 317.115 115.617 317.115 99.0168V56.1168V0.716797Z" fill="#1B45CE" stroke="black"/>
<path d="M26.6224 175.374L33.9818 156.314H35.8878L28.7138 175.374H26.6224ZM41.7647 175.374L34.5906 156.314H36.629L43.9884 175.374H41.7647ZM30.2756 167.671H40.2293V169.577H30.2756V167.671ZM47.047 175.374V161.873H49.0324V165.05H49.1648V175.374H47.047ZM56.7094 175.374V166.532C56.7094 165.509 56.4535 164.741 55.9417 164.229C55.4299 163.717 54.671 163.461 53.6651 163.461C52.7827 163.461 51.9973 163.656 51.309 164.044C50.6384 164.432 50.1089 164.97 49.7207 165.659C49.3501 166.347 49.1648 167.15 49.1648 168.068L48.8206 164.864C49.2795 163.859 49.9766 163.064 50.9119 162.482C51.8649 161.9 52.9415 161.608 54.1416 161.608C55.5534 161.608 56.6829 162.014 57.53 162.826C58.3948 163.62 58.8272 164.67 58.8272 165.976V175.374H56.7094ZM72.7155 175.374V172.224L72.9802 172.303C72.6449 173.327 72.0272 174.139 71.1272 174.739C70.2447 175.339 69.1858 175.639 67.9505 175.639C66.7327 175.639 65.665 175.348 64.7473 174.765C63.8472 174.183 63.1413 173.371 62.6295 172.33C62.1354 171.288 61.8883 170.071 61.8883 168.676C61.8883 167.265 62.1442 166.029 62.656 164.97C63.1678 163.911 63.8825 163.091 64.8002 162.508C65.718 161.926 66.7945 161.635 68.0299 161.635C69.3006 161.635 70.3683 161.944 71.233 162.561C72.0978 163.179 72.689 164.053 73.0067 165.182L72.5831 165.235V156.314H74.7009V175.374H72.7155ZM68.3476 173.786C69.7065 173.786 70.7654 173.327 71.5242 172.409C72.3008 171.474 72.689 170.203 72.689 168.597C72.689 167.026 72.3008 165.782 71.5242 164.864C70.7477 163.947 69.6888 163.488 68.3476 163.488C67.0063 163.488 65.9562 163.947 65.1973 164.864C64.4385 165.782 64.059 167.053 64.059 168.676C64.059 170.265 64.4385 171.518 65.1973 172.436C65.9562 173.336 67.0063 173.786 68.3476 173.786ZM78.9483 175.374V161.873H80.9338V165.314H81.0661V175.374H78.9483ZM81.0661 168.332L80.722 165.129C81.0396 163.982 81.6044 163.108 82.4162 162.508C83.228 161.908 84.1634 161.608 85.2223 161.608C85.6635 161.608 85.9635 161.644 86.1224 161.714V163.753C86.0341 163.717 85.9106 163.7 85.7517 163.7C85.5929 163.682 85.3988 163.673 85.1693 163.673C83.8281 163.673 82.8045 164.079 82.0985 164.891C81.4103 165.685 81.0661 166.832 81.0661 168.332ZM94.4876 175.639C93.164 175.639 91.9992 175.33 90.9933 174.712C89.9873 174.095 89.202 173.256 88.6372 172.197C88.0901 171.121 87.8166 169.912 87.8166 168.571C87.8166 167.212 88.099 166.012 88.6637 164.97C89.2285 163.929 90.005 163.108 90.9933 162.508C91.9992 161.908 93.164 161.608 94.4876 161.608C95.8289 161.608 96.9937 161.908 97.982 162.508C98.988 163.108 99.7645 163.929 100.312 164.97C100.876 166.012 101.159 167.212 101.159 168.571C101.159 169.912 100.876 171.121 100.312 172.197C99.7645 173.256 98.988 174.095 97.982 174.712C96.9937 175.33 95.8289 175.639 94.4876 175.639ZM94.4876 173.839C95.4054 173.839 96.1995 173.618 96.8702 173.177C97.5408 172.718 98.0614 172.091 98.432 171.297C98.8027 170.503 98.988 169.585 98.988 168.544C98.988 166.991 98.5732 165.747 97.7438 164.812C96.9319 163.876 95.8466 163.408 94.4876 163.408C93.1464 163.408 92.061 163.876 91.2315 164.812C90.4021 165.747 89.9873 166.991 89.9873 168.544C89.9873 169.585 90.1726 170.503 90.5432 171.297C90.9139 172.091 91.4345 172.718 92.1051 173.177C92.7934 173.618 93.5876 173.839 94.4876 173.839ZM104.335 175.374V161.873H106.453V175.374H104.335ZM104.176 158.802V156.314H106.612V158.802H104.176ZM120.464 175.374V172.224L120.729 172.303C120.394 173.327 119.776 174.139 118.876 174.739C117.993 175.339 116.934 175.639 115.699 175.639C114.481 175.639 113.414 175.348 112.496 174.765C111.596 174.183 110.89 173.371 110.378 172.33C109.884 171.288 109.637 170.071 109.637 168.676C109.637 167.265 109.893 166.029 110.405 164.97C110.916 163.911 111.631 163.091 112.549 162.508C113.467 161.926 114.543 161.635 115.779 161.635C117.049 161.635 118.117 161.944 118.982 162.561C119.846 163.179 120.438 164.053 120.755 165.182L120.332 165.235V156.314H122.45V175.374H120.464ZM116.096 173.786C117.455 173.786 118.514 173.327 119.273 172.409C120.049 171.474 120.438 170.203 120.438 168.597C120.438 167.026 120.049 165.782 119.273 164.864C118.496 163.947 117.437 163.488 116.096 163.488C114.755 163.488 113.705 163.947 112.946 164.864C112.187 165.782 111.808 167.053 111.808 168.676C111.808 170.265 112.187 171.518 112.946 172.436C113.705 173.336 114.755 173.786 116.096 173.786ZM130.832 175.374L138.191 156.314H140.097L132.923 175.374H130.832ZM145.974 175.374L138.8 156.314H140.838L148.198 175.374H145.974ZM134.485 167.671H144.439V169.577H134.485V167.671ZM157.927 175.612C156.657 175.612 155.589 175.303 154.724 174.686C153.859 174.068 153.268 173.194 152.951 172.065L153.374 172.012V180.801H151.256V161.873H153.242V165.023L152.951 164.944C153.286 163.903 153.921 163.091 154.857 162.508C155.792 161.908 156.877 161.608 158.113 161.608C159.313 161.608 160.354 161.9 161.236 162.482C162.137 163.064 162.834 163.876 163.328 164.917C163.822 165.959 164.069 167.176 164.069 168.571C164.069 169.982 163.813 171.218 163.301 172.277C162.789 173.336 162.075 174.156 161.157 174.739C160.239 175.321 159.163 175.612 157.927 175.612ZM157.61 173.759C158.951 173.759 160.001 173.3 160.76 172.383C161.519 171.447 161.898 170.177 161.898 168.571C161.898 166.982 161.519 165.738 160.76 164.838C160.001 163.92 158.951 163.461 157.61 163.461C156.268 163.461 155.21 163.929 154.433 164.864C153.657 165.782 153.268 167.044 153.268 168.65C153.268 170.221 153.657 171.465 154.433 172.383C155.21 173.3 156.268 173.759 157.61 173.759ZM173.981 175.612C172.711 175.612 171.643 175.303 170.778 174.686C169.914 174.068 169.322 173.194 169.005 172.065L169.428 172.012V180.801H167.31V161.873H169.296V165.023L169.005 164.944C169.34 163.903 169.975 163.091 170.911 162.508C171.846 161.908 172.931 161.608 174.167 161.608C175.367 161.608 176.408 161.9 177.291 162.482C178.191 163.064 178.888 163.876 179.382 164.917C179.876 165.959 180.123 167.176 180.123 168.571C180.123 169.982 179.867 171.218 179.355 172.277C178.844 173.336 178.129 174.156 177.211 174.739C176.293 175.321 175.217 175.612 173.981 175.612ZM173.664 173.759C175.005 173.759 176.055 173.3 176.814 172.383C177.573 171.447 177.952 170.177 177.952 168.571C177.952 166.982 177.573 165.738 176.814 164.838C176.055 163.92 175.005 163.461 173.664 163.461C172.323 163.461 171.264 163.929 170.487 164.864C169.711 165.782 169.322 167.044 169.322 168.65C169.322 170.221 169.711 171.465 170.487 172.383C171.264 173.3 172.323 173.759 173.664 173.759ZM29.2432 209.374V207.468H34.3524C35.9407 207.468 37.3085 207.15 38.4556 206.515C39.6028 205.862 40.4852 204.953 41.1029 203.788C41.7206 202.624 42.0294 201.273 42.0294 199.738C42.0294 198.22 41.7206 196.897 41.1029 195.767C40.4852 194.638 39.6028 193.764 38.4556 193.146C37.3261 192.529 35.9584 192.22 34.3524 192.22H29.2432V190.314H34.3524C36.3467 190.314 38.085 190.711 39.5675 191.505C41.0499 192.282 42.1971 193.385 43.0089 194.814C43.8384 196.226 44.2531 197.885 44.2531 199.791C44.2531 201.697 43.8384 203.374 43.0089 204.821C42.1794 206.25 41.0234 207.371 39.541 208.183C38.0762 208.977 36.3555 209.374 34.3789 209.374H29.2432ZM27.9461 209.374V190.314H30.1168V209.374H27.9461ZM53.1226 209.639C51.8343 209.639 50.696 209.339 49.7076 208.739C48.7193 208.121 47.9428 207.283 47.3781 206.224C46.8133 205.165 46.531 203.947 46.531 202.571C46.531 201.194 46.8045 199.985 47.3516 198.944C47.9163 197.885 48.7017 197.064 49.7076 196.482C50.7136 195.9 51.8696 195.608 53.1755 195.608C54.4286 195.608 55.5139 195.882 56.4316 196.429C57.367 196.976 58.0818 197.744 58.5759 198.732C59.0877 199.72 59.3436 200.885 59.3436 202.226C59.3436 202.403 59.3348 202.571 59.3171 202.729C59.3171 202.888 59.2995 203.065 59.2642 203.259H48.1193V201.485H57.9671L57.2788 202.465C57.2788 200.841 56.917 199.597 56.1934 198.732C55.4875 197.85 54.4815 197.408 53.1755 197.408C51.8343 197.408 50.7489 197.876 49.9194 198.812C49.1076 199.729 48.7017 200.973 48.7017 202.544C48.7017 204.15 49.1076 205.438 49.9194 206.409C50.7489 207.362 51.8519 207.839 53.2285 207.839C54.0933 207.839 54.8521 207.653 55.5051 207.283C56.1581 206.894 56.6346 206.347 56.9346 205.641H58.9465C58.5053 206.877 57.7641 207.856 56.7228 208.58C55.6992 209.286 54.4992 209.639 53.1226 209.639ZM66.1665 209.374L60.5808 195.873H62.8574L67.5166 207.945H66.6695L71.3021 195.873H73.4729L67.8872 209.374H66.1665ZM81.2754 209.639C79.9871 209.639 78.8488 209.339 77.8605 208.739C76.8722 208.121 76.0956 207.283 75.5309 206.224C74.9661 205.165 74.6838 203.947 74.6838 202.571C74.6838 201.194 74.9573 199.985 75.5044 198.944C76.0692 197.885 76.8545 197.064 77.8605 196.482C78.8664 195.9 80.0224 195.608 81.3284 195.608C82.5814 195.608 83.6668 195.882 84.5845 196.429C85.5198 196.976 86.2346 197.744 86.7287 198.732C87.2405 199.72 87.4964 200.885 87.4964 202.226C87.4964 202.403 87.4876 202.571 87.47 202.729C87.47 202.888 87.4523 203.065 87.417 203.259H76.2721V201.485H86.1199L85.4316 202.465C85.4316 200.841 85.0698 199.597 84.3462 198.732C83.6403 197.85 82.6343 197.408 81.3284 197.408C79.9871 197.408 78.9017 197.876 78.0722 198.812C77.2604 199.729 76.8545 200.973 76.8545 202.544C76.8545 204.15 77.2604 205.438 78.0722 206.409C78.9017 207.362 80.0047 207.839 81.3813 207.839C82.2461 207.839 83.0049 207.653 83.6579 207.283C84.3109 206.894 84.7874 206.347 85.0874 205.641H87.0993C86.6581 206.877 85.9169 207.856 84.8757 208.58C83.8521 209.286 82.652 209.639 81.2754 209.639ZM90.6851 209.374V190.314H92.8029V209.374H90.6851ZM102.657 209.639C101.333 209.639 100.168 209.33 99.1625 208.712C98.1566 208.095 97.3712 207.256 96.8065 206.197C96.2594 205.121 95.9858 203.912 95.9858 202.571C95.9858 201.212 96.2682 200.012 96.8329 198.97C97.3977 197.929 98.1742 197.108 99.1625 196.508C100.168 195.908 101.333 195.608 102.657 195.608C103.998 195.608 105.163 195.908 106.151 196.508C107.157 197.108 107.934 197.929 108.481 198.97C109.046 200.012 109.328 201.212 109.328 202.571C109.328 203.912 109.046 205.121 108.481 206.197C107.934 207.256 107.157 208.095 106.151 208.712C105.163 209.33 103.998 209.639 102.657 209.639ZM102.657 207.839C103.575 207.839 104.369 207.618 105.039 207.177C105.71 206.718 106.231 206.091 106.601 205.297C106.972 204.503 107.157 203.585 107.157 202.544C107.157 200.991 106.742 199.747 105.913 198.812C105.101 197.876 104.016 197.408 102.657 197.408C101.316 197.408 100.23 197.876 99.4008 198.812C98.5713 199.747 98.1566 200.991 98.1566 202.544C98.1566 203.585 98.3419 204.503 98.7125 205.297C99.0831 206.091 99.6037 206.718 100.274 207.177C100.963 207.618 101.757 207.839 102.657 207.839ZM119.175 209.612C117.905 209.612 116.837 209.303 115.972 208.686C115.107 208.068 114.516 207.194 114.198 206.065L114.622 206.012V214.801H112.504V195.873H114.49V199.023L114.198 198.944C114.534 197.903 115.169 197.091 116.104 196.508C117.04 195.908 118.125 195.608 119.361 195.608C120.561 195.608 121.602 195.9 122.484 196.482C123.384 197.064 124.081 197.876 124.576 198.917C125.07 199.959 125.317 201.176 125.317 202.571C125.317 203.982 125.061 205.218 124.549 206.277C124.037 207.336 123.323 208.156 122.405 208.739C121.487 209.321 120.411 209.612 119.175 209.612ZM118.858 207.759C120.199 207.759 121.249 207.3 122.008 206.383C122.767 205.447 123.146 204.177 123.146 202.571C123.146 200.982 122.767 199.738 122.008 198.838C121.249 197.92 120.199 197.461 118.858 197.461C117.516 197.461 116.457 197.929 115.681 198.864C114.904 199.782 114.516 201.044 114.516 202.65C114.516 204.221 114.904 205.465 115.681 206.383C116.457 207.3 117.516 207.759 118.858 207.759ZM128.558 209.374V195.873H130.544V199.05H130.676V209.374H128.558ZM137.665 209.374V200.426C137.665 199.403 137.435 198.653 136.977 198.176C136.518 197.7 135.856 197.461 134.991 197.461C134.179 197.461 133.447 197.656 132.794 198.044C132.141 198.432 131.62 198.97 131.232 199.659C130.861 200.347 130.676 201.15 130.676 202.068L130.332 198.864C130.791 197.859 131.479 197.064 132.397 196.482C133.315 195.9 134.312 195.608 135.388 195.608C136.694 195.608 137.753 195.997 138.565 196.773C139.377 197.532 139.783 198.564 139.783 199.87V209.374H137.665ZM146.771 209.374V200.426C146.771 199.403 146.542 198.653 146.083 198.176C145.624 197.7 144.962 197.461 144.098 197.461C143.286 197.461 142.553 197.656 141.9 198.044C141.247 198.432 140.727 198.97 140.339 199.659C139.968 200.347 139.783 201.15 139.783 202.068L139.253 198.864C139.712 197.859 140.418 197.064 141.371 196.482C142.324 195.9 143.348 195.608 144.442 195.608C145.748 195.608 146.815 195.997 147.645 196.773C148.474 197.532 148.889 198.564 148.889 199.87V209.374H146.771ZM158.495 209.639C157.207 209.639 156.069 209.339 155.08 208.739C154.092 208.121 153.316 207.283 152.751 206.224C152.186 205.165 151.904 203.947 151.904 202.571C151.904 201.194 152.177 199.985 152.724 198.944C153.289 197.885 154.074 197.064 155.08 196.482C156.086 195.9 157.242 195.608 158.548 195.608C159.801 195.608 160.887 195.882 161.804 196.429C162.74 196.976 163.454 197.744 163.949 198.732C164.46 199.72 164.716 200.885 164.716 202.226C164.716 202.403 164.708 202.571 164.69 202.729C164.69 202.888 164.672 203.065 164.637 203.259H153.492V201.485H163.34L162.651 202.465C162.651 200.841 162.29 199.597 161.566 198.732C160.86 197.85 159.854 197.408 158.548 197.408C157.207 197.408 156.122 197.876 155.292 198.812C154.48 199.729 154.074 200.973 154.074 202.544C154.074 204.15 154.48 205.438 155.292 206.409C156.122 207.362 157.225 207.839 158.601 207.839C159.466 207.839 160.225 207.653 160.878 207.283C161.531 206.894 162.007 206.347 162.307 205.641H164.319C163.878 206.877 163.137 207.856 162.096 208.58C161.072 209.286 159.872 209.639 158.495 209.639ZM167.905 209.374V195.873H169.89V199.05H170.023V209.374H167.905ZM177.567 209.374V200.532C177.567 199.509 177.312 198.741 176.8 198.229C176.288 197.717 175.529 197.461 174.523 197.461C173.641 197.461 172.855 197.656 172.167 198.044C171.496 198.432 170.967 198.97 170.579 199.659C170.208 200.347 170.023 201.15 170.023 202.068L169.679 198.864C170.138 197.859 170.835 197.064 171.77 196.482C172.723 195.9 173.8 195.608 175 195.608C176.412 195.608 177.541 196.014 178.388 196.826C179.253 197.62 179.685 198.67 179.685 199.976V209.374H177.567ZM188.791 209.612C187.291 209.612 186.196 209.277 185.508 208.606C184.838 207.918 184.502 206.93 184.502 205.641V192.723L186.62 191.929V205.615C186.62 206.374 186.814 206.93 187.202 207.283C187.591 207.636 188.226 207.812 189.108 207.812C189.461 207.812 189.761 207.795 190.008 207.759C190.273 207.706 190.485 207.644 190.644 207.574V209.374C190.467 209.445 190.211 209.498 189.876 209.533C189.558 209.586 189.197 209.612 188.791 209.612ZM181.723 197.673V195.873H190.644V197.673H181.723Z" fill="white"/>
<path d="M26.8872 99.7868C26.8872 96.8925 27.549 94.5099 28.8726 92.6392C30.1962 90.7509 31.8905 89.8067 33.9553 89.8067C36.0202 89.8067 37.7144 90.7509 39.038 92.6392C40.3616 94.5099 41.0234 96.8925 41.0234 99.7868C41.0234 102.681 40.3616 105.072 39.038 106.961C37.7144 108.832 36.0202 109.767 33.9553 109.767C31.8905 109.767 30.1962 108.832 28.8726 106.961C27.549 105.072 26.8872 102.681 26.8872 99.7868ZM39.6734 99.7868C39.6734 97.2807 39.1351 95.1982 38.0585 93.5393C36.982 91.8803 35.6142 91.0509 33.9553 91.0509C32.2964 91.0509 30.9286 91.8803 29.8521 93.5393C28.7755 95.1982 28.2373 97.2807 28.2373 99.7868C28.2373 102.293 28.7755 104.375 29.8521 106.034C30.9286 107.693 32.2964 108.523 33.9553 108.523C35.6142 108.523 36.982 107.693 38.0585 106.034C39.1351 104.375 39.6734 102.293 39.6734 99.7868ZM43.273 92.9569L49.7058 89.7537V109.449H48.3557V91.7656L43.273 94.3335V92.9569Z" fill="white"/>
</svg>
