<svg width="162" height="334" viewBox="0 0 162 334" fill="none" xmlns="http://www.w3.org/2000/svg">
<path d="M160.792 11.2988H30.9922C23.0357 11.2988 15.405 14.4595 9.77893 20.0856C4.15284 25.7117 0.992188 33.3423 0.992188 41.2988V264.799H46.2922C54.2487 264.799 61.8793 267.96 67.5054 273.586C73.1315 279.212 76.2922 286.842 76.2922 294.799V314.499C76.2922 319.511 78.2834 324.319 81.8278 327.863C85.3723 331.408 90.1795 333.399 95.1921 333.399C100.205 333.399 105.012 331.408 108.556 327.863C112.101 324.319 114.092 319.511 114.092 314.499V162.899C114.087 159.838 114.686 156.805 115.855 153.976C117.024 151.147 118.74 148.576 120.905 146.411C123.07 144.247 125.64 142.531 128.469 141.362C131.299 140.193 134.331 139.594 137.392 139.599C140.453 139.604 143.486 139.005 146.315 137.836C149.144 136.667 151.715 134.951 153.88 132.786C156.044 130.622 157.76 128.051 158.929 125.222C160.098 122.392 160.697 119.36 160.692 116.299V11.2988H160.792Z" fill="#C8E4FF" stroke="black"/>
<path d="M160.792 1.29883H30.9922C23.0357 1.29883 15.405 4.45953 9.77893 10.0856C4.15284 15.7117 0.992188 23.3423 0.992188 31.2988V254.799H46.2922C54.2487 254.799 61.8793 257.96 67.5054 263.586C73.1315 269.212 76.2922 276.842 76.2922 284.799V304.499C76.2922 309.511 78.2834 314.319 81.8278 317.863C85.3723 321.408 90.1795 323.399 95.1921 323.399C100.205 323.399 105.012 321.408 108.556 317.863C112.101 314.319 114.092 309.511 114.092 304.499V152.899C114.087 149.838 114.686 146.805 115.855 143.976C117.024 141.147 118.74 138.576 120.905 136.411C123.07 134.247 125.64 132.531 128.469 131.362C131.299 130.193 134.331 129.594 137.392 129.599C140.453 129.604 143.486 129.005 146.315 127.836C149.144 126.667 151.715 124.951 153.88 122.786C156.044 120.622 157.76 118.051 158.929 115.222C160.098 112.392 160.697 109.36 160.692 106.299V1.29883H160.792Z" fill="#C8E4FF" stroke="black"/>
<path d="M14.1876 90.6719L19.6253 76.5886H21.0336L15.7328 90.6719H14.1876ZM25.376 90.6719L20.0752 76.5886H21.5813L27.019 90.6719H25.376ZM16.8869 84.9799H24.2415V86.3882H16.8869V84.9799ZM29.279 90.6719V80.6962H30.746V83.0434H30.8438V90.6719H29.279ZM36.4185 90.6719V84.1388C36.4185 83.3825 36.2294 82.8152 35.8512 82.437C35.473 82.0589 34.9123 81.8698 34.169 81.8698C33.517 81.8698 32.9367 82.0132 32.4282 82.3001C31.9327 82.587 31.5415 82.9847 31.2546 83.4933C30.9807 84.0019 30.8438 84.5952 30.8438 85.2733L30.5895 82.9065C30.9286 82.1632 31.4437 81.5764 32.1348 81.1461C32.8389 80.7158 33.6344 80.5006 34.5211 80.5006C35.5643 80.5006 36.3989 80.8005 37.0248 81.4004C37.6638 81.9872 37.9833 82.763 37.9833 83.728V90.6719H36.4185ZM48.2452 90.6719V88.3442L48.4408 88.4029C48.193 89.1592 47.7366 89.7591 47.0716 90.2024C46.4196 90.6458 45.6371 90.8675 44.7243 90.8675C43.8246 90.8675 43.0356 90.6523 42.3576 90.222C41.6925 89.7917 41.1709 89.1918 40.7927 88.4225C40.4276 87.6531 40.2451 86.7533 40.2451 85.7232C40.2451 84.6799 40.4341 83.7671 40.8123 82.9847C41.1905 82.2023 41.7186 81.596 42.3967 81.1656C43.0748 80.7353 43.8702 80.5202 44.783 80.5202C45.7219 80.5202 46.5108 80.7484 47.1498 81.2048C47.7888 81.6612 48.2256 82.3066 48.4603 83.1412L48.1474 83.1803V76.5886H49.7122V90.6719H48.2452ZM45.0177 89.4983C46.0218 89.4983 46.8042 89.1592 47.365 88.4811C47.9387 87.79 48.2256 86.8511 48.2256 85.6645C48.2256 84.5039 47.9387 83.5846 47.365 82.9065C46.7912 82.2284 46.0088 81.8894 45.0177 81.8894C44.0267 81.8894 43.2508 82.2284 42.6901 82.9065C42.1294 83.5846 41.849 84.5235 41.849 85.7232C41.849 86.8968 42.1294 87.8226 42.6901 88.5007C43.2508 89.1657 44.0267 89.4983 45.0177 89.4983ZM52.8505 90.6719V80.6962H54.3175V83.239H54.4153V90.6719H52.8505ZM54.4153 85.4689L54.161 83.1021C54.3958 82.2545 54.8131 81.609 55.4129 81.1656C56.0127 80.7223 56.7039 80.5006 57.4863 80.5006C57.8123 80.5006 58.034 80.5267 58.1513 80.5788V82.085C58.0861 82.0589 57.9948 82.0458 57.8775 82.0458C57.7601 82.0328 57.6167 82.0263 57.4472 82.0263C56.4561 82.0263 55.6998 82.3262 55.1782 82.9261C54.6696 83.5129 54.4153 84.3605 54.4153 85.4689ZM64.3323 90.8675C63.3543 90.8675 62.4937 90.6393 61.7504 90.1829C61.0071 89.7265 60.4268 89.1071 60.0095 88.3247C59.6053 87.5292 59.4032 86.636 59.4032 85.6449C59.4032 84.6408 59.6118 83.7541 60.0291 82.9847C60.4464 82.2154 61.0201 81.609 61.7504 81.1656C62.4937 80.7223 63.3543 80.5006 64.3323 80.5006C65.3234 80.5006 66.184 80.7223 66.9143 81.1656C67.6576 81.609 68.2313 82.2154 68.6356 82.9847C69.0528 83.7541 69.2615 84.6408 69.2615 85.6449C69.2615 86.636 69.0528 87.5292 68.6356 88.3247C68.2313 89.1071 67.6576 89.7265 66.9143 90.1829C66.184 90.6393 65.3234 90.8675 64.3323 90.8675ZM64.3323 89.5374C65.0104 89.5374 65.5972 89.3744 66.0927 89.0484C66.5883 88.7093 66.973 88.2464 67.2468 87.6596C67.5206 87.0728 67.6576 86.3947 67.6576 85.6254C67.6576 84.4778 67.3511 83.5585 66.7382 82.8674C66.1384 82.1762 65.3364 81.8307 64.3323 81.8307C63.3413 81.8307 62.5393 82.1762 61.9264 82.8674C61.3135 83.5585 61.0071 84.4778 61.0071 85.6254C61.0071 86.3947 61.144 87.0728 61.4179 87.6596C61.6917 88.2464 62.0764 88.7093 62.5719 89.0484C63.0805 89.3744 63.6673 89.5374 64.3323 89.5374ZM71.6084 90.6719V80.6962H73.1732V90.6719H71.6084ZM71.491 78.4272V76.5886H73.2906V78.4272H71.491ZM83.526 90.6719V88.3442L83.7216 88.4029C83.4739 89.1592 83.0175 89.7591 82.3524 90.2024C81.7004 90.6458 80.918 90.8675 80.0052 90.8675C79.1054 90.8675 78.3165 90.6523 77.6384 90.222C76.9734 89.7917 76.4518 89.1918 76.0736 88.4225C75.7085 87.6531 75.5259 86.7533 75.5259 85.7232C75.5259 84.6799 75.715 83.7671 76.0932 82.9847C76.4713 82.2023 76.9995 81.596 77.6776 81.1656C78.3556 80.7353 79.1511 80.5202 80.0639 80.5202C81.0028 80.5202 81.7917 80.7484 82.4307 81.2048C83.0696 81.6612 83.5065 82.3066 83.7412 83.1412L83.4282 83.1803V76.5886H84.9931V90.6719H83.526ZM80.2986 89.4983C81.3027 89.4983 82.0851 89.1592 82.6458 88.4811C83.2196 87.79 83.5065 86.8511 83.5065 85.6645C83.5065 84.5039 83.2196 83.5846 82.6458 82.9065C82.0721 82.2284 81.2897 81.8894 80.2986 81.8894C79.3076 81.8894 78.5317 82.2284 77.971 82.9065C77.4102 83.5846 77.1299 84.5235 77.1299 85.7232C77.1299 86.8968 77.4102 87.8226 77.971 88.5007C78.5317 89.1657 79.3076 89.4983 80.2986 89.4983ZM91.1866 90.6719L96.6243 76.5886H98.0327L92.7318 90.6719H91.1866ZM102.375 90.6719L97.0742 76.5886H98.5803L104.018 90.6719H102.375ZM93.8859 84.9799H101.241V86.3882H93.8859V84.9799ZM111.207 90.8479C110.268 90.8479 109.479 90.6197 108.84 90.1633C108.201 89.7069 107.765 89.0614 107.53 88.2269L107.843 88.1877V94.6817H106.278V80.6962H107.745V83.0239L107.53 82.9652C107.778 82.1958 108.247 81.596 108.938 81.1656C109.629 80.7223 110.431 80.5006 111.344 80.5006C112.231 80.5006 113 80.7158 113.652 81.1461C114.317 81.5764 114.832 82.1762 115.197 82.9456C115.563 83.715 115.745 84.6147 115.745 85.6449C115.745 86.6881 115.556 87.6009 115.178 88.3833C114.8 89.1657 114.272 89.7721 113.594 90.2024C112.915 90.6328 112.12 90.8479 111.207 90.8479ZM110.972 89.4787C111.964 89.4787 112.739 89.1397 113.3 88.4616C113.861 87.7705 114.141 86.8316 114.141 85.6449C114.141 84.4713 113.861 83.552 113.3 82.8869C112.739 82.2088 111.964 81.8698 110.972 81.8698C109.981 81.8698 109.199 82.2154 108.625 82.9065C108.051 83.5846 107.765 84.5169 107.765 85.7036C107.765 86.8642 108.051 87.7835 108.625 88.4616C109.199 89.1397 109.981 89.4787 110.972 89.4787ZM123.069 90.8479C122.13 90.8479 121.342 90.6197 120.703 90.1633C120.064 89.7069 119.627 89.0614 119.392 88.2269L119.705 88.1877V94.6817H118.14V80.6962H119.607V83.0239L119.392 82.9652C119.64 82.1958 120.109 81.596 120.8 81.1656C121.491 80.7223 122.293 80.5006 123.206 80.5006C124.093 80.5006 124.862 80.7158 125.514 81.1461C126.179 81.5764 126.695 82.1762 127.06 82.9456C127.425 83.715 127.607 84.6147 127.607 85.6449C127.607 86.6881 127.418 87.6009 127.04 88.3833C126.662 89.1657 126.134 89.7721 125.456 90.2024C124.778 90.6328 123.982 90.8479 123.069 90.8479ZM122.835 89.4787C123.826 89.4787 124.602 89.1397 125.162 88.4616C125.723 87.7705 126.003 86.8316 126.003 85.6449C126.003 84.4713 125.723 83.552 125.162 82.8869C124.602 82.2088 123.826 81.8698 122.835 81.8698C121.844 81.8698 121.061 82.2154 120.487 82.9065C119.914 83.5846 119.627 84.5169 119.627 85.7036C119.627 86.8642 119.914 87.7835 120.487 88.4616C121.061 89.1397 121.844 89.4787 122.835 89.4787ZM16.124 115.672V114.264H19.8991C21.0727 114.264 22.0833 114.029 22.931 113.559C23.7786 113.077 24.4306 112.405 24.887 111.545C25.3434 110.684 25.5716 109.686 25.5716 108.552C25.5716 107.431 25.3434 106.453 24.887 105.618C24.4306 104.783 23.7786 104.138 22.931 103.681C22.0964 103.225 21.0858 102.997 19.8991 102.997H16.124V101.589H19.8991C21.3727 101.589 22.6571 101.882 23.7525 102.469C24.8479 103.043 25.6955 103.858 26.2953 104.914C26.9082 105.957 27.2146 107.183 27.2146 108.591C27.2146 109.999 26.9082 111.238 26.2953 112.308C25.6824 113.364 24.8283 114.192 23.7329 114.792C22.6506 115.378 21.3792 115.672 19.9187 115.672H16.124ZM15.1656 115.672V101.589H16.7695V115.672H15.1656ZM33.7682 115.867C32.8163 115.867 31.9752 115.646 31.2449 115.202C30.5147 114.746 29.9409 114.127 29.5236 113.344C29.1064 112.562 28.8977 111.662 28.8977 110.645C28.8977 109.628 29.0998 108.735 29.5041 107.965C29.9214 107.183 30.5017 106.576 31.2449 106.146C31.9882 105.716 32.8424 105.501 33.8073 105.501C34.7332 105.501 35.5351 105.703 36.2132 106.107C36.9043 106.511 37.4325 107.078 37.7976 107.809C38.1758 108.539 38.3648 109.4 38.3648 110.391C38.3648 110.521 38.3583 110.645 38.3453 110.762C38.3453 110.88 38.3322 111.01 38.3062 111.153H30.0713V109.843H37.3477L36.8391 110.567C36.8391 109.367 36.5718 108.448 36.0372 107.809C35.5156 107.157 34.7723 106.831 33.8073 106.831C32.8163 106.831 32.0143 107.176 31.4014 107.867C30.8016 108.545 30.5017 109.465 30.5017 110.625C30.5017 111.812 30.8016 112.764 31.4014 113.481C32.0143 114.185 32.8293 114.537 33.8464 114.537C34.4854 114.537 35.0461 114.4 35.5286 114.127C36.0111 113.84 36.3632 113.435 36.5849 112.914H38.0714C37.7454 113.827 37.1978 114.55 36.4284 115.085C35.6721 115.607 34.7853 115.867 33.7682 115.867ZM43.4062 115.672L39.279 105.696H40.9611L44.4037 114.616H43.7778L47.2008 105.696H48.8048L44.6776 115.672H43.4062ZM54.57 115.867C53.6181 115.867 52.777 115.646 52.0467 115.202C51.3165 114.746 50.7427 114.127 50.3254 113.344C49.9081 112.562 49.6995 111.662 49.6995 110.645C49.6995 109.628 49.9016 108.735 50.3059 107.965C50.7231 107.183 51.3034 106.576 52.0467 106.146C52.79 105.716 53.6441 105.501 54.6091 105.501C55.5349 105.501 56.3369 105.703 57.015 106.107C57.7061 106.511 58.2342 107.078 58.5994 107.809C58.9775 108.539 59.1666 109.4 59.1666 110.391C59.1666 110.521 59.1601 110.645 59.1471 110.762C59.1471 110.88 59.134 111.01 59.1079 111.153H50.8731V109.843H58.1495L57.6409 110.567C57.6409 109.367 57.3736 108.448 56.839 107.809C56.3174 107.157 55.5741 106.831 54.6091 106.831C53.6181 106.831 52.8161 107.176 52.2032 107.867C51.6034 108.545 51.3034 109.465 51.3034 110.625C51.3034 111.812 51.6034 112.764 52.2032 113.481C52.8161 114.185 53.6311 114.537 54.6482 114.537C55.2872 114.537 55.8479 114.4 56.3304 114.127C56.8129 113.84 57.165 113.435 57.3866 112.914H58.8732C58.5472 113.827 57.9995 114.55 57.2302 115.085C56.4738 115.607 55.5871 115.867 54.57 115.867ZM61.5227 115.672V101.589H63.0875V115.672H61.5227ZM70.3685 115.867C69.3905 115.867 68.5298 115.639 67.7865 115.183C67.0432 114.726 66.463 114.107 66.0457 113.325C65.6414 112.529 65.4393 111.636 65.4393 110.645C65.4393 109.641 65.648 108.754 66.0652 107.985C66.4825 107.215 67.0563 106.609 67.7865 106.166C68.5298 105.722 69.3905 105.501 70.3685 105.501C71.3595 105.501 72.2202 105.722 72.9504 106.166C73.6937 106.609 74.2675 107.215 74.6717 107.985C75.089 108.754 75.2976 109.641 75.2976 110.645C75.2976 111.636 75.089 112.529 74.6717 113.325C74.2675 114.107 73.6937 114.726 72.9504 115.183C72.2202 115.639 71.3595 115.867 70.3685 115.867ZM70.3685 114.537C71.0466 114.537 71.6334 114.374 72.1289 114.048C72.6244 113.709 73.0091 113.246 73.2829 112.66C73.5568 112.073 73.6937 111.395 73.6937 110.625C73.6937 109.478 73.3873 108.558 72.7744 107.867C72.1745 107.176 71.3726 106.831 70.3685 106.831C69.3774 106.831 68.5755 107.176 67.9626 107.867C67.3497 108.558 67.0432 109.478 67.0432 110.625C67.0432 111.395 67.1802 112.073 67.454 112.66C67.7279 113.246 68.1125 113.709 68.6081 114.048C69.1166 114.374 69.7034 114.537 70.3685 114.537ZM82.5737 115.848C81.6348 115.848 80.8459 115.62 80.2069 115.163C79.568 114.707 79.1311 114.061 78.8964 113.227L79.2094 113.188V119.682H77.6445V105.696H79.1116V108.024L78.8964 107.965C79.1442 107.196 79.6136 106.596 80.3047 106.166C80.9959 105.722 81.7978 105.501 82.7106 105.501C83.5974 105.501 84.3667 105.716 85.0187 106.146C85.6838 106.576 86.1989 107.176 86.564 107.946C86.9291 108.715 87.1117 109.615 87.1117 110.645C87.1117 111.688 86.9226 112.601 86.5444 113.383C86.1663 114.166 85.6381 114.772 84.96 115.202C84.282 115.633 83.4865 115.848 82.5737 115.848ZM82.339 114.479C83.33 114.479 84.1059 114.14 84.6666 113.462C85.2274 112.77 85.5077 111.832 85.5077 110.645C85.5077 109.471 85.2274 108.552 84.6666 107.887C84.1059 107.209 83.33 106.87 82.339 106.87C81.3479 106.87 80.5655 107.215 79.9918 107.906C79.418 108.585 79.1311 109.517 79.1311 110.704C79.1311 111.864 79.418 112.783 79.9918 113.462C80.5655 114.14 81.3479 114.479 82.339 114.479ZM89.5067 115.672V105.696H90.9737V108.043H91.0715V115.672H89.5067ZM96.2354 115.672V109.061C96.2354 108.304 96.0659 107.75 95.7268 107.398C95.3878 107.046 94.8988 106.87 94.2598 106.87C93.66 106.87 93.1188 107.013 92.6363 107.3C92.1539 107.587 91.7692 107.985 91.4823 108.493C91.2084 109.002 91.0715 109.595 91.0715 110.273L90.8172 107.906C91.1563 107.163 91.6649 106.576 92.3429 106.146C93.021 105.716 93.7578 105.501 94.5532 105.501C95.5182 105.501 96.3006 105.787 96.9005 106.361C97.5003 106.922 97.8002 107.685 97.8002 108.65V115.672H96.2354ZM102.964 115.672V109.061C102.964 108.304 102.795 107.75 102.456 107.398C102.116 107.046 101.627 106.87 100.989 106.87C100.389 106.87 99.8475 107.013 99.365 107.3C98.8826 107.587 98.4979 107.985 98.211 108.493C97.9371 109.002 97.8002 109.595 97.8002 110.273L97.409 107.906C97.7481 107.163 98.2697 106.576 98.9738 106.146C99.678 105.716 100.434 105.501 101.243 105.501C102.208 105.501 102.997 105.787 103.61 106.361C104.222 106.922 104.529 107.685 104.529 108.65V115.672H102.964ZM111.627 115.867C110.675 115.867 109.834 115.646 109.104 115.202C108.373 114.746 107.8 114.127 107.382 113.344C106.965 112.562 106.756 111.662 106.756 110.645C106.756 109.628 106.958 108.735 107.363 107.965C107.78 107.183 108.36 106.576 109.104 106.146C109.847 105.716 110.701 105.501 111.666 105.501C112.592 105.501 113.394 105.703 114.072 106.107C114.763 106.511 115.291 107.078 115.656 107.809C116.034 108.539 116.223 109.4 116.223 110.391C116.223 110.521 116.217 110.645 116.204 110.762C116.204 110.88 116.191 111.01 116.165 111.153H107.93V109.843H115.206L114.698 110.567C114.698 109.367 114.43 108.448 113.896 107.809C113.374 107.157 112.631 106.831 111.666 106.831C110.675 106.831 109.873 107.176 109.26 107.867C108.66 108.545 108.36 109.465 108.36 110.625C108.36 111.812 108.66 112.764 109.26 113.481C109.873 114.185 110.688 114.537 111.705 114.537C112.344 114.537 112.905 114.4 113.387 114.127C113.87 113.84 114.222 113.435 114.443 112.914H115.93C115.604 113.827 115.056 114.55 114.287 115.085C113.531 115.607 112.644 115.867 111.627 115.867ZM118.58 115.672V105.696H120.047V108.043H120.144V115.672H118.58ZM125.719 115.672V109.139C125.719 108.382 125.53 107.815 125.152 107.437C124.774 107.059 124.213 106.87 123.47 106.87C122.818 106.87 122.237 107.013 121.729 107.3C121.233 107.587 120.842 107.985 120.555 108.493C120.281 109.002 120.144 109.595 120.144 110.273L119.89 107.906C120.229 107.163 120.744 106.576 121.435 106.146C122.139 105.716 122.935 105.501 123.822 105.501C124.865 105.501 125.699 105.801 126.325 106.4C126.964 106.987 127.284 107.763 127.284 108.728V115.672H125.719ZM134.012 115.848C132.903 115.848 132.095 115.6 131.586 115.105C131.091 114.596 130.843 113.866 130.843 112.914V103.369L132.408 102.782V112.894C132.408 113.455 132.551 113.866 132.838 114.127C133.125 114.387 133.594 114.518 134.246 114.518C134.507 114.518 134.729 114.505 134.912 114.479C135.107 114.44 135.264 114.394 135.381 114.342V115.672C135.251 115.724 135.061 115.763 134.814 115.789C134.579 115.828 134.312 115.848 134.012 115.848ZM128.789 107.026V105.696H135.381V107.026H128.789Z" fill="#001F4F"/>
<path d="M14.3832 40.26C14.3832 38.1214 14.8722 36.361 15.8502 34.9787C16.8282 33.5834 18.08 32.8858 19.6057 32.8858C21.1314 32.8858 22.3833 33.5834 23.3613 34.9787C24.3393 36.361 24.8283 38.1214 24.8283 40.26C24.8283 42.3985 24.3393 44.1655 23.3613 45.5608C22.3833 46.943 21.1314 47.6341 19.6057 47.6341C18.08 47.6341 16.8282 46.943 15.8502 45.5608C14.8722 44.1655 14.3832 42.3985 14.3832 40.26ZM23.8307 40.26C23.8307 38.4083 23.433 36.8695 22.6376 35.6438C21.8421 34.418 20.8315 33.8051 19.6057 33.8051C18.38 33.8051 17.3694 34.418 16.5739 35.6438C15.7785 36.8695 15.3807 38.4083 15.3807 40.26C15.3807 42.1117 15.7785 43.6504 16.5739 44.8762C17.3694 46.1019 18.38 46.7148 19.6057 46.7148C20.8315 46.7148 21.8421 46.1019 22.6376 44.8762C23.433 43.6504 23.8307 42.1117 23.8307 40.26ZM26.4904 35.2134L31.2436 32.8467V47.3994H30.246V34.3332L26.4904 36.2306V35.2134Z" fill="#001F4F"/>
</svg>
