<svg width="596" height="286" viewBox="0 0 596 286" fill="none" xmlns="http://www.w3.org/2000/svg">
<path d="M594.951 102.067V35.7168C594.951 19.1478 581.521 5.7168 564.951 5.7168H1.11475V61.0268H197.852C214.42 61.0268 227.852 74.4578 227.852 91.0268V197.055C227.852 213.623 241.283 227.055 257.852 227.055H371.581C387.661 227.055 400.691 240.084 400.691 256.156C400.691 272.228 413.721 285.258 429.791 285.258H496.951H513.061C529.621 285.258 543.061 271.826 543.061 255.258V132.067C543.061 115.499 556.491 102.067 573.061 102.067H594.951Z" fill="#ACEB00" stroke="black"/>
<path d="M594.951 97.0668V30.7168C594.951 14.1478 581.521 0.716797 564.951 0.716797H1.11475V56.0268H197.852C214.42 56.0268 227.852 69.4578 227.852 86.0268V192.055C227.852 208.623 241.283 222.055 257.852 222.055H371.581C387.661 222.055 400.691 235.084 400.691 251.156C400.691 267.228 413.721 280.258 429.791 280.258H496.951H513.061C529.621 280.258 543.061 266.826 543.061 250.258V127.067C543.061 110.499 556.491 97.0668 573.061 97.0668H594.951Z" fill="#D5FC6B" stroke="black"/>
<path d="M256.781 75.6266C256.781 72.7323 257.443 70.3498 258.766 68.4791C260.09 66.5907 261.784 65.6465 263.849 65.6465C265.914 65.6465 267.608 66.5907 268.932 68.4791C270.255 70.3498 270.917 72.7323 270.917 75.6266C270.917 78.5209 270.255 80.9123 268.932 82.8007C267.608 84.6714 265.914 85.6067 263.849 85.6067C261.784 85.6067 260.09 84.6714 258.766 82.8007C257.443 80.9123 256.781 78.5209 256.781 75.6266ZM269.567 75.6266C269.567 73.1206 269.029 71.0381 267.952 69.3791C266.876 67.7202 265.508 66.8907 263.849 66.8907C262.19 66.8907 260.822 67.7202 259.746 69.3791C258.669 71.0381 258.131 73.1206 258.131 75.6266C258.131 78.1327 258.669 80.2152 259.746 81.8741C260.822 83.5331 262.19 84.3625 263.849 84.3625C265.508 84.3625 266.876 83.5331 267.952 81.8741C269.029 80.2152 269.567 78.1327 269.567 75.6266ZM279.97 78.5386L274.808 84.0713H284.709V85.2891H272.161L278.911 77.9033C280.341 76.3502 281.338 75.0354 281.902 73.9589C282.467 72.8823 282.75 71.8322 282.75 70.8086C282.75 69.6262 282.379 68.6908 281.638 68.0026C280.896 67.2966 279.891 66.9437 278.62 66.9437C277.685 66.9437 276.723 67.1819 275.734 67.6584C274.764 68.1349 273.908 68.7791 273.167 69.5909V68.0026C273.89 67.279 274.737 66.7054 275.708 66.2818C276.696 65.8583 277.693 65.6465 278.699 65.6465C280.358 65.6465 281.673 66.1142 282.644 67.0496C283.614 67.9673 284.1 69.2026 284.1 70.7557C284.1 71.9205 283.8 73.0941 283.2 74.2765C282.6 75.4413 281.523 76.862 279.97 78.5386Z" fill="#003274"/>
<path d="M257.84 150.927V131.867H260.01V150.927H257.84ZM272.688 151.191C271.365 151.191 270.147 150.953 269.035 150.477C267.941 149.983 266.988 149.294 266.176 148.412C265.364 147.512 264.729 146.462 264.27 145.262C263.829 144.062 263.608 142.747 263.608 141.317C263.608 139.429 263.996 137.752 264.773 136.287C265.549 134.823 266.617 133.676 267.976 132.846C269.353 132.017 270.915 131.602 272.662 131.602C274.444 131.602 276.015 132.017 277.374 132.846C278.75 133.676 279.827 134.823 280.603 136.287C281.38 137.752 281.768 139.438 281.768 141.344C281.768 142.773 281.539 144.088 281.08 145.288C280.639 146.488 280.012 147.529 279.2 148.412C278.389 149.294 277.427 149.983 276.315 150.477C275.203 150.953 273.994 151.191 272.688 151.191ZM272.662 149.233C274.021 149.233 275.212 148.897 276.235 148.227C277.277 147.538 278.089 146.594 278.671 145.394C279.253 144.194 279.545 142.826 279.545 141.291C279.545 139.773 279.253 138.432 278.671 137.267C278.106 136.102 277.303 135.193 276.262 134.54C275.238 133.887 274.038 133.561 272.662 133.561C271.285 133.561 270.085 133.887 269.061 134.54C268.038 135.193 267.244 136.102 266.679 137.267C266.114 138.414 265.832 139.755 265.832 141.291C265.832 142.844 266.114 144.22 266.679 145.42C267.261 146.603 268.064 147.538 269.088 148.227C270.112 148.897 271.303 149.233 272.662 149.233ZM291.78 151.165C289.556 151.165 287.782 150.618 286.459 149.524C285.153 148.43 284.385 146.868 284.155 144.838H286.273C286.467 146.303 287.023 147.406 287.941 148.147C288.859 148.888 290.129 149.259 291.753 149.259C293.13 149.259 294.162 149.003 294.85 148.491C295.556 147.962 295.909 147.194 295.909 146.188C295.909 145.323 295.671 144.635 295.195 144.123C294.718 143.612 293.977 143.188 292.971 142.853L289.768 141.741C288.144 141.176 286.944 140.497 286.167 139.702C285.391 138.891 285.003 137.867 285.003 136.632C285.003 135.608 285.259 134.726 285.77 133.984C286.282 133.226 287.006 132.634 287.941 132.211C288.876 131.787 289.962 131.575 291.197 131.575C293.103 131.575 294.63 132.078 295.777 133.084C296.924 134.073 297.586 135.485 297.762 137.32H295.645C295.415 135.996 294.939 135.026 294.215 134.408C293.509 133.79 292.485 133.481 291.144 133.481C289.874 133.481 288.885 133.737 288.179 134.249C287.473 134.761 287.12 135.485 287.12 136.42C287.12 137.214 287.367 137.849 287.862 138.326C288.356 138.802 289.123 139.217 290.165 139.57L293.58 140.761C295.062 141.273 296.174 141.97 296.915 142.853C297.656 143.717 298.027 144.82 298.027 146.162C298.027 147.75 297.48 148.985 296.386 149.868C295.309 150.733 293.774 151.165 291.78 151.165ZM305.402 150.927L312.761 131.867H314.667L307.493 150.927H305.402ZM320.544 150.927L313.37 131.867H315.409L322.768 150.927H320.544ZM309.055 143.223H319.009V145.129H309.055V143.223ZM332.498 151.165C331.227 151.165 330.159 150.856 329.295 150.238C328.43 149.621 327.839 148.747 327.521 147.618L327.944 147.565V156.354H325.827V137.426H327.812V140.576L327.521 140.497C327.856 139.455 328.492 138.644 329.427 138.061C330.362 137.461 331.448 137.161 332.683 137.161C333.883 137.161 334.924 137.452 335.807 138.035C336.707 138.617 337.404 139.429 337.898 140.47C338.392 141.511 338.639 142.729 338.639 144.123C338.639 145.535 338.383 146.771 337.872 147.829C337.36 148.888 336.645 149.709 335.727 150.291C334.81 150.874 333.733 151.165 332.498 151.165ZM332.18 149.312C333.521 149.312 334.571 148.853 335.33 147.935C336.089 147 336.469 145.729 336.469 144.123C336.469 142.535 336.089 141.291 335.33 140.391C334.571 139.473 333.521 139.014 332.18 139.014C330.839 139.014 329.78 139.482 329.003 140.417C328.227 141.335 327.839 142.597 327.839 144.203C327.839 145.773 328.227 147.018 329.003 147.935C329.78 148.853 330.839 149.312 332.18 149.312ZM348.552 151.165C347.281 151.165 346.213 150.856 345.349 150.238C344.484 149.621 343.893 148.747 343.575 147.618L343.999 147.565V156.354H341.881V137.426H343.866V140.576L343.575 140.497C343.91 139.455 344.546 138.644 345.481 138.061C346.416 137.461 347.502 137.161 348.737 137.161C349.937 137.161 350.978 137.452 351.861 138.035C352.761 138.617 353.458 139.429 353.952 140.47C354.446 141.511 354.693 142.729 354.693 144.123C354.693 145.535 354.437 146.771 353.926 147.829C353.414 148.888 352.699 149.709 351.781 150.291C350.864 150.874 349.787 151.165 348.552 151.165ZM348.234 149.312C349.575 149.312 350.625 148.853 351.384 147.935C352.143 147 352.523 145.729 352.523 144.123C352.523 142.535 352.143 141.291 351.384 140.391C350.625 139.473 349.575 139.014 348.234 139.014C346.893 139.014 345.834 139.482 345.057 140.417C344.281 141.335 343.893 142.597 343.893 144.203C343.893 145.773 344.281 147.018 345.057 147.935C345.834 148.853 346.893 149.312 348.234 149.312ZM259.137 184.927V183.021H264.246C265.834 183.021 267.202 182.703 268.349 182.068C269.496 181.415 270.379 180.506 270.996 179.341C271.614 178.176 271.923 176.826 271.923 175.291C271.923 173.773 271.614 172.449 270.996 171.32C270.379 170.19 269.496 169.317 268.349 168.699C267.22 168.081 265.852 167.773 264.246 167.773H259.137V165.867H264.246C266.24 165.867 267.979 166.264 269.461 167.058C270.943 167.834 272.091 168.937 272.902 170.367C273.732 171.779 274.147 173.438 274.147 175.344C274.147 177.25 273.732 178.926 272.902 180.373C272.073 181.803 270.917 182.924 269.435 183.735C267.97 184.53 266.249 184.927 264.272 184.927H259.137ZM257.84 184.927V165.867H260.01V184.927H257.84ZM283.016 185.191C281.728 185.191 280.59 184.891 279.601 184.291C278.613 183.674 277.836 182.835 277.272 181.777C276.707 180.718 276.425 179.5 276.425 178.123C276.425 176.747 276.698 175.538 277.245 174.497C277.81 173.438 278.595 172.617 279.601 172.035C280.607 171.452 281.763 171.161 283.069 171.161C284.322 171.161 285.407 171.435 286.325 171.982C287.261 172.529 287.975 173.297 288.469 174.285C288.981 175.273 289.237 176.438 289.237 177.779C289.237 177.956 289.228 178.123 289.211 178.282C289.211 178.441 289.193 178.617 289.158 178.812H278.013V177.038H287.861L287.172 178.017C287.172 176.394 286.811 175.15 286.087 174.285C285.381 173.402 284.375 172.961 283.069 172.961C281.728 172.961 280.642 173.429 279.813 174.364C279.001 175.282 278.595 176.526 278.595 178.097C278.595 179.703 279.001 180.991 279.813 181.962C280.642 182.915 281.745 183.391 283.122 183.391C283.987 183.391 284.746 183.206 285.399 182.835C286.052 182.447 286.528 181.9 286.828 181.194H288.84C288.399 182.43 287.658 183.409 286.616 184.133C285.593 184.839 284.393 185.191 283.016 185.191ZM296.06 184.927L290.474 171.426H292.751L297.41 183.497H296.563L301.196 171.426H303.366L297.781 184.927H296.06ZM311.169 185.191C309.881 185.191 308.742 184.891 307.754 184.291C306.766 183.674 305.989 182.835 305.424 181.777C304.86 180.718 304.577 179.5 304.577 178.123C304.577 176.747 304.851 175.538 305.398 174.497C305.963 173.438 306.748 172.617 307.754 172.035C308.76 171.452 309.916 171.161 311.222 171.161C312.475 171.161 313.56 171.435 314.478 171.982C315.413 172.529 316.128 173.297 316.622 174.285C317.134 175.273 317.39 176.438 317.39 177.779C317.39 177.956 317.381 178.123 317.364 178.282C317.364 178.441 317.346 178.617 317.311 178.812H306.166V177.038H316.013L315.325 178.017C315.325 176.394 314.963 175.15 314.24 174.285C313.534 173.402 312.528 172.961 311.222 172.961C309.881 172.961 308.795 173.429 307.966 174.364C307.154 175.282 306.748 176.526 306.748 178.097C306.748 179.703 307.154 180.991 307.966 181.962C308.795 182.915 309.898 183.391 311.275 183.391C312.14 183.391 312.899 183.206 313.551 182.835C314.204 182.447 314.681 181.9 314.981 181.194H316.993C316.552 182.43 315.81 183.409 314.769 184.133C313.746 184.839 312.546 185.191 311.169 185.191ZM320.579 184.927V165.867H322.696V184.927H320.579ZM332.55 185.191C331.227 185.191 330.062 184.883 329.056 184.265C328.05 183.647 327.265 182.809 326.7 181.75C326.153 180.674 325.879 179.465 325.879 178.123C325.879 176.764 326.162 175.564 326.726 174.523C327.291 173.482 328.068 172.661 329.056 172.061C330.062 171.461 331.227 171.161 332.55 171.161C333.892 171.161 335.056 171.461 336.045 172.061C337.051 172.661 337.827 173.482 338.374 174.523C338.939 175.564 339.221 176.764 339.221 178.123C339.221 179.465 338.939 180.674 338.374 181.75C337.827 182.809 337.051 183.647 336.045 184.265C335.056 184.883 333.892 185.191 332.55 185.191ZM332.55 183.391C333.468 183.391 334.262 183.171 334.933 182.73C335.604 182.271 336.124 181.644 336.495 180.85C336.865 180.056 337.051 179.138 337.051 178.097C337.051 176.544 336.636 175.3 335.807 174.364C334.995 173.429 333.909 172.961 332.55 172.961C331.209 172.961 330.124 173.429 329.294 174.364C328.465 175.3 328.05 176.544 328.05 178.097C328.05 179.138 328.235 180.056 328.606 180.85C328.977 181.644 329.497 182.271 330.168 182.73C330.856 183.171 331.65 183.391 332.55 183.391ZM349.069 185.165C347.798 185.165 346.73 184.856 345.866 184.238C345.001 183.621 344.41 182.747 344.092 181.618L344.516 181.565V190.354H342.398V171.426H344.383V174.576L344.092 174.497C344.427 173.455 345.063 172.644 345.998 172.061C346.933 171.461 348.019 171.161 349.254 171.161C350.454 171.161 351.495 171.452 352.378 172.035C353.278 172.617 353.975 173.429 354.469 174.47C354.963 175.511 355.21 176.729 355.21 178.123C355.21 179.535 354.955 180.771 354.443 181.829C353.931 182.888 353.216 183.709 352.298 184.291C351.381 184.874 350.304 185.165 349.069 185.165ZM348.751 183.312C350.092 183.312 351.142 182.853 351.901 181.935C352.66 181 353.04 179.729 353.04 178.123C353.04 176.535 352.66 175.291 351.901 174.391C351.142 173.473 350.092 173.014 348.751 173.014C347.41 173.014 346.351 173.482 345.574 174.417C344.798 175.335 344.41 176.597 344.41 178.203C344.41 179.773 344.798 181.018 345.574 181.935C346.351 182.853 347.41 183.312 348.751 183.312ZM358.452 184.927V171.426H360.437V174.603H360.57V184.927H358.452ZM367.558 184.927V175.979C367.558 174.955 367.329 174.205 366.87 173.729C366.411 173.252 365.749 173.014 364.885 173.014C364.073 173.014 363.34 173.208 362.687 173.597C362.034 173.985 361.514 174.523 361.126 175.211C360.755 175.9 360.57 176.703 360.57 177.62L360.226 174.417C360.684 173.411 361.373 172.617 362.29 172.035C363.208 171.452 364.205 171.161 365.282 171.161C366.588 171.161 367.647 171.549 368.458 172.326C369.27 173.085 369.676 174.117 369.676 175.423V184.927H367.558ZM376.665 184.927V175.979C376.665 174.955 376.435 174.205 375.977 173.729C375.518 173.252 374.856 173.014 373.991 173.014C373.179 173.014 372.447 173.208 371.794 173.597C371.141 173.985 370.62 174.523 370.232 175.211C369.861 175.9 369.676 176.703 369.676 177.62L369.147 174.417C369.606 173.411 370.312 172.617 371.265 172.035C372.218 171.452 373.241 171.161 374.335 171.161C375.641 171.161 376.709 171.549 377.538 172.326C378.368 173.085 378.783 174.117 378.783 175.423V184.927H376.665ZM388.389 185.191C387.101 185.191 385.962 184.891 384.974 184.291C383.986 183.674 383.209 182.835 382.644 181.777C382.08 180.718 381.797 179.5 381.797 178.123C381.797 176.747 382.071 175.538 382.618 174.497C383.183 173.438 383.968 172.617 384.974 172.035C385.98 171.452 387.136 171.161 388.442 171.161C389.695 171.161 390.78 171.435 391.698 171.982C392.633 172.529 393.348 173.297 393.842 174.285C394.354 175.273 394.61 176.438 394.61 177.779C394.61 177.956 394.601 178.123 394.583 178.282C394.583 178.441 394.566 178.617 394.53 178.812H383.386V177.038H393.233L392.545 178.017C392.545 176.394 392.183 175.15 391.46 174.285C390.754 173.402 389.748 172.961 388.442 172.961C387.101 172.961 386.015 173.429 385.186 174.364C384.374 175.282 383.968 176.526 383.968 178.097C383.968 179.703 384.374 180.991 385.186 181.962C386.015 182.915 387.118 183.391 388.495 183.391C389.36 183.391 390.118 183.206 390.771 182.835C391.424 182.447 391.901 181.9 392.201 181.194H394.213C393.772 182.43 393.03 183.409 391.989 184.133C390.966 184.839 389.765 185.191 388.389 185.191ZM397.799 184.927V171.426H399.784V174.603H399.916V184.927H397.799ZM407.461 184.927V176.085C407.461 175.061 407.205 174.294 406.693 173.782C406.182 173.27 405.423 173.014 404.417 173.014C403.534 173.014 402.749 173.208 402.061 173.597C401.39 173.985 400.861 174.523 400.472 175.211C400.102 175.9 399.916 176.703 399.916 177.62L399.572 174.417C400.031 173.411 400.728 172.617 401.664 172.035C402.617 171.452 403.693 171.161 404.893 171.161C406.305 171.161 407.435 171.567 408.282 172.379C409.146 173.173 409.579 174.223 409.579 175.529V184.927H407.461ZM418.684 185.165C417.184 185.165 416.09 184.83 415.402 184.159C414.731 183.471 414.396 182.482 414.396 181.194V168.276L416.514 167.481V181.168C416.514 181.927 416.708 182.482 417.096 182.835C417.484 183.188 418.12 183.365 419.002 183.365C419.355 183.365 419.655 183.347 419.902 183.312C420.167 183.259 420.379 183.197 420.537 183.127V184.927C420.361 184.997 420.105 185.05 419.77 185.086C419.452 185.139 419.09 185.165 418.684 185.165ZM411.616 173.226V171.426H420.537V173.226H411.616Z" fill="#003274"/>
</svg>
