<svg width="302" height="287" viewBox="0 0 302 287" fill="none" xmlns="http://www.w3.org/2000/svg">
<path d="M300.993 102.711V36.3613C300.993 28.4048 297.833 20.7742 292.207 15.1481C286.581 9.52203 278.95 6.36133 270.993 6.36133H0.813477V61.6713H85.4235C89.3631 61.6713 93.2642 62.4473 96.904 63.9549C100.544 65.4626 103.851 67.6724 106.637 70.4581C109.422 73.2439 111.632 76.5511 113.14 80.1908C114.647 83.8306 115.423 87.7317 115.423 91.6713V197.671C115.423 201.611 116.199 205.512 117.707 209.152C119.215 212.792 121.425 216.099 124.21 218.885C126.996 221.67 130.303 223.88 133.943 225.388C137.583 226.895 141.484 227.671 145.423 227.671H173.693C181.411 227.671 188.813 230.737 194.27 236.195C199.728 241.652 202.793 249.054 202.793 256.771C202.792 260.594 203.544 264.379 205.006 267.91C206.468 271.442 208.611 274.651 211.313 277.355C214.015 280.058 217.224 282.202 220.755 283.665C224.286 285.128 228.071 285.881 231.893 285.881H251.453C257.636 285.881 263.565 283.425 267.936 279.054C272.308 274.683 274.763 268.754 274.763 262.571V128.941C274.763 125.497 275.442 122.086 276.76 118.904C278.078 115.721 280.01 112.83 282.446 110.394C284.882 107.958 287.773 106.026 290.956 104.708C294.138 103.39 297.549 102.711 300.993 102.711Z" fill="#001F4F" stroke="black"/>
<path d="M300.993 97.7113V31.3613C300.993 23.4048 297.833 15.7742 292.207 10.1481C286.581 4.52203 278.95 1.36133 270.993 1.36133H0.813477V56.6713H85.4235C89.3631 56.6713 93.2642 57.4473 96.904 58.9549C100.544 60.4626 103.851 62.6724 106.637 65.4581C109.422 68.2439 111.632 71.5511 113.14 75.1908C114.647 78.8306 115.423 82.7317 115.423 86.6713V192.671C115.423 200.628 118.584 208.258 124.21 213.885C129.836 219.511 137.467 222.671 145.423 222.671H173.693C177.515 222.671 181.299 223.424 184.83 224.886C188.36 226.349 191.568 228.492 194.27 231.195C196.972 233.897 199.116 237.105 200.578 240.635C202.041 244.166 202.793 247.95 202.793 251.771C202.792 255.594 203.544 259.379 205.006 262.91C206.468 266.442 208.611 269.651 211.313 272.355C214.015 275.058 217.224 277.202 220.755 278.665C224.286 280.128 228.071 280.881 231.893 280.881H251.453C257.636 280.881 263.565 278.425 267.936 274.054C272.308 269.683 274.763 263.754 274.763 257.571V123.941C274.763 120.497 275.442 117.086 276.76 113.904C278.078 110.721 280.01 107.83 282.446 105.394C284.882 102.958 287.773 101.026 290.956 99.708C294.138 98.3898 297.549 97.7113 300.993 97.7113Z" fill="#001F4F" stroke="black"/>
<path d="M133.267 157.283V143.2H134.871V157.283H133.267ZM144.239 157.479C143.261 157.479 142.361 157.303 141.539 156.951C140.731 156.586 140.027 156.077 139.427 155.425C138.827 154.76 138.357 153.984 138.018 153.097C137.692 152.211 137.529 151.239 137.529 150.183C137.529 148.788 137.816 147.549 138.39 146.466C138.964 145.384 139.753 144.536 140.757 143.924C141.774 143.311 142.928 143.004 144.219 143.004C145.536 143.004 146.697 143.311 147.701 143.924C148.718 144.536 149.513 145.384 150.087 146.466C150.661 147.549 150.948 148.794 150.948 150.202C150.948 151.259 150.778 152.23 150.439 153.117C150.113 154.004 149.65 154.773 149.05 155.425C148.451 156.077 147.74 156.586 146.918 156.951C146.097 157.303 145.204 157.479 144.239 157.479ZM144.219 156.031C145.223 156.031 146.103 155.784 146.86 155.288C147.629 154.78 148.229 154.082 148.659 153.195C149.089 152.308 149.305 151.298 149.305 150.163C149.305 149.042 149.089 148.051 148.659 147.19C148.242 146.33 147.649 145.658 146.879 145.175C146.123 144.693 145.236 144.452 144.219 144.452C143.202 144.452 142.315 144.693 141.559 145.175C140.802 145.658 140.216 146.33 139.798 147.19C139.381 148.038 139.172 149.029 139.172 150.163C139.172 151.311 139.381 152.328 139.798 153.215C140.229 154.088 140.822 154.78 141.578 155.288C142.335 155.784 143.215 156.031 144.219 156.031ZM158.345 157.459C156.702 157.459 155.391 157.055 154.413 156.247C153.448 155.438 152.881 154.284 152.712 152.784H154.276C154.42 153.867 154.831 154.682 155.509 155.229C156.187 155.777 157.126 156.051 158.325 156.051C159.343 156.051 160.105 155.862 160.614 155.484C161.136 155.092 161.396 154.525 161.396 153.782C161.396 153.143 161.22 152.634 160.868 152.256C160.516 151.878 159.968 151.565 159.225 151.317L156.858 150.496C155.659 150.079 154.772 149.576 154.198 148.99C153.624 148.39 153.338 147.634 153.338 146.721C153.338 145.964 153.527 145.312 153.905 144.765C154.283 144.204 154.818 143.767 155.509 143.454C156.2 143.141 157.002 142.985 157.915 142.985C159.323 142.985 160.451 143.356 161.299 144.1C162.146 144.83 162.635 145.873 162.766 147.229H161.201C161.031 146.251 160.679 145.534 160.144 145.078C159.623 144.621 158.867 144.393 157.875 144.393C156.937 144.393 156.206 144.582 155.685 144.96C155.163 145.338 154.902 145.873 154.902 146.564C154.902 147.151 155.085 147.62 155.45 147.973C155.815 148.325 156.382 148.631 157.152 148.892L159.675 149.772C160.77 150.15 161.592 150.665 162.14 151.317C162.687 151.956 162.961 152.771 162.961 153.762C162.961 154.936 162.557 155.849 161.748 156.501C160.953 157.14 159.818 157.459 158.345 157.459ZM168.41 157.283L173.848 143.2H175.257L169.956 157.283H168.41ZM179.599 157.283L174.298 143.2H175.804L181.242 157.283H179.599ZM171.11 151.591H178.464V153H171.11V151.591ZM188.431 157.459C187.492 157.459 186.703 157.231 186.064 156.775C185.425 156.318 184.988 155.673 184.754 154.838L185.067 154.799V161.293H183.502V147.308H184.969V149.635L184.754 149.576C185.002 148.807 185.471 148.207 186.162 147.777C186.853 147.334 187.655 147.112 188.568 147.112C189.455 147.112 190.224 147.327 190.876 147.757C191.541 148.188 192.056 148.788 192.421 149.557C192.786 150.326 192.969 151.226 192.969 152.256C192.969 153.299 192.78 154.212 192.402 154.995C192.024 155.777 191.495 156.383 190.817 156.814C190.139 157.244 189.344 157.459 188.431 157.459ZM188.196 156.09C189.187 156.09 189.963 155.751 190.524 155.073C191.085 154.382 191.365 153.443 191.365 152.256C191.365 151.083 191.085 150.163 190.524 149.498C189.963 148.82 189.187 148.481 188.196 148.481C187.205 148.481 186.423 148.827 185.849 149.518C185.275 150.196 184.988 151.128 184.988 152.315C184.988 153.475 185.275 154.395 185.849 155.073C186.423 155.751 187.205 156.09 188.196 156.09ZM200.293 157.459C199.354 157.459 198.565 157.231 197.926 156.775C197.287 156.318 196.851 155.673 196.616 154.838L196.929 154.799V161.293H195.364V147.308H196.831V149.635L196.616 149.576C196.864 148.807 197.333 148.207 198.024 147.777C198.715 147.334 199.517 147.112 200.43 147.112C201.317 147.112 202.086 147.327 202.738 147.757C203.403 148.188 203.918 148.788 204.284 149.557C204.649 150.326 204.831 151.226 204.831 152.256C204.831 153.299 204.642 154.212 204.264 154.995C203.886 155.777 203.358 156.383 202.68 156.814C202.001 157.244 201.206 157.459 200.293 157.459ZM200.059 156.09C201.05 156.09 201.825 155.751 202.386 155.073C202.947 154.382 203.227 153.443 203.227 152.256C203.227 151.083 202.947 150.163 202.386 149.498C201.825 148.82 201.05 148.481 200.059 148.481C199.067 148.481 198.285 148.827 197.711 149.518C197.138 150.196 196.851 151.128 196.851 152.315C196.851 153.475 197.138 154.395 197.711 155.073C198.285 155.751 199.067 156.09 200.059 156.09ZM134.226 182.283V180.875H138.001C139.174 180.875 140.185 180.64 141.033 180.171C141.88 179.688 142.532 179.017 142.989 178.156C143.445 177.295 143.673 176.298 143.673 175.163C143.673 174.042 143.445 173.064 142.989 172.229C142.532 171.395 141.88 170.749 141.033 170.293C140.198 169.836 139.187 169.608 138.001 169.608H134.226V168.2H138.001C139.474 168.2 140.759 168.493 141.854 169.08C142.949 169.654 143.797 170.469 144.397 171.525C145.01 172.568 145.316 173.794 145.316 175.202C145.316 176.611 145.01 177.85 144.397 178.919C143.784 179.975 142.93 180.803 141.834 181.403C140.752 181.99 139.481 182.283 138.02 182.283H134.226ZM133.267 182.283V168.2H134.871V182.283H133.267ZM151.87 182.479C150.918 182.479 150.077 182.257 149.347 181.814C148.616 181.357 148.042 180.738 147.625 179.956C147.208 179.173 146.999 178.273 146.999 177.256C146.999 176.239 147.201 175.346 147.606 174.576C148.023 173.794 148.603 173.188 149.347 172.757C150.09 172.327 150.944 172.112 151.909 172.112C152.835 172.112 153.637 172.314 154.315 172.718C155.006 173.123 155.534 173.69 155.899 174.42C156.277 175.15 156.466 176.011 156.466 177.002C156.466 177.132 156.46 177.256 156.447 177.374C156.447 177.491 156.434 177.621 156.408 177.765H148.173V176.454H155.449L154.941 177.178C154.941 175.978 154.673 175.059 154.139 174.42C153.617 173.768 152.874 173.442 151.909 173.442C150.918 173.442 150.116 173.788 149.503 174.479C148.903 175.157 148.603 176.076 148.603 177.237C148.603 178.423 148.903 179.375 149.503 180.092C150.116 180.797 150.931 181.149 151.948 181.149C152.587 181.149 153.148 181.012 153.63 180.738C154.113 180.451 154.465 180.047 154.686 179.525H156.173C155.847 180.438 155.299 181.162 154.53 181.696C153.774 182.218 152.887 182.479 151.87 182.479ZM161.508 182.283L157.381 172.308H159.063L162.505 181.227H161.879L165.302 172.308H166.906L162.779 182.283H161.508ZM172.672 182.479C171.72 182.479 170.879 182.257 170.148 181.814C169.418 181.357 168.844 180.738 168.427 179.956C168.01 179.173 167.801 178.273 167.801 177.256C167.801 176.239 168.003 175.346 168.407 174.576C168.825 173.794 169.405 173.188 170.148 172.757C170.892 172.327 171.746 172.112 172.711 172.112C173.637 172.112 174.438 172.314 175.117 172.718C175.808 173.123 176.336 173.69 176.701 174.42C177.079 175.15 177.268 176.011 177.268 177.002C177.268 177.132 177.262 177.256 177.249 177.374C177.249 177.491 177.236 177.621 177.209 177.765H168.975V176.454H176.251L175.742 177.178C175.742 175.978 175.475 175.059 174.941 174.42C174.419 173.768 173.676 173.442 172.711 173.442C171.72 173.442 170.918 173.788 170.305 174.479C169.705 175.157 169.405 176.076 169.405 177.237C169.405 178.423 169.705 179.375 170.305 180.092C170.918 180.797 171.733 181.149 172.75 181.149C173.389 181.149 173.949 181.012 174.432 180.738C174.914 180.451 175.267 180.047 175.488 179.525H176.975C176.649 180.438 176.101 181.162 175.332 181.696C174.575 182.218 173.689 182.479 172.672 182.479ZM179.624 182.283V168.2H181.189V182.283H179.624ZM188.47 182.479C187.492 182.479 186.631 182.251 185.888 181.794C185.145 181.338 184.565 180.718 184.147 179.936C183.743 179.141 183.541 178.247 183.541 177.256C183.541 176.252 183.75 175.365 184.167 174.596C184.584 173.827 185.158 173.22 185.888 172.777C186.631 172.334 187.492 172.112 188.47 172.112C189.461 172.112 190.322 172.334 191.052 172.777C191.795 173.22 192.369 173.827 192.773 174.596C193.191 175.365 193.399 176.252 193.399 177.256C193.399 178.247 193.191 179.141 192.773 179.936C192.369 180.718 191.795 181.338 191.052 181.794C190.322 182.251 189.461 182.479 188.47 182.479ZM188.47 181.149C189.148 181.149 189.735 180.986 190.23 180.66C190.726 180.321 191.111 179.858 191.385 179.271C191.658 178.684 191.795 178.006 191.795 177.237C191.795 176.089 191.489 175.17 190.876 174.479C190.276 173.788 189.474 173.442 188.47 173.442C187.479 173.442 186.677 173.788 186.064 174.479C185.451 175.17 185.145 176.089 185.145 177.237C185.145 178.006 185.282 178.684 185.556 179.271C185.829 179.858 186.214 180.321 186.71 180.66C187.218 180.986 187.805 181.149 188.47 181.149ZM200.675 182.459C199.736 182.459 198.947 182.231 198.308 181.775C197.67 181.318 197.233 180.673 196.998 179.838L197.311 179.799V186.293H195.746V172.308H197.213V174.635L196.998 174.576C197.246 173.807 197.715 173.207 198.406 172.777C199.097 172.334 199.899 172.112 200.812 172.112C201.699 172.112 202.468 172.327 203.12 172.757C203.785 173.188 204.3 173.788 204.666 174.557C205.031 175.326 205.213 176.226 205.213 177.256C205.213 178.299 205.024 179.212 204.646 179.995C204.268 180.777 203.74 181.383 203.062 181.814C202.384 182.244 201.588 182.459 200.675 182.459ZM200.441 181.09C201.432 181.09 202.207 180.751 202.768 180.073C203.329 179.382 203.609 178.443 203.609 177.256C203.609 176.083 203.329 175.163 202.768 174.498C202.207 173.82 201.432 173.481 200.441 173.481C199.45 173.481 198.667 173.827 198.093 174.518C197.52 175.196 197.233 176.128 197.233 177.315C197.233 178.475 197.52 179.395 198.093 180.073C198.667 180.751 199.45 181.09 200.441 181.09ZM207.608 182.283V172.308H209.075V174.655H209.173V182.283H207.608ZM214.337 182.283V175.672C214.337 174.916 214.167 174.361 213.828 174.009C213.489 173.657 213 173.481 212.361 173.481C211.762 173.481 211.22 173.625 210.738 173.911C210.255 174.198 209.871 174.596 209.584 175.105C209.31 175.613 209.173 176.207 209.173 176.885L208.919 174.518C209.258 173.775 209.766 173.188 210.445 172.757C211.123 172.327 211.859 172.112 212.655 172.112C213.62 172.112 214.402 172.399 215.002 172.973C215.602 173.533 215.902 174.296 215.902 175.261V182.283H214.337ZM221.066 182.283V175.672C221.066 174.916 220.896 174.361 220.557 174.009C220.218 173.657 219.729 173.481 219.09 173.481C218.49 173.481 217.949 173.625 217.467 173.911C216.984 174.198 216.599 174.596 216.313 175.105C216.039 175.613 215.902 176.207 215.902 176.885L215.511 174.518C215.85 173.775 216.371 173.188 217.075 172.757C217.78 172.327 218.536 172.112 219.344 172.112C220.309 172.112 221.098 172.399 221.711 172.973C222.324 173.533 222.63 174.296 222.63 175.261V182.283H221.066ZM229.728 182.479C228.776 182.479 227.935 182.257 227.205 181.814C226.475 181.357 225.901 180.738 225.484 179.956C225.067 179.173 224.858 178.273 224.858 177.256C224.858 176.239 225.06 175.346 225.464 174.576C225.882 173.794 226.462 173.188 227.205 172.757C227.948 172.327 228.803 172.112 229.768 172.112C230.693 172.112 231.495 172.314 232.173 172.718C232.865 173.123 233.393 173.69 233.758 174.42C234.136 175.15 234.325 176.011 234.325 177.002C234.325 177.132 234.318 177.256 234.305 177.374C234.305 177.491 234.292 177.621 234.266 177.765H226.032V176.454H233.308L232.799 177.178C232.799 175.978 232.532 175.059 231.997 174.42C231.476 173.768 230.732 173.442 229.768 173.442C228.776 173.442 227.974 173.788 227.362 174.479C226.762 175.157 226.462 176.076 226.462 177.237C226.462 178.423 226.762 179.375 227.362 180.092C227.974 180.797 228.789 181.149 229.807 181.149C230.446 181.149 231.006 181.012 231.489 180.738C231.971 180.451 232.323 180.047 232.545 179.525H234.032C233.706 180.438 233.158 181.162 232.389 181.696C231.632 182.218 230.746 182.479 229.728 182.479ZM236.681 182.283V172.308H238.148V174.655H238.246V182.283H236.681ZM243.821 182.283V175.75C243.821 174.994 243.631 174.427 243.253 174.048C242.875 173.67 242.314 173.481 241.571 173.481C240.919 173.481 240.339 173.625 239.83 173.911C239.335 174.198 238.944 174.596 238.657 175.105C238.383 175.613 238.246 176.207 238.246 176.885L237.992 174.518C238.331 173.775 238.846 173.188 239.537 172.757C240.241 172.327 241.036 172.112 241.923 172.112C242.966 172.112 243.801 172.412 244.427 173.012C245.066 173.598 245.385 174.374 245.385 175.339V182.283H243.821ZM252.113 182.459C251.005 182.459 250.196 182.211 249.688 181.716C249.192 181.207 248.945 180.477 248.945 179.525V169.98L250.509 169.393V179.506C250.509 180.066 250.653 180.477 250.94 180.738C251.227 180.999 251.696 181.129 252.348 181.129C252.609 181.129 252.831 181.116 253.013 181.09C253.209 181.051 253.365 181.005 253.483 180.953V182.283C253.352 182.335 253.163 182.374 252.915 182.401C252.681 182.44 252.413 182.459 252.113 182.459ZM246.891 173.638V172.308H253.483V173.638H246.891Z" fill="white"/>
<path d="M132.485 106.871C132.485 104.733 132.974 102.972 133.952 101.59C134.93 100.195 136.182 99.4971 137.707 99.4971C139.233 99.4971 140.485 100.195 141.463 101.59C142.441 102.972 142.93 104.733 142.93 106.871C142.93 109.01 142.441 110.777 141.463 112.172C140.485 113.554 139.233 114.245 137.707 114.245C136.182 114.245 134.93 113.554 133.952 112.172C132.974 110.777 132.485 109.01 132.485 106.871ZM141.932 106.871C141.932 105.02 141.535 103.481 140.739 102.255C139.944 101.029 138.933 100.416 137.707 100.416C136.482 100.416 135.471 101.029 134.675 102.255C133.88 103.481 133.482 105.02 133.482 106.871C133.482 108.723 133.88 110.262 134.675 111.487C135.471 112.713 136.482 113.326 137.707 113.326C138.933 113.326 139.944 112.713 140.739 111.487C141.535 110.262 141.932 108.723 141.932 106.871ZM149.619 109.023L145.805 113.111H153.12V114.011H143.849L148.837 108.553C149.893 107.406 150.63 106.434 151.047 105.639C151.464 104.844 151.673 104.068 151.673 103.311C151.673 102.438 151.399 101.747 150.851 101.238C150.304 100.716 149.56 100.456 148.621 100.456C147.93 100.456 147.22 100.632 146.489 100.984C145.772 101.336 145.14 101.812 144.592 102.412V101.238C145.127 100.703 145.753 100.28 146.47 99.9665C147.2 99.6536 147.937 99.4971 148.68 99.4971C149.906 99.4971 150.877 99.8427 151.595 100.534C152.312 101.212 152.67 102.125 152.67 103.272C152.67 104.133 152.449 105 152.005 105.874C151.562 106.734 150.767 107.784 149.619 109.023Z" fill="white"/>
</svg>
