<svg width="590" height="420" viewBox="0 0 590 420" fill="none" xmlns="http://www.w3.org/2000/svg">
<path d="M92.7285 58.9119C92.7285 75.4809 79.2965 88.9119 62.7285 88.9119H30.5615C13.9925 88.9119 0.561523 102.344 0.561523 118.912V198.338H130.898C147.466 198.338 160.898 211.77 160.898 228.338V319.164C160.898 335.733 174.329 349.164 190.898 349.164H259.286C275.854 349.164 289.286 362.596 289.286 379.164V388.832C289.286 405.401 302.717 418.832 319.286 418.832H391.687H501.399C517.969 418.832 531.399 405.401 531.399 388.832V338.475C531.399 322.691 544.2 309.896 559.98 309.896C575.77 309.896 588.56 297.1 588.56 281.316V240.195H521.399C505.329 240.195 492.299 227.166 492.299 211.093C492.299 195.021 479.27 181.992 463.2 181.992H349.465C332.897 181.992 319.465 168.56 319.465 151.992V45.9639C319.465 29.3959 306.034 15.9639 289.465 15.9639H92.7285V58.9119Z" fill="#003274" stroke="black"/>
<path d="M92.7285 43.9119C92.7285 60.4809 79.2965 73.9119 62.7285 73.9119H30.5615C13.9925 73.9119 0.561523 87.3439 0.561523 103.912V183.338H130.898C147.466 183.338 160.898 196.77 160.898 213.338V304.164C160.898 320.733 174.329 334.164 190.898 334.164H259.286C275.854 334.164 289.286 347.596 289.286 364.164V373.832C289.286 390.401 302.717 403.832 319.286 403.832H391.687H501.399C517.969 403.832 531.399 390.401 531.399 373.832V323.475C531.399 307.691 544.2 294.896 559.98 294.896C575.77 294.896 588.56 282.1 588.56 266.316V225.195H521.399C505.329 225.195 492.299 212.166 492.299 196.093C492.299 180.021 479.27 166.992 463.2 166.992H349.465C332.897 166.992 319.465 153.56 319.465 136.992V30.9639C319.465 14.3959 306.034 0.963867 289.465 0.963867H92.7285V43.9119Z" fill="#1B45CE" stroke="black"/>
<path d="M188.198 194.664C188.198 191.769 188.86 189.387 190.183 187.516C191.507 185.628 193.201 184.684 195.266 184.684C197.331 184.684 199.025 185.628 200.349 187.516C201.672 189.387 202.334 191.769 202.334 194.664C202.334 197.558 201.672 199.949 200.349 201.838C199.025 203.708 197.331 204.644 195.266 204.644C193.201 204.644 191.507 203.708 190.183 201.838C188.86 199.949 188.198 197.558 188.198 194.664ZM200.984 194.664C200.984 192.158 200.446 190.075 199.369 188.416C198.293 186.757 196.925 185.928 195.266 185.928C193.607 185.928 192.239 186.757 191.163 188.416C190.086 190.075 189.548 192.158 189.548 194.664C189.548 197.17 190.086 199.252 191.163 200.911C192.239 202.57 193.607 203.4 195.266 203.4C196.925 203.4 198.293 202.57 199.369 200.911C200.446 199.252 200.984 197.17 200.984 194.664ZM213.69 186.219H204.742V185.001H215.967L210.037 192.811C211.784 192.899 213.214 193.472 214.325 194.531C215.455 195.59 216.02 196.932 216.02 198.555C216.02 200.285 215.367 201.732 214.061 202.897C212.772 204.061 211.21 204.644 209.375 204.644C208.369 204.644 207.398 204.494 206.463 204.194C205.545 203.894 204.725 203.47 204.001 202.923V201.308C204.707 201.997 205.519 202.526 206.437 202.897C207.354 203.25 208.316 203.426 209.322 203.426C210.822 203.426 212.093 202.958 213.134 202.023C214.175 201.07 214.696 199.914 214.696 198.555C214.696 196.984 214.052 195.749 212.764 194.849C211.475 193.949 209.869 193.605 207.946 193.817L213.69 186.219Z" fill="white"/>
<path d="M189.257 269.959V250.899H196.298C197.657 250.899 198.813 251.119 199.766 251.561C200.719 252.002 201.443 252.62 201.937 253.414C202.449 254.19 202.705 255.117 202.705 256.193C202.705 257.27 202.449 258.214 201.937 259.026C201.443 259.82 200.719 260.447 199.766 260.905C198.813 261.347 197.657 261.567 196.298 261.567H190.845V259.661H196.219C197.631 259.661 198.698 259.352 199.422 258.735C200.163 258.117 200.534 257.27 200.534 256.193C200.534 255.134 200.172 254.305 199.448 253.705C198.725 253.105 197.648 252.805 196.219 252.805H191.427V269.959H189.257ZM200.428 269.959L190.289 260.508H193.254L203.711 269.959H200.428ZM211.202 270.224C209.913 270.224 208.775 269.924 207.787 269.324C206.798 268.706 206.022 267.868 205.457 266.809C204.892 265.75 204.61 264.532 204.61 263.156C204.61 261.779 204.884 260.57 205.431 259.529C205.995 258.47 206.781 257.649 207.787 257.067C208.793 256.485 209.949 256.193 211.255 256.193C212.508 256.193 213.593 256.467 214.511 257.014C215.446 257.561 216.161 258.329 216.655 259.317C217.167 260.305 217.423 261.47 217.423 262.811C217.423 262.988 217.414 263.156 217.396 263.314C217.396 263.473 217.379 263.65 217.343 263.844H206.198V262.07H216.046L215.358 263.05C215.358 261.426 214.996 260.182 214.272 259.317C213.567 258.435 212.561 257.993 211.255 257.993C209.913 257.993 208.828 258.461 207.998 259.396C207.187 260.314 206.781 261.558 206.781 263.129C206.781 264.735 207.187 266.023 207.998 266.994C208.828 267.947 209.931 268.424 211.308 268.424C212.172 268.424 212.931 268.238 213.584 267.868C214.237 267.479 214.714 266.932 215.014 266.226H217.026C216.584 267.462 215.843 268.441 214.802 269.165C213.778 269.871 212.578 270.224 211.202 270.224ZM228.82 269.959C228.749 269.659 228.696 269.315 228.661 268.927C228.643 268.538 228.634 268.044 228.634 267.444H228.502V260.985C228.502 259.961 228.264 259.211 227.787 258.735C227.328 258.241 226.578 257.993 225.537 257.993C224.513 257.993 223.693 258.205 223.075 258.629C222.475 259.035 222.14 259.617 222.069 260.376H220.031C220.119 259.07 220.666 258.046 221.672 257.305C222.678 256.564 223.993 256.193 225.617 256.193C227.293 256.193 228.537 256.59 229.349 257.385C230.161 258.179 230.567 259.37 230.567 260.958V267.444C230.567 267.832 230.593 268.238 230.646 268.662C230.699 269.068 230.77 269.5 230.858 269.959H228.82ZM224.187 270.224C222.793 270.224 221.681 269.888 220.851 269.218C220.04 268.529 219.634 267.594 219.634 266.412C219.634 265.229 220.04 264.312 220.851 263.659C221.663 263.006 222.846 262.547 224.399 262.282L229.111 261.488V263.235L224.716 263.923C223.728 264.082 222.978 264.347 222.466 264.717C221.954 265.088 221.699 265.626 221.699 266.332C221.699 267.021 221.928 267.541 222.387 267.894C222.863 268.247 223.56 268.424 224.478 268.424C225.661 268.424 226.622 268.159 227.364 267.629C228.123 267.082 228.502 266.376 228.502 265.512L228.846 267.391C228.564 268.291 228.008 268.988 227.178 269.482C226.367 269.977 225.369 270.224 224.187 270.224ZM239.996 270.224C238.761 270.224 237.658 269.924 236.687 269.324C235.734 268.706 234.975 267.868 234.411 266.809C233.864 265.732 233.59 264.514 233.59 263.156C233.59 261.797 233.864 260.597 234.411 259.555C234.975 258.514 235.734 257.693 236.687 257.093C237.658 256.493 238.752 256.193 239.97 256.193C240.976 256.193 241.876 256.387 242.67 256.776C243.482 257.164 244.144 257.72 244.656 258.443C245.185 259.149 245.52 259.979 245.662 260.932H243.703C243.526 260.067 243.12 259.361 242.485 258.814C241.849 258.267 241.029 257.993 240.023 257.993C239.158 257.993 238.408 258.205 237.773 258.629C237.137 259.052 236.643 259.652 236.29 260.429C235.937 261.205 235.761 262.114 235.761 263.156C235.761 264.197 235.937 265.115 236.29 265.909C236.643 266.703 237.137 267.321 237.773 267.762C238.426 268.203 239.185 268.424 240.049 268.424C241.02 268.424 241.832 268.159 242.485 267.629C243.138 267.082 243.553 266.376 243.729 265.512H245.688C245.529 266.447 245.176 267.276 244.629 268C244.1 268.706 243.438 269.253 242.644 269.641C241.849 270.03 240.967 270.224 239.996 270.224ZM254.113 270.197C252.613 270.197 251.519 269.862 250.83 269.191C250.16 268.503 249.824 267.515 249.824 266.226V253.308L251.942 252.514V266.2C251.942 266.959 252.136 267.515 252.524 267.868C252.913 268.221 253.548 268.397 254.431 268.397C254.783 268.397 255.084 268.379 255.331 268.344C255.595 268.291 255.807 268.229 255.966 268.159V269.959C255.789 270.03 255.534 270.083 255.198 270.118C254.881 270.171 254.519 270.197 254.113 270.197ZM247.045 258.258V256.458H255.966V258.258H247.045ZM264.15 269.959V250.899H266.4L277.333 266.941L277.015 266.994V250.899H279.08V269.959H276.83L265.897 253.917L266.215 253.864V269.959H264.15ZM291.769 269.959C291.699 269.659 291.646 269.315 291.61 268.927C291.593 268.538 291.584 268.044 291.584 267.444H291.452V260.985C291.452 259.961 291.213 259.211 290.737 258.735C290.278 258.241 289.528 257.993 288.487 257.993C287.463 257.993 286.642 258.205 286.025 258.629C285.425 259.035 285.089 259.617 285.019 260.376H282.98C283.069 259.07 283.616 258.046 284.622 257.305C285.628 256.564 286.942 256.193 288.566 256.193C290.243 256.193 291.487 256.59 292.299 257.385C293.111 258.179 293.516 259.37 293.516 260.958V267.444C293.516 267.832 293.543 268.238 293.596 268.662C293.649 269.068 293.719 269.5 293.808 269.959H291.769ZM287.137 270.224C285.742 270.224 284.631 269.888 283.801 269.218C282.989 268.529 282.583 267.594 282.583 266.412C282.583 265.229 282.989 264.312 283.801 263.659C284.613 263.006 285.795 262.547 287.348 262.282L292.06 261.488V263.235L287.666 263.923C286.678 264.082 285.928 264.347 285.416 264.717C284.904 265.088 284.648 265.626 284.648 266.332C284.648 267.021 284.878 267.541 285.336 267.894C285.813 268.247 286.51 268.424 287.428 268.424C288.61 268.424 289.572 268.159 290.313 267.629C291.072 267.082 291.452 266.376 291.452 265.512L291.796 267.391C291.513 268.291 290.957 268.988 290.128 269.482C289.316 269.977 288.319 270.224 287.137 270.224ZM302.637 270.197C301.137 270.197 300.043 269.862 299.354 269.191C298.684 268.503 298.348 267.515 298.348 266.226V253.308L300.466 252.514V266.2C300.466 266.959 300.66 267.515 301.049 267.868C301.437 268.221 302.072 268.397 302.955 268.397C303.308 268.397 303.608 268.379 303.855 268.344C304.119 268.291 304.331 268.229 304.49 268.159V269.959C304.314 270.03 304.058 270.083 303.722 270.118C303.405 270.171 303.043 270.197 302.637 270.197ZM295.569 258.258V256.458H304.49V258.258H295.569ZM307.216 269.959V256.458H309.333V269.959H307.216ZM307.057 253.387V250.899H309.492V253.387H307.057ZM317.339 269.959L311.753 256.458H314.029L318.689 268.529H317.842L322.474 256.458H324.645L319.059 269.959H317.339ZM332.447 270.224C331.159 270.224 330.021 269.924 329.033 269.324C328.044 268.706 327.268 267.868 326.703 266.809C326.138 265.75 325.856 264.532 325.856 263.156C325.856 261.779 326.129 260.57 326.676 259.529C327.241 258.47 328.027 257.649 329.033 257.067C330.038 256.485 331.194 256.193 332.5 256.193C333.753 256.193 334.839 256.467 335.757 257.014C336.692 257.561 337.407 258.329 337.901 259.317C338.413 260.305 338.669 261.47 338.669 262.811C338.669 262.988 338.66 263.156 338.642 263.314C338.642 263.473 338.624 263.65 338.589 263.844H327.444V262.07H337.292L336.604 263.05C336.604 261.426 336.242 260.182 335.518 259.317C334.812 258.435 333.806 257.993 332.5 257.993C331.159 257.993 330.074 258.461 329.244 259.396C328.432 260.314 328.027 261.558 328.027 263.129C328.027 264.735 328.432 266.023 329.244 266.994C330.074 267.947 331.177 268.424 332.553 268.424C333.418 268.424 334.177 268.238 334.83 267.868C335.483 267.479 335.959 266.932 336.26 266.226H338.271C337.83 267.462 337.089 268.441 336.048 269.165C335.024 269.871 333.824 270.224 332.447 270.224ZM345.992 269.959L353.351 250.899H355.257L348.083 269.959H345.992ZM361.134 269.959L353.96 250.899H355.999L363.358 269.959H361.134ZM349.645 262.256H359.599V264.162H349.645V262.256ZM373.088 270.197C371.817 270.197 370.749 269.888 369.884 269.271C369.02 268.653 368.428 267.779 368.111 266.65L368.534 266.597V275.386H366.417V256.458H368.402V259.608L368.111 259.529C368.446 258.488 369.081 257.676 370.017 257.093C370.952 256.493 372.038 256.193 373.273 256.193C374.473 256.193 375.514 256.485 376.397 257.067C377.297 257.649 377.994 258.461 378.488 259.502C378.982 260.544 379.229 261.761 379.229 263.156C379.229 264.567 378.973 265.803 378.462 266.862C377.95 267.921 377.235 268.741 376.317 269.324C375.4 269.906 374.323 270.197 373.088 270.197ZM372.77 268.344C374.111 268.344 375.161 267.885 375.92 266.968C376.679 266.032 377.058 264.762 377.058 263.156C377.058 261.567 376.679 260.323 375.92 259.423C375.161 258.505 374.111 258.046 372.77 258.046C371.429 258.046 370.37 258.514 369.593 259.449C368.817 260.367 368.428 261.629 368.428 263.235C368.428 264.806 368.817 266.05 369.593 266.968C370.37 267.885 371.429 268.344 372.77 268.344ZM389.142 270.197C387.871 270.197 386.803 269.888 385.939 269.271C385.074 268.653 384.483 267.779 384.165 266.65L384.588 266.597V275.386H382.471V256.458H384.456V259.608L384.165 259.529C384.5 258.488 385.136 257.676 386.071 257.093C387.006 256.493 388.092 256.193 389.327 256.193C390.527 256.193 391.568 256.485 392.451 257.067C393.351 257.649 394.048 258.461 394.542 259.502C395.036 260.544 395.283 261.761 395.283 263.156C395.283 264.567 395.027 265.803 394.516 266.862C394.004 267.921 393.289 268.741 392.371 269.324C391.454 269.906 390.377 270.197 389.142 270.197ZM388.824 268.344C390.165 268.344 391.215 267.885 391.974 266.968C392.733 266.032 393.113 264.762 393.113 263.156C393.113 261.567 392.733 260.323 391.974 259.423C391.215 258.505 390.165 258.046 388.824 258.046C387.483 258.046 386.424 258.514 385.647 259.449C384.871 260.367 384.483 261.629 384.483 263.235C384.483 264.806 384.871 266.05 385.647 266.968C386.424 267.885 387.483 268.344 388.824 268.344ZM190.554 303.959V302.053H195.663C197.251 302.053 198.619 301.735 199.766 301.1C200.913 300.447 201.796 299.538 202.413 298.373C203.031 297.209 203.34 295.858 203.34 294.323C203.34 292.805 203.031 291.482 202.413 290.352C201.796 289.223 200.913 288.349 199.766 287.731C198.637 287.114 197.269 286.805 195.663 286.805H190.554V284.899H195.663C197.657 284.899 199.396 285.296 200.878 286.09C202.36 286.867 203.508 287.97 204.319 289.399C205.149 290.811 205.564 292.47 205.564 294.376C205.564 296.282 205.149 297.959 204.319 299.406C203.49 300.835 202.334 301.956 200.852 302.768C199.387 303.562 197.666 303.959 195.689 303.959H190.554ZM189.257 303.959V284.899H191.427V303.959H189.257ZM214.433 304.224C213.145 304.224 212.007 303.924 211.018 303.324C210.03 302.706 209.253 301.868 208.689 300.809C208.124 299.75 207.842 298.532 207.842 297.156C207.842 295.779 208.115 294.57 208.662 293.529C209.227 292.47 210.012 291.649 211.018 291.067C212.024 290.485 213.18 290.193 214.486 290.193C215.739 290.193 216.824 290.467 217.742 291.014C218.678 291.561 219.392 292.329 219.886 293.317C220.398 294.305 220.654 295.47 220.654 296.811C220.654 296.988 220.645 297.156 220.628 297.314C220.628 297.473 220.61 297.65 220.575 297.844H209.43V296.07H219.278L218.589 297.05C218.589 295.426 218.228 294.182 217.504 293.317C216.798 292.435 215.792 291.993 214.486 291.993C213.145 291.993 212.059 292.461 211.23 293.396C210.418 294.314 210.012 295.558 210.012 297.129C210.012 298.735 210.418 300.023 211.23 300.994C212.059 301.947 213.162 302.424 214.539 302.424C215.404 302.424 216.163 302.238 216.816 301.868C217.469 301.479 217.945 300.932 218.245 300.226H220.257C219.816 301.462 219.075 302.441 218.033 303.165C217.01 303.871 215.81 304.224 214.433 304.224ZM227.477 303.959L221.891 290.458H224.168L228.827 302.529H227.98L232.613 290.458H234.783L229.198 303.959H227.477ZM242.586 304.224C241.298 304.224 240.159 303.924 239.171 303.324C238.183 302.706 237.406 301.868 236.841 300.809C236.277 299.75 235.994 298.532 235.994 297.156C235.994 295.779 236.268 294.57 236.815 293.529C237.38 292.47 238.165 291.649 239.171 291.067C240.177 290.485 241.333 290.193 242.639 290.193C243.892 290.193 244.977 290.467 245.895 291.014C246.83 291.561 247.545 292.329 248.039 293.317C248.551 294.305 248.807 295.47 248.807 296.811C248.807 296.988 248.798 297.156 248.781 297.314C248.781 297.473 248.763 297.65 248.728 297.844H237.583V296.07H247.43L246.742 297.05C246.742 295.426 246.38 294.182 245.657 293.317C244.951 292.435 243.945 291.993 242.639 291.993C241.298 291.993 240.212 292.461 239.383 293.396C238.571 294.314 238.165 295.558 238.165 297.129C238.165 298.735 238.571 300.023 239.383 300.994C240.212 301.947 241.315 302.424 242.692 302.424C243.557 302.424 244.315 302.238 244.968 301.868C245.621 301.479 246.098 300.932 246.398 300.226H248.41C247.969 301.462 247.227 302.441 246.186 303.165C245.163 303.871 243.963 304.224 242.586 304.224ZM251.996 303.959V284.899H254.113V303.959H251.996ZM263.967 304.224C262.644 304.224 261.479 303.915 260.473 303.297C259.467 302.679 258.682 301.841 258.117 300.782C257.57 299.706 257.296 298.497 257.296 297.156C257.296 295.797 257.579 294.597 258.143 293.555C258.708 292.514 259.485 291.693 260.473 291.093C261.479 290.493 262.644 290.193 263.967 290.193C265.309 290.193 266.473 290.493 267.462 291.093C268.468 291.693 269.244 292.514 269.791 293.555C270.356 294.597 270.638 295.797 270.638 297.156C270.638 298.497 270.356 299.706 269.791 300.782C269.244 301.841 268.468 302.679 267.462 303.297C266.473 303.915 265.309 304.224 263.967 304.224ZM263.967 302.424C264.885 302.424 265.679 302.203 266.35 301.762C267.021 301.303 267.541 300.676 267.912 299.882C268.282 299.088 268.468 298.17 268.468 297.129C268.468 295.576 268.053 294.332 267.224 293.396C266.412 292.461 265.326 291.993 263.967 291.993C262.626 291.993 261.541 292.461 260.711 293.396C259.882 294.332 259.467 295.576 259.467 297.129C259.467 298.17 259.652 299.088 260.023 299.882C260.394 300.676 260.914 301.303 261.585 301.762C262.273 302.203 263.067 302.424 263.967 302.424ZM280.486 304.197C279.215 304.197 278.147 303.888 277.283 303.271C276.418 302.653 275.827 301.779 275.509 300.65L275.933 300.597V309.386H273.815V290.458H275.8V293.608L275.509 293.529C275.844 292.488 276.48 291.676 277.415 291.093C278.35 290.493 279.436 290.193 280.671 290.193C281.871 290.193 282.912 290.485 283.795 291.067C284.695 291.649 285.392 292.461 285.886 293.502C286.38 294.544 286.627 295.761 286.627 297.156C286.627 298.567 286.372 299.803 285.86 300.862C285.348 301.921 284.633 302.741 283.715 303.324C282.798 303.906 281.721 304.197 280.486 304.197ZM280.168 302.344C281.509 302.344 282.559 301.885 283.318 300.968C284.077 300.032 284.457 298.762 284.457 297.156C284.457 295.567 284.077 294.323 283.318 293.423C282.559 292.505 281.509 292.046 280.168 292.046C278.827 292.046 277.768 292.514 276.991 293.449C276.215 294.367 275.827 295.629 275.827 297.235C275.827 298.806 276.215 300.05 276.991 300.968C277.768 301.885 278.827 302.344 280.168 302.344ZM289.869 303.959V290.458H291.854V293.635H291.987V303.959H289.869ZM298.975 303.959V295.011C298.975 293.988 298.746 293.238 298.287 292.761C297.828 292.285 297.166 292.046 296.302 292.046C295.49 292.046 294.757 292.241 294.104 292.629C293.451 293.017 292.931 293.555 292.543 294.244C292.172 294.932 291.987 295.735 291.987 296.653L291.642 293.449C292.101 292.443 292.79 291.649 293.707 291.067C294.625 290.485 295.622 290.193 296.699 290.193C298.005 290.193 299.064 290.582 299.875 291.358C300.687 292.117 301.093 293.149 301.093 294.455V303.959H298.975ZM308.082 303.959V295.011C308.082 293.988 307.852 293.238 307.394 292.761C306.935 292.285 306.273 292.046 305.408 292.046C304.596 292.046 303.864 292.241 303.211 292.629C302.558 293.017 302.037 293.555 301.649 294.244C301.278 294.932 301.093 295.735 301.093 296.653L300.564 293.449C301.023 292.443 301.728 291.649 302.682 291.067C303.635 290.485 304.658 290.193 305.752 290.193C307.058 290.193 308.126 290.582 308.955 291.358C309.785 292.117 310.2 293.149 310.2 294.455V303.959H308.082ZM319.806 304.224C318.518 304.224 317.379 303.924 316.391 303.324C315.403 302.706 314.626 301.868 314.061 300.809C313.497 299.75 313.214 298.532 313.214 297.156C313.214 295.779 313.488 294.57 314.035 293.529C314.6 292.47 315.385 291.649 316.391 291.067C317.397 290.485 318.553 290.193 319.859 290.193C321.112 290.193 322.197 290.467 323.115 291.014C324.05 291.561 324.765 292.329 325.259 293.317C325.771 294.305 326.027 295.47 326.027 296.811C326.027 296.988 326.018 297.156 326 297.314C326 297.473 325.983 297.65 325.947 297.844H314.803V296.07H324.65L323.962 297.05C323.962 295.426 323.6 294.182 322.877 293.317C322.171 292.435 321.165 291.993 319.859 291.993C318.518 291.993 317.432 292.461 316.603 293.396C315.791 294.314 315.385 295.558 315.385 297.129C315.385 298.735 315.791 300.023 316.603 300.994C317.432 301.947 318.535 302.424 319.912 302.424C320.777 302.424 321.535 302.238 322.188 301.868C322.841 301.479 323.318 300.932 323.618 300.226H325.63C325.189 301.462 324.447 302.441 323.406 303.165C322.383 303.871 321.182 304.224 319.806 304.224ZM329.216 303.959V290.458H331.201V293.635H331.333V303.959H329.216ZM338.878 303.959V295.117C338.878 294.094 338.622 293.326 338.11 292.814C337.599 292.302 336.84 292.046 335.834 292.046C334.951 292.046 334.166 292.241 333.478 292.629C332.807 293.017 332.278 293.555 331.889 294.244C331.519 294.932 331.333 295.735 331.333 296.653L330.989 293.449C331.448 292.443 332.145 291.649 333.081 291.067C334.034 290.485 335.11 290.193 336.31 290.193C337.722 290.193 338.852 290.599 339.699 291.411C340.563 292.205 340.996 293.255 340.996 294.561V303.959H338.878ZM350.101 304.197C348.601 304.197 347.507 303.862 346.819 303.191C346.148 302.503 345.813 301.515 345.813 300.226V287.308L347.931 286.514V300.2C347.931 300.959 348.125 301.515 348.513 301.868C348.901 302.221 349.537 302.397 350.419 302.397C350.772 302.397 351.072 302.379 351.319 302.344C351.584 302.291 351.796 302.229 351.954 302.159V303.959C351.778 304.03 351.522 304.083 351.187 304.118C350.869 304.171 350.507 304.197 350.101 304.197ZM343.033 292.258V290.458H351.954V292.258H343.033Z" fill="white"/>
</svg>
