<svg width="299" height="420" viewBox="0 0 299 420" fill="none" xmlns="http://www.w3.org/2000/svg">
<path d="M47.2062 65.5516C47.2062 71.7312 44.7514 77.6576 40.3818 82.0272C36.0122 86.3968 30.0857 88.8516 23.9062 88.8516C17.7293 88.8516 11.8054 91.3054 7.43768 95.6731C3.06996 100.041 0.616211 105.965 0.616211 112.142V198.292H51.6662C59.6227 198.292 67.2533 201.452 72.8794 207.078C78.5055 212.705 81.6662 220.335 81.6662 228.292V319.122C81.6662 327.078 84.8269 334.709 90.453 340.335C96.0791 345.961 103.71 349.122 111.666 349.122H116.566C124.523 349.122 132.153 352.282 137.779 357.908C143.405 363.535 146.566 371.165 146.566 379.122V388.792C146.566 396.748 149.727 404.379 155.353 410.005C160.979 415.631 168.61 418.792 176.566 418.792H238.946C246.903 418.792 254.533 415.631 260.159 410.005C265.786 404.379 268.946 396.748 268.946 388.792V324.292C268.946 320.459 270.469 316.784 273.178 314.074C275.888 311.364 279.564 309.842 283.396 309.842C287.229 309.842 290.904 308.319 293.614 305.609C296.324 302.899 297.846 299.224 297.846 295.392V240.132H278.336C270.618 240.132 263.217 237.066 257.759 231.608C252.302 226.151 249.236 218.749 249.236 211.032C249.236 203.314 246.17 195.912 240.713 190.455C235.256 184.998 227.854 181.932 220.136 181.932H191.866C183.91 181.932 176.279 178.771 170.653 173.145C165.027 167.519 161.866 159.888 161.866 151.932V45.9316C161.866 37.9751 158.705 30.3445 153.079 24.7184C147.453 19.0923 139.823 15.9316 131.866 15.9316H47.2062V65.5516Z" fill="#C8E4FF" stroke="black"/>
<path d="M47.2062 50.5516C47.2062 56.7312 44.7514 62.6576 40.3818 67.0272C36.0122 71.3968 30.0857 73.8516 23.9062 73.8516C17.7293 73.8516 11.8054 76.3054 7.43768 80.6731C3.06996 85.0408 0.616211 90.9648 0.616211 97.1416V183.292H51.6662C59.6227 183.292 67.2533 186.452 72.8794 192.078C78.5055 197.705 81.6662 205.335 81.6662 213.292V304.122C81.6662 312.078 84.8269 319.709 90.453 325.335C96.0791 330.961 103.71 334.122 111.666 334.122H116.566C124.523 334.122 132.153 337.282 137.779 342.908C143.405 348.535 146.566 356.165 146.566 364.122V373.792C146.566 381.748 149.727 389.379 155.353 395.005C160.979 400.631 168.61 403.792 176.566 403.792H238.946C246.903 403.792 254.533 400.631 260.159 395.005C265.786 389.379 268.946 381.748 268.946 373.792V309.292C268.946 305.459 270.469 301.784 273.178 299.074C275.888 296.364 279.564 294.842 283.396 294.842C287.229 294.842 290.904 293.319 293.614 290.609C296.324 287.899 297.846 284.224 297.846 280.392V225.132H278.336C270.618 225.132 263.217 222.066 257.759 216.608C252.302 211.151 249.236 203.749 249.236 196.032C249.236 188.314 246.17 180.912 240.713 175.455C235.256 169.998 227.854 166.932 220.136 166.932H191.866C183.91 166.932 176.279 163.771 170.653 158.145C165.027 152.519 161.866 144.888 161.866 136.932V30.9316C161.866 22.9751 158.705 15.3445 153.079 9.71844C147.453 4.09235 139.823 0.931641 131.866 0.931641H47.2062V50.5516Z" fill="#C8E4FF" stroke="black"/>
<path d="M101.744 265.634V251.55H106.947C107.951 251.55 108.805 251.713 109.509 252.039C110.213 252.365 110.748 252.822 111.113 253.409C111.491 253.982 111.68 254.667 111.68 255.463C111.68 256.258 111.491 256.956 111.113 257.555C110.748 258.142 110.213 258.605 109.509 258.944C108.805 259.27 107.951 259.433 106.947 259.433H102.917V258.025H106.888C107.931 258.025 108.72 257.797 109.255 257.34C109.802 256.884 110.076 256.258 110.076 255.463C110.076 254.68 109.809 254.067 109.274 253.624C108.74 253.18 107.944 252.959 106.888 252.959H103.348V265.634H101.744ZM109.998 265.634L102.507 258.651H104.697L112.424 265.634H109.998ZM117.959 265.829C117.007 265.829 116.166 265.608 115.435 265.164C114.705 264.708 114.131 264.089 113.714 263.306C113.297 262.524 113.088 261.624 113.088 260.607C113.088 259.59 113.29 258.696 113.694 257.927C114.112 257.145 114.692 256.538 115.435 256.108C116.179 255.678 117.033 255.463 117.998 255.463C118.924 255.463 119.726 255.665 120.404 256.069C121.095 256.473 121.623 257.04 121.988 257.771C122.366 258.501 122.555 259.361 122.555 260.353C122.555 260.483 122.549 260.607 122.536 260.724C122.536 260.842 122.523 260.972 122.497 261.115H114.262V259.805H121.538L121.03 260.529C121.03 259.329 120.762 258.41 120.228 257.771C119.706 257.119 118.963 256.793 117.998 256.793C117.007 256.793 116.205 257.138 115.592 257.829C114.992 258.507 114.692 259.427 114.692 260.587C114.692 261.774 114.992 262.726 115.592 263.443C116.205 264.147 117.02 264.499 118.037 264.499C118.676 264.499 119.237 264.362 119.719 264.089C120.202 263.802 120.554 263.397 120.775 262.876H122.262C121.936 263.789 121.388 264.512 120.619 265.047C119.862 265.569 118.976 265.829 117.959 265.829ZM130.976 265.634C130.924 265.412 130.885 265.158 130.859 264.871C130.846 264.584 130.839 264.219 130.839 263.776H130.742V259.003C130.742 258.247 130.566 257.692 130.214 257.34C129.874 256.975 129.32 256.793 128.551 256.793C127.795 256.793 127.188 256.949 126.732 257.262C126.288 257.562 126.041 257.992 125.989 258.553H124.482C124.548 257.588 124.952 256.832 125.695 256.284C126.438 255.736 127.41 255.463 128.61 255.463C129.848 255.463 130.768 255.756 131.368 256.343C131.967 256.93 132.267 257.81 132.267 258.983V263.776C132.267 264.062 132.287 264.362 132.326 264.675C132.365 264.975 132.417 265.295 132.482 265.634H130.976ZM127.553 265.829C126.523 265.829 125.702 265.582 125.089 265.086C124.489 264.578 124.189 263.886 124.189 263.013C124.189 262.139 124.489 261.461 125.089 260.978C125.689 260.496 126.562 260.157 127.71 259.961L131.192 259.375V260.666L127.945 261.174C127.214 261.291 126.66 261.487 126.282 261.761C125.904 262.035 125.715 262.432 125.715 262.954C125.715 263.463 125.884 263.847 126.223 264.108C126.575 264.369 127.09 264.499 127.768 264.499C128.642 264.499 129.353 264.304 129.901 263.912C130.461 263.508 130.742 262.987 130.742 262.348L130.996 263.736C130.787 264.401 130.377 264.917 129.764 265.282C129.164 265.647 128.427 265.829 127.553 265.829ZM139.235 265.829C138.322 265.829 137.507 265.608 136.79 265.164C136.086 264.708 135.525 264.089 135.108 263.306C134.703 262.511 134.501 261.611 134.501 260.607C134.501 259.603 134.703 258.716 135.108 257.947C135.525 257.177 136.086 256.571 136.79 256.128C137.507 255.684 138.315 255.463 139.215 255.463C139.958 255.463 140.623 255.606 141.21 255.893C141.81 256.18 142.299 256.59 142.677 257.125C143.069 257.647 143.316 258.26 143.421 258.964H141.973C141.843 258.325 141.543 257.803 141.073 257.399C140.604 256.995 139.998 256.793 139.254 256.793C138.615 256.793 138.061 256.949 137.592 257.262C137.122 257.575 136.757 258.018 136.496 258.592C136.235 259.166 136.105 259.837 136.105 260.607C136.105 261.376 136.235 262.054 136.496 262.641C136.757 263.228 137.122 263.684 137.592 264.01C138.074 264.336 138.635 264.499 139.274 264.499C139.991 264.499 140.591 264.304 141.073 263.912C141.556 263.508 141.862 262.987 141.993 262.348H143.44C143.323 263.039 143.062 263.652 142.658 264.186C142.267 264.708 141.778 265.112 141.191 265.399C140.604 265.686 139.952 265.829 139.235 265.829ZM149.665 265.81C148.557 265.81 147.748 265.562 147.24 265.067C146.744 264.558 146.496 263.828 146.496 262.876V253.33L148.061 252.744V262.856C148.061 263.417 148.205 263.828 148.492 264.089C148.778 264.349 149.248 264.48 149.9 264.48C150.161 264.48 150.382 264.467 150.565 264.441C150.761 264.401 150.917 264.356 151.034 264.304V265.634C150.904 265.686 150.715 265.725 150.467 265.751C150.232 265.79 149.965 265.81 149.665 265.81ZM144.443 256.988V255.658H151.034V256.988H144.443ZM157.081 265.634V251.55H158.744L166.822 263.404L166.588 263.443V251.55H168.113V265.634H166.451L158.372 253.78L158.607 253.741V265.634H157.081ZM177.489 265.634C177.437 265.412 177.398 265.158 177.372 264.871C177.359 264.584 177.352 264.219 177.352 263.776H177.254V259.003C177.254 258.247 177.078 257.692 176.726 257.34C176.387 256.975 175.833 256.793 175.064 256.793C174.307 256.793 173.701 256.949 173.244 257.262C172.801 257.562 172.553 257.992 172.501 258.553H170.995C171.06 257.588 171.465 256.832 172.208 256.284C172.951 255.736 173.923 255.463 175.122 255.463C176.361 255.463 177.28 255.756 177.88 256.343C178.48 256.93 178.78 257.81 178.78 258.983V263.776C178.78 264.062 178.8 264.362 178.839 264.675C178.878 264.975 178.93 265.295 178.995 265.634H177.489ZM174.066 265.829C173.036 265.829 172.214 265.582 171.601 265.086C171.002 264.578 170.702 263.886 170.702 263.013C170.702 262.139 171.002 261.461 171.601 260.978C172.201 260.496 173.075 260.157 174.222 259.961L177.704 259.375V260.666L174.457 261.174C173.727 261.291 173.173 261.487 172.795 261.761C172.416 262.035 172.227 262.432 172.227 262.954C172.227 263.463 172.397 263.847 172.736 264.108C173.088 264.369 173.603 264.499 174.281 264.499C175.155 264.499 175.866 264.304 176.413 263.912C176.974 263.508 177.254 262.987 177.254 262.348L177.509 263.736C177.3 264.401 176.889 264.917 176.276 265.282C175.676 265.647 174.94 265.829 174.066 265.829ZM185.519 265.81C184.411 265.81 183.602 265.562 183.094 265.067C182.598 264.558 182.35 263.828 182.35 262.876V253.33L183.915 252.744V262.856C183.915 263.417 184.059 263.828 184.345 264.089C184.632 264.349 185.102 264.48 185.754 264.48C186.015 264.48 186.236 264.467 186.419 264.441C186.614 264.401 186.771 264.356 186.888 264.304V265.634C186.758 265.686 186.569 265.725 186.321 265.751C186.086 265.79 185.819 265.81 185.519 265.81ZM180.297 256.988V255.658H186.888V256.988H180.297ZM188.902 265.634V255.658H190.467V265.634H188.902ZM188.785 253.389V251.55H190.584V253.389H188.785ZM196.382 265.634L192.255 255.658H193.937L197.379 264.578H196.754L200.177 255.658H201.78L197.653 265.634H196.382ZM207.546 265.829C206.594 265.829 205.753 265.608 205.022 265.164C204.292 264.708 203.718 264.089 203.301 263.306C202.884 262.524 202.675 261.624 202.675 260.607C202.675 259.59 202.877 258.696 203.282 257.927C203.699 257.145 204.279 256.538 205.022 256.108C205.766 255.678 206.62 255.463 207.585 255.463C208.511 255.463 209.313 255.665 209.991 256.069C210.682 256.473 211.21 257.04 211.575 257.771C211.953 258.501 212.142 259.361 212.142 260.353C212.142 260.483 212.136 260.607 212.123 260.724C212.123 260.842 212.11 260.972 212.084 261.115H203.849V259.805H211.125L210.617 260.529C210.617 259.329 210.349 258.41 209.815 257.771C209.293 257.119 208.55 256.793 207.585 256.793C206.594 256.793 205.792 257.138 205.179 257.829C204.579 258.507 204.279 259.427 204.279 260.587C204.279 261.774 204.579 262.726 205.179 263.443C205.792 264.147 206.607 264.499 207.624 264.499C208.263 264.499 208.824 264.362 209.306 264.089C209.789 263.802 210.141 263.397 210.362 262.876H211.849C211.523 263.789 210.975 264.512 210.206 265.047C209.45 265.569 208.563 265.829 207.546 265.829ZM217.554 265.634L222.991 251.55H224.4L219.099 265.634H217.554ZM228.742 265.634L223.441 251.55H224.947L230.385 265.634H228.742ZM220.253 259.942H227.608V261.35H220.253V259.942ZM237.574 265.81C236.635 265.81 235.846 265.582 235.207 265.125C234.568 264.669 234.132 264.023 233.897 263.189L234.21 263.15V269.644H232.645V255.658H234.112V257.986L233.897 257.927C234.145 257.158 234.614 256.558 235.305 256.128C235.996 255.684 236.798 255.463 237.711 255.463C238.598 255.463 239.367 255.678 240.019 256.108C240.684 256.538 241.199 257.138 241.564 257.908C241.93 258.677 242.112 259.577 242.112 260.607C242.112 261.65 241.923 262.563 241.545 263.345C241.167 264.128 240.639 264.734 239.961 265.164C239.282 265.595 238.487 265.81 237.574 265.81ZM237.339 264.441C238.331 264.441 239.106 264.102 239.667 263.423C240.228 262.732 240.508 261.793 240.508 260.607C240.508 259.433 240.228 258.514 239.667 257.849C239.106 257.171 238.331 256.832 237.339 256.832C236.348 256.832 235.566 257.177 234.992 257.868C234.418 258.546 234.132 259.479 234.132 260.666C234.132 261.826 234.418 262.745 234.992 263.423C235.566 264.102 236.348 264.441 237.339 264.441ZM249.436 265.81C248.497 265.81 247.709 265.582 247.07 265.125C246.431 264.669 245.994 264.023 245.759 263.189L246.072 263.15V269.644H244.507V255.658H245.974V257.986L245.759 257.927C246.007 257.158 246.476 256.558 247.167 256.128C247.859 255.684 248.66 255.463 249.573 255.463C250.46 255.463 251.229 255.678 251.881 256.108C252.546 256.538 253.062 257.138 253.427 257.908C253.792 258.677 253.974 259.577 253.974 260.607C253.974 261.65 253.785 262.563 253.407 263.345C253.029 264.128 252.501 264.734 251.823 265.164C251.145 265.595 250.349 265.81 249.436 265.81ZM249.202 264.441C250.193 264.441 250.969 264.102 251.529 263.423C252.09 262.732 252.37 261.793 252.37 260.607C252.37 259.433 252.09 258.514 251.529 257.849C250.969 257.171 250.193 256.832 249.202 256.832C248.211 256.832 247.428 257.177 246.854 257.868C246.281 258.546 245.994 259.479 245.994 260.666C245.994 261.826 246.281 262.745 246.854 263.423C247.428 264.102 248.211 264.441 249.202 264.441ZM102.702 290.634V289.225H106.477C107.651 289.225 108.661 288.991 109.509 288.521C110.357 288.039 111.009 287.367 111.465 286.507C111.922 285.646 112.15 284.648 112.15 283.514C112.15 282.392 111.922 281.414 111.465 280.58C111.009 279.745 110.357 279.1 109.509 278.643C108.675 278.187 107.664 277.959 106.477 277.959H102.702V276.55H106.477C107.951 276.55 109.235 276.844 110.331 277.431C111.426 278.004 112.274 278.819 112.873 279.876C113.486 280.919 113.793 282.145 113.793 283.553C113.793 284.961 113.486 286.2 112.873 287.269C112.261 288.326 111.406 289.154 110.311 289.754C109.229 290.34 107.957 290.634 106.497 290.634H102.702ZM101.744 290.634V276.55H103.348V290.634H101.744ZM120.346 290.829C119.394 290.829 118.553 290.608 117.823 290.164C117.093 289.708 116.519 289.089 116.102 288.306C115.684 287.524 115.476 286.624 115.476 285.607C115.476 284.59 115.678 283.696 116.082 282.927C116.499 282.145 117.08 281.538 117.823 281.108C118.566 280.678 119.42 280.463 120.385 280.463C121.311 280.463 122.113 280.665 122.791 281.069C123.482 281.473 124.011 282.04 124.376 282.771C124.754 283.501 124.943 284.361 124.943 285.353C124.943 285.483 124.936 285.607 124.923 285.724C124.923 285.842 124.91 285.972 124.884 286.115H116.649V284.805H123.926L123.417 285.529C123.417 284.329 123.15 283.41 122.615 282.771C122.094 282.119 121.35 281.793 120.385 281.793C119.394 281.793 118.592 282.138 117.98 282.829C117.38 283.507 117.08 284.427 117.08 285.587C117.08 286.774 117.38 287.726 117.98 288.443C118.592 289.147 119.407 289.499 120.425 289.499C121.064 289.499 121.624 289.362 122.107 289.089C122.589 288.802 122.941 288.397 123.163 287.876H124.65C124.324 288.789 123.776 289.512 123.007 290.047C122.25 290.569 121.363 290.829 120.346 290.829ZM129.984 290.634L125.857 280.658H127.539L130.982 289.578H130.356L133.779 280.658H135.383L131.256 290.634H129.984ZM141.148 290.829C140.196 290.829 139.355 290.608 138.625 290.164C137.895 289.708 137.321 289.089 136.904 288.306C136.486 287.524 136.278 286.624 136.278 285.607C136.278 284.59 136.48 283.696 136.884 282.927C137.301 282.145 137.882 281.538 138.625 281.108C139.368 280.678 140.222 280.463 141.187 280.463C142.113 280.463 142.915 280.665 143.593 281.069C144.284 281.473 144.812 282.04 145.177 282.771C145.556 283.501 145.745 284.361 145.745 285.353C145.745 285.483 145.738 285.607 145.725 285.724C145.725 285.842 145.712 285.972 145.686 286.115H137.451V284.805H144.728L144.219 285.529C144.219 284.329 143.952 283.41 143.417 282.771C142.895 282.119 142.152 281.793 141.187 281.793C140.196 281.793 139.394 282.138 138.781 282.829C138.181 283.507 137.882 284.427 137.882 285.587C137.882 286.774 138.181 287.726 138.781 288.443C139.394 289.147 140.209 289.499 141.226 289.499C141.865 289.499 142.426 289.362 142.909 289.089C143.391 288.802 143.743 288.397 143.965 287.876H145.451C145.125 288.789 144.578 289.512 143.808 290.047C143.052 290.569 142.165 290.829 141.148 290.829ZM148.101 290.634V276.55H149.666V290.634H148.101ZM156.947 290.829C155.969 290.829 155.108 290.601 154.365 290.145C153.621 289.688 153.041 289.069 152.624 288.287C152.22 287.491 152.017 286.598 152.017 285.607C152.017 284.603 152.226 283.716 152.643 282.947C153.061 282.177 153.634 281.571 154.365 281.128C155.108 280.684 155.969 280.463 156.947 280.463C157.938 280.463 158.798 280.684 159.529 281.128C160.272 281.571 160.846 282.177 161.25 282.947C161.667 283.716 161.876 284.603 161.876 285.607C161.876 286.598 161.667 287.491 161.25 288.287C160.846 289.069 160.272 289.688 159.529 290.145C158.798 290.601 157.938 290.829 156.947 290.829ZM156.947 289.499C157.625 289.499 158.211 289.336 158.707 289.01C159.203 288.671 159.587 288.208 159.861 287.622C160.135 287.035 160.272 286.357 160.272 285.587C160.272 284.44 159.965 283.52 159.352 282.829C158.753 282.138 157.951 281.793 156.947 281.793C155.956 281.793 155.154 282.138 154.541 282.829C153.928 283.52 153.621 284.44 153.621 285.587C153.621 286.357 153.758 287.035 154.032 287.622C154.306 288.208 154.691 288.671 155.186 289.01C155.695 289.336 156.282 289.499 156.947 289.499ZM169.152 290.81C168.213 290.81 167.424 290.582 166.785 290.125C166.146 289.669 165.709 289.023 165.475 288.189L165.787 288.15V294.644H164.223V280.658H165.69V282.986L165.475 282.927C165.722 282.158 166.192 281.558 166.883 281.128C167.574 280.684 168.376 280.463 169.289 280.463C170.175 280.463 170.945 280.678 171.597 281.108C172.262 281.538 172.777 282.138 173.142 282.908C173.507 283.677 173.69 284.577 173.69 285.607C173.69 286.65 173.501 287.563 173.123 288.345C172.744 289.128 172.216 289.734 171.538 290.164C170.86 290.595 170.065 290.81 169.152 290.81ZM168.917 289.441C169.908 289.441 170.684 289.102 171.245 288.423C171.805 287.732 172.086 286.793 172.086 285.607C172.086 284.433 171.805 283.514 171.245 282.849C170.684 282.171 169.908 281.832 168.917 281.832C167.926 281.832 167.144 282.177 166.57 282.868C165.996 283.546 165.709 284.479 165.709 285.666C165.709 286.826 165.996 287.745 166.57 288.423C167.144 289.102 167.926 289.441 168.917 289.441ZM176.085 290.634V280.658H177.552V283.005H177.65V290.634H176.085ZM182.814 290.634V284.022C182.814 283.266 182.644 282.712 182.305 282.36C181.966 282.008 181.477 281.832 180.838 281.832C180.238 281.832 179.697 281.975 179.214 282.262C178.732 282.549 178.347 282.947 178.06 283.455C177.787 283.964 177.65 284.557 177.65 285.235L177.395 282.868C177.734 282.125 178.243 281.538 178.921 281.108C179.599 280.678 180.336 280.463 181.131 280.463C182.096 280.463 182.879 280.749 183.479 281.323C184.078 281.884 184.378 282.647 184.378 283.612V290.634H182.814ZM189.542 290.634V284.022C189.542 283.266 189.373 282.712 189.034 282.36C188.695 282.008 188.206 281.832 187.567 281.832C186.967 281.832 186.426 281.975 185.943 282.262C185.461 282.549 185.076 282.947 184.789 283.455C184.515 283.964 184.378 284.557 184.378 285.235L183.987 282.868C184.326 282.125 184.848 281.538 185.552 281.108C186.256 280.678 187.012 280.463 187.821 280.463C188.786 280.463 189.575 280.749 190.188 281.323C190.801 281.884 191.107 282.647 191.107 283.612V290.634H189.542ZM198.205 290.829C197.253 290.829 196.412 290.608 195.682 290.164C194.951 289.708 194.378 289.089 193.96 288.306C193.543 287.524 193.334 286.624 193.334 285.607C193.334 284.59 193.537 283.696 193.941 282.927C194.358 282.145 194.938 281.538 195.682 281.108C196.425 280.678 197.279 280.463 198.244 280.463C199.17 280.463 199.972 280.665 200.65 281.069C201.341 281.473 201.869 282.04 202.234 282.771C202.612 283.501 202.802 284.361 202.802 285.353C202.802 285.483 202.795 285.607 202.782 285.724C202.782 285.842 202.769 285.972 202.743 286.115H194.508V284.805H201.784L201.276 285.529C201.276 284.329 201.009 283.41 200.474 282.771C199.952 282.119 199.209 281.793 198.244 281.793C197.253 281.793 196.451 282.138 195.838 282.829C195.238 283.507 194.938 284.427 194.938 285.587C194.938 286.774 195.238 287.726 195.838 288.443C196.451 289.147 197.266 289.499 198.283 289.499C198.922 289.499 199.483 289.362 199.965 289.089C200.448 288.802 200.8 288.397 201.022 287.876H202.508C202.182 288.789 201.634 289.512 200.865 290.047C200.109 290.569 199.222 290.829 198.205 290.829ZM205.158 290.634V280.658H206.625V283.005H206.722V290.634H205.158ZM212.297 290.634V284.101C212.297 283.344 212.108 282.777 211.73 282.399C211.352 282.021 210.791 281.832 210.048 281.832C209.396 281.832 208.815 281.975 208.307 282.262C207.811 282.549 207.42 282.947 207.133 283.455C206.859 283.964 206.722 284.557 206.722 285.235L206.468 282.868C206.807 282.125 207.322 281.538 208.013 281.108C208.718 280.678 209.513 280.463 210.4 280.463C211.443 280.463 212.278 280.762 212.903 281.362C213.542 281.949 213.862 282.725 213.862 283.69V290.634H212.297ZM220.59 290.81C219.481 290.81 218.673 290.562 218.164 290.067C217.669 289.558 217.421 288.828 217.421 287.876V278.33L218.986 277.744V287.856C218.986 288.417 219.129 288.828 219.416 289.089C219.703 289.349 220.173 289.48 220.825 289.48C221.085 289.48 221.307 289.467 221.49 289.441C221.685 289.401 221.842 289.356 221.959 289.304V290.634C221.829 290.686 221.64 290.725 221.392 290.751C221.157 290.79 220.89 290.81 220.59 290.81ZM215.367 281.988V280.658H221.959V281.988H215.367Z" fill="#001F4F"/>
<path d="M100.961 215.222C100.961 213.083 101.45 211.323 102.428 209.941C103.406 208.545 104.658 207.848 106.184 207.848C107.71 207.848 108.961 208.545 109.939 209.941C110.917 211.323 111.406 213.083 111.406 215.222C111.406 217.36 110.917 219.127 109.939 220.523C108.961 221.905 107.71 222.596 106.184 222.596C104.658 222.596 103.406 221.905 102.428 220.523C101.45 219.127 100.961 217.36 100.961 215.222ZM110.409 215.222C110.409 213.37 110.011 211.831 109.216 210.606C108.42 209.38 107.41 208.767 106.184 208.767C104.958 208.767 103.947 209.38 103.152 210.606C102.357 211.831 101.959 213.37 101.959 215.222C101.959 217.074 102.357 218.612 103.152 219.838C103.947 221.064 104.958 221.677 106.184 221.677C107.41 221.677 108.42 221.064 109.216 219.838C110.011 218.612 110.409 217.074 110.409 215.222ZM119.797 208.982H113.186V208.082H121.479L117.098 213.853C118.389 213.918 119.445 214.342 120.267 215.124C121.101 215.906 121.519 216.898 121.519 218.097C121.519 219.375 121.036 220.444 120.071 221.305C119.119 222.166 117.965 222.596 116.609 222.596C115.866 222.596 115.148 222.485 114.457 222.264C113.779 222.042 113.173 221.729 112.638 221.325V220.131C113.16 220.64 113.76 221.031 114.438 221.305C115.116 221.566 115.827 221.696 116.57 221.696C117.678 221.696 118.617 221.351 119.387 220.66C120.156 219.955 120.541 219.101 120.541 218.097C120.541 216.937 120.065 216.024 119.113 215.359C118.161 214.694 116.974 214.439 115.553 214.596L119.797 208.982Z" fill="#001F4F"/>
</svg>
