<svg width="617" height="413" viewBox="0 0 617 413" fill="none" xmlns="http://www.w3.org/2000/svg">
<path d="M224.915 7.35449V61.8145C224.915 78.3835 211.484 91.8145 194.915 91.8145H179.957C163.388 91.8145 149.957 78.3835 149.957 61.8145V53.1625C149.957 36.5935 136.525 23.1625 119.957 23.1625H0.914551V382.464C0.914551 399.033 14.3456 412.464 30.9146 412.464H342.165V330.349C342.165 313.78 355.596 300.349 372.165 300.349H586.04C602.609 300.349 616.04 286.918 616.04 270.349V227.849H543.639C527.07 227.849 513.639 214.417 513.639 197.849V188.18C513.639 171.612 500.207 158.18 483.639 158.18H415.252C398.683 158.18 385.252 144.75 385.252 128.181V37.3545C385.252 20.7865 371.82 7.35449 355.252 7.35449H224.915Z" fill="#ACEB00" stroke="black"/>
<path d="M224.915 1.35449V55.8145C224.915 72.3835 211.484 85.8145 194.915 85.8145H179.957C163.388 85.8145 149.957 72.3835 149.957 55.8145V47.1625C149.957 30.5935 136.525 17.1625 119.957 17.1625H0.914551V376.464C0.914551 393.033 14.3456 406.464 30.9146 406.464H342.165V324.349C342.165 307.78 355.596 294.349 372.165 294.349H586.04C602.609 294.349 616.04 280.918 616.04 264.349V221.849H543.639C527.07 221.849 513.639 208.417 513.639 191.849V182.18C513.639 165.612 500.207 152.181 483.639 152.181H415.252C398.683 152.181 385.252 138.75 385.252 122.181V31.3545C385.252 14.7865 371.82 1.35449 355.252 1.35449H224.915Z" fill="#D5FC6B" stroke="black"/>
<path d="M26.8872 241.735C26.8872 238.841 27.549 236.458 28.8726 234.587C30.1962 232.699 31.8905 231.755 33.9553 231.755C36.0202 231.755 37.7144 232.699 39.038 234.587C40.3616 236.458 41.0234 238.841 41.0234 241.735C41.0234 244.629 40.3616 247.021 39.038 248.909C37.7144 250.78 36.0202 251.715 33.9553 251.715C31.8905 251.715 30.1962 250.78 28.8726 248.909C27.549 247.021 26.8872 244.629 26.8872 241.735ZM39.6734 241.735C39.6734 239.229 39.1351 237.146 38.0585 235.488C36.982 233.829 35.6142 232.999 33.9553 232.999C32.2964 232.999 30.9286 233.829 29.8521 235.488C28.7755 237.146 28.2373 239.229 28.2373 241.735C28.2373 244.241 28.7755 246.324 29.8521 247.983C30.9286 249.641 32.2964 250.471 33.9553 250.471C35.6142 250.471 36.982 249.641 38.0585 247.983C39.1351 246.324 39.6734 244.241 39.6734 241.735ZM51.5589 232.073H53.0148L44.6496 245.097H52.353V240.067H53.6502V245.097H57.5152V246.235H53.6502V251.397H52.353V246.235H42.4788L51.5589 232.073Z" fill="#003274"/>
<path d="M27.9461 317.109V298.049H30.1168V317.109H27.9461ZM29.0579 308.929V307.023H39.3292V308.929H29.0579ZM29.0579 299.955V298.049H40.0704V299.955H29.0579ZM43.7121 317.109V298.049H45.8299V317.109H43.7121ZM54.4661 317.374C53.5837 317.374 52.7983 317.198 52.11 316.845C51.4217 316.474 50.8835 315.962 50.4952 315.309C50.1069 314.639 49.9128 313.871 49.9128 313.006V303.608H52.0306V312.45C52.0306 313.474 52.2777 314.242 52.7718 314.753C53.2836 315.265 54.0072 315.521 54.9426 315.521C55.7897 315.521 56.5397 315.327 57.1927 314.939C57.8457 314.55 58.3575 314.012 58.7281 313.324C59.1164 312.618 59.3105 311.815 59.3105 310.915L59.6547 314.118C59.2135 315.124 58.5252 315.918 57.5898 316.501C56.6545 317.083 55.6132 317.374 54.4661 317.374ZM59.4429 317.109V313.933H59.3105V303.608H61.4283V317.109H59.4429ZM70.9832 317.348C69.4831 317.348 68.3889 317.012 67.7006 316.342C67.03 315.653 66.6947 314.665 66.6947 313.377V300.458L68.8125 299.664V313.35C68.8125 314.109 69.0066 314.665 69.3949 315.018C69.7831 315.371 70.4185 315.548 71.3009 315.548C71.6539 315.548 71.9539 315.53 72.2009 315.495C72.4657 315.442 72.6775 315.38 72.8363 315.309V317.109C72.6598 317.18 72.4039 317.233 72.0686 317.268C71.7509 317.321 71.3891 317.348 70.9832 317.348ZM63.9151 305.409V303.608H72.8363V305.409H63.9151ZM81.4274 317.348C79.9273 317.348 78.8331 317.012 78.1448 316.342C77.4742 315.653 77.1389 314.665 77.1389 313.377V300.458L79.2567 299.664V313.35C79.2567 314.109 79.4508 314.665 79.8391 315.018C80.2273 315.371 80.8627 315.548 81.7451 315.548C82.0981 315.548 82.3981 315.53 82.6452 315.495C82.9099 315.442 83.1217 315.38 83.2805 315.309V317.109C83.104 317.18 82.8481 317.233 82.5128 317.268C82.1951 317.321 81.8333 317.348 81.4274 317.348ZM74.3593 305.409V303.608H83.2805V305.409H74.3593ZM91.2543 317.374C89.966 317.374 88.8276 317.074 87.8393 316.474C86.851 315.856 86.0745 315.018 85.5098 313.959C84.945 312.9 84.6626 311.683 84.6626 310.306C84.6626 308.929 84.9362 307.72 85.4833 306.679C86.048 305.62 86.8334 304.8 87.8393 304.217C88.8453 303.635 90.0013 303.344 91.3072 303.344C92.5603 303.344 93.6456 303.617 94.5633 304.164C95.4987 304.711 96.2134 305.479 96.7076 306.467C97.2194 307.456 97.4753 308.621 97.4753 309.962C97.4753 310.138 97.4665 310.306 97.4488 310.465C97.4488 310.624 97.4312 310.8 97.3959 310.994H86.251V309.221H96.0987L95.4105 310.2C95.4105 308.576 95.0487 307.332 94.3251 306.467C93.6192 305.585 92.6132 305.144 91.3072 305.144C89.966 305.144 88.8806 305.612 88.0511 306.547C87.2393 307.465 86.8334 308.709 86.8334 310.279C86.8334 311.885 87.2393 313.174 88.0511 314.144C88.8806 315.097 89.9836 315.574 91.3602 315.574C92.2249 315.574 92.9838 315.389 93.6368 315.018C94.2898 314.63 94.7663 314.083 95.0663 313.377H97.0782C96.637 314.612 95.8958 315.592 94.8545 316.315C93.8309 317.021 92.6308 317.374 91.2543 317.374ZM100.664 317.109V303.608H102.649V307.05H102.782V317.109H100.664ZM102.782 310.068L102.438 306.865C102.755 305.717 103.32 304.844 104.132 304.244C104.944 303.644 105.879 303.344 106.938 303.344C107.379 303.344 107.679 303.379 107.838 303.45V305.488C107.75 305.453 107.626 305.435 107.467 305.435C107.309 305.417 107.114 305.409 106.885 305.409C105.544 305.409 104.52 305.814 103.814 306.626C103.126 307.42 102.782 308.568 102.782 310.068ZM114.726 317.109L122.085 298.049H123.991L116.817 317.109H114.726ZM129.868 317.109L122.694 298.049H124.733L132.092 317.109H129.868ZM118.379 309.406H128.333V311.312H118.379V309.406ZM141.822 317.348C140.551 317.348 139.483 317.039 138.618 316.421C137.754 315.803 137.162 314.93 136.845 313.8L137.268 313.747V322.536H135.151V303.608H137.136V306.759L136.845 306.679C137.18 305.638 137.815 304.826 138.751 304.244C139.686 303.644 140.772 303.344 142.007 303.344C143.207 303.344 144.248 303.635 145.131 304.217C146.031 304.8 146.728 305.612 147.222 306.653C147.716 307.694 147.963 308.912 147.963 310.306C147.963 311.718 147.707 312.953 147.196 314.012C146.684 315.071 145.969 315.892 145.051 316.474C144.134 317.056 143.057 317.348 141.822 317.348ZM141.504 315.495C142.845 315.495 143.895 315.036 144.654 314.118C145.413 313.183 145.792 311.912 145.792 310.306C145.792 308.718 145.413 307.473 144.654 306.573C143.895 305.656 142.845 305.197 141.504 305.197C140.163 305.197 139.104 305.664 138.327 306.6C137.551 307.518 137.162 308.779 137.162 310.385C137.162 311.956 137.551 313.2 138.327 314.118C139.104 315.036 140.163 315.495 141.504 315.495ZM157.876 317.348C156.605 317.348 155.537 317.039 154.673 316.421C153.808 315.803 153.217 314.93 152.899 313.8L153.322 313.747V322.536H151.205V303.608H153.19V306.759L152.899 306.679C153.234 305.638 153.87 304.826 154.805 304.244C155.74 303.644 156.826 303.344 158.061 303.344C159.261 303.344 160.302 303.635 161.185 304.217C162.085 304.8 162.782 305.612 163.276 306.653C163.77 307.694 164.017 308.912 164.017 310.306C164.017 311.718 163.761 312.953 163.25 314.012C162.738 315.071 162.023 315.892 161.105 316.474C160.188 317.056 159.111 317.348 157.876 317.348ZM157.558 315.495C158.899 315.495 159.949 315.036 160.708 314.118C161.467 313.183 161.847 311.912 161.847 310.306C161.847 308.718 161.467 307.473 160.708 306.573C159.949 305.656 158.899 305.197 157.558 305.197C156.217 305.197 155.158 305.664 154.381 306.6C153.605 307.518 153.217 308.779 153.217 310.385C153.217 311.956 153.605 313.2 154.381 314.118C155.158 315.036 156.217 315.495 157.558 315.495ZM29.2432 351.109V349.203H34.3524C35.9407 349.203 37.3085 348.886 38.4556 348.25C39.6028 347.597 40.4852 346.688 41.1029 345.524C41.7206 344.359 42.0294 343.009 42.0294 341.473C42.0294 339.956 41.7206 338.632 41.1029 337.503C40.4852 336.373 39.6028 335.499 38.4556 334.882C37.3261 334.264 35.9584 333.955 34.3524 333.955H29.2432V332.049H34.3524C36.3467 332.049 38.085 332.446 39.5675 333.24C41.0499 334.017 42.1971 335.12 43.0089 336.55C43.8384 337.961 44.2531 339.62 44.2531 341.526C44.2531 343.432 43.8384 345.109 43.0089 346.556C42.1794 347.986 41.0234 349.106 39.541 349.918C38.0762 350.712 36.3555 351.109 34.3789 351.109H29.2432ZM27.9461 351.109V332.049H30.1168V351.109H27.9461ZM53.1226 351.374C51.8343 351.374 50.696 351.074 49.7076 350.474C48.7193 349.856 47.9428 349.018 47.3781 347.959C46.8133 346.9 46.531 345.683 46.531 344.306C46.531 342.929 46.8045 341.72 47.3516 340.679C47.9163 339.62 48.7017 338.8 49.7076 338.217C50.7136 337.635 51.8696 337.344 53.1755 337.344C54.4286 337.344 55.5139 337.617 56.4316 338.164C57.367 338.711 58.0818 339.479 58.5759 340.467C59.0877 341.456 59.3436 342.621 59.3436 343.962C59.3436 344.138 59.3348 344.306 59.3171 344.465C59.3171 344.624 59.2995 344.8 59.2642 344.994H48.1193V343.221H57.9671L57.2788 344.2C57.2788 342.576 56.917 341.332 56.1934 340.467C55.4875 339.585 54.4815 339.144 53.1755 339.144C51.8343 339.144 50.7489 339.612 49.9194 340.547C49.1076 341.465 48.7017 342.709 48.7017 344.279C48.7017 345.885 49.1076 347.174 49.9194 348.144C50.7489 349.097 51.8519 349.574 53.2285 349.574C54.0933 349.574 54.8521 349.389 55.5051 349.018C56.1581 348.63 56.6346 348.083 56.9346 347.377H58.9465C58.5053 348.612 57.7641 349.592 56.7228 350.315C55.6992 351.021 54.4992 351.374 53.1226 351.374ZM66.1665 351.109L60.5808 337.608H62.8574L67.5166 349.68H66.6695L71.3021 337.608H73.4729L67.8872 351.109H66.1665ZM81.2754 351.374C79.9871 351.374 78.8488 351.074 77.8605 350.474C76.8722 349.856 76.0956 349.018 75.5309 347.959C74.9661 346.9 74.6838 345.683 74.6838 344.306C74.6838 342.929 74.9573 341.72 75.5044 340.679C76.0692 339.62 76.8545 338.8 77.8605 338.217C78.8664 337.635 80.0224 337.344 81.3284 337.344C82.5814 337.344 83.6668 337.617 84.5845 338.164C85.5198 338.711 86.2346 339.479 86.7287 340.467C87.2405 341.456 87.4964 342.621 87.4964 343.962C87.4964 344.138 87.4876 344.306 87.47 344.465C87.47 344.624 87.4523 344.8 87.417 344.994H76.2721V343.221H86.1199L85.4316 344.2C85.4316 342.576 85.0698 341.332 84.3462 340.467C83.6403 339.585 82.6343 339.144 81.3284 339.144C79.9871 339.144 78.9017 339.612 78.0722 340.547C77.2604 341.465 76.8545 342.709 76.8545 344.279C76.8545 345.885 77.2604 347.174 78.0722 348.144C78.9017 349.097 80.0047 349.574 81.3813 349.574C82.2461 349.574 83.0049 349.389 83.6579 349.018C84.3109 348.63 84.7874 348.083 85.0874 347.377H87.0993C86.6581 348.612 85.9169 349.592 84.8757 350.315C83.8521 351.021 82.652 351.374 81.2754 351.374ZM90.6851 351.109V332.049H92.8029V351.109H90.6851ZM102.657 351.374C101.333 351.374 100.168 351.065 99.1625 350.448C98.1566 349.83 97.3712 348.992 96.8065 347.933C96.2594 346.856 95.9858 345.647 95.9858 344.306C95.9858 342.947 96.2682 341.747 96.8329 340.706C97.3977 339.664 98.1742 338.844 99.1625 338.244C100.168 337.644 101.333 337.344 102.657 337.344C103.998 337.344 105.163 337.644 106.151 338.244C107.157 338.844 107.934 339.664 108.481 340.706C109.046 341.747 109.328 342.947 109.328 344.306C109.328 345.647 109.046 346.856 108.481 347.933C107.934 348.992 107.157 349.83 106.151 350.448C105.163 351.065 103.998 351.374 102.657 351.374ZM102.657 349.574C103.575 349.574 104.369 349.353 105.039 348.912C105.71 348.453 106.231 347.827 106.601 347.033C106.972 346.238 107.157 345.321 107.157 344.279C107.157 342.726 106.742 341.482 105.913 340.547C105.101 339.612 104.016 339.144 102.657 339.144C101.316 339.144 100.23 339.612 99.4008 340.547C98.5713 341.482 98.1566 342.726 98.1566 344.279C98.1566 345.321 98.3419 346.238 98.7125 347.033C99.0831 347.827 99.6037 348.453 100.274 348.912C100.963 349.353 101.757 349.574 102.657 349.574ZM119.175 351.348C117.905 351.348 116.837 351.039 115.972 350.421C115.107 349.803 114.516 348.93 114.198 347.8L114.622 347.747V356.536H112.504V337.608H114.49V340.759L114.198 340.679C114.534 339.638 115.169 338.826 116.104 338.244C117.04 337.644 118.125 337.344 119.361 337.344C120.561 337.344 121.602 337.635 122.484 338.217C123.384 338.8 124.081 339.612 124.576 340.653C125.07 341.694 125.317 342.912 125.317 344.306C125.317 345.718 125.061 346.953 124.549 348.012C124.037 349.071 123.323 349.892 122.405 350.474C121.487 351.056 120.411 351.348 119.175 351.348ZM118.858 349.495C120.199 349.495 121.249 349.036 122.008 348.118C122.767 347.183 123.146 345.912 123.146 344.306C123.146 342.718 122.767 341.473 122.008 340.573C121.249 339.656 120.199 339.197 118.858 339.197C117.516 339.197 116.457 339.664 115.681 340.6C114.904 341.518 114.516 342.779 114.516 344.385C114.516 345.956 114.904 347.2 115.681 348.118C116.457 349.036 117.516 349.495 118.858 349.495ZM128.558 351.109V337.608H130.544V340.785H130.676V351.109H128.558ZM137.665 351.109V342.162C137.665 341.138 137.435 340.388 136.977 339.912C136.518 339.435 135.856 339.197 134.991 339.197C134.179 339.197 133.447 339.391 132.794 339.779C132.141 340.167 131.62 340.706 131.232 341.394C130.861 342.082 130.676 342.885 130.676 343.803L130.332 340.6C130.791 339.594 131.479 338.8 132.397 338.217C133.315 337.635 134.312 337.344 135.388 337.344C136.694 337.344 137.753 337.732 138.565 338.508C139.377 339.267 139.783 340.3 139.783 341.606V351.109H137.665ZM146.771 351.109V342.162C146.771 341.138 146.542 340.388 146.083 339.912C145.624 339.435 144.962 339.197 144.098 339.197C143.286 339.197 142.553 339.391 141.9 339.779C141.247 340.167 140.727 340.706 140.339 341.394C139.968 342.082 139.783 342.885 139.783 343.803L139.253 340.6C139.712 339.594 140.418 338.8 141.371 338.217C142.324 337.635 143.348 337.344 144.442 337.344C145.748 337.344 146.815 337.732 147.645 338.508C148.474 339.267 148.889 340.3 148.889 341.606V351.109H146.771ZM158.495 351.374C157.207 351.374 156.069 351.074 155.08 350.474C154.092 349.856 153.316 349.018 152.751 347.959C152.186 346.9 151.904 345.683 151.904 344.306C151.904 342.929 152.177 341.72 152.724 340.679C153.289 339.62 154.074 338.8 155.08 338.217C156.086 337.635 157.242 337.344 158.548 337.344C159.801 337.344 160.887 337.617 161.804 338.164C162.74 338.711 163.454 339.479 163.949 340.467C164.46 341.456 164.716 342.621 164.716 343.962C164.716 344.138 164.708 344.306 164.69 344.465C164.69 344.624 164.672 344.8 164.637 344.994H153.492V343.221H163.34L162.651 344.2C162.651 342.576 162.29 341.332 161.566 340.467C160.86 339.585 159.854 339.144 158.548 339.144C157.207 339.144 156.122 339.612 155.292 340.547C154.48 341.465 154.074 342.709 154.074 344.279C154.074 345.885 154.48 347.174 155.292 348.144C156.122 349.097 157.225 349.574 158.601 349.574C159.466 349.574 160.225 349.389 160.878 349.018C161.531 348.63 162.007 348.083 162.307 347.377H164.319C163.878 348.612 163.137 349.592 162.096 350.315C161.072 351.021 159.872 351.374 158.495 351.374ZM167.905 351.109V337.608H169.89V340.785H170.023V351.109H167.905ZM177.567 351.109V342.268C177.567 341.244 177.312 340.476 176.8 339.964C176.288 339.453 175.529 339.197 174.523 339.197C173.641 339.197 172.855 339.391 172.167 339.779C171.496 340.167 170.967 340.706 170.579 341.394C170.208 342.082 170.023 342.885 170.023 343.803L169.679 340.6C170.138 339.594 170.835 338.8 171.77 338.217C172.723 337.635 173.8 337.344 175 337.344C176.412 337.344 177.541 337.75 178.388 338.561C179.253 339.356 179.685 340.406 179.685 341.712V351.109H177.567ZM188.791 351.348C187.291 351.348 186.196 351.012 185.508 350.342C184.838 349.653 184.502 348.665 184.502 347.377V334.458L186.62 333.664V347.35C186.62 348.109 186.814 348.665 187.202 349.018C187.591 349.371 188.226 349.548 189.108 349.548C189.461 349.548 189.761 349.53 190.008 349.495C190.273 349.442 190.485 349.38 190.644 349.309V351.109C190.467 351.18 190.211 351.233 189.876 351.268C189.558 351.321 189.197 351.348 188.791 351.348ZM181.723 339.409V337.608H190.644V339.409H181.723Z" fill="#003274"/>
</svg>
