<svg width="313" height="414" viewBox="0 0 313 414" fill="none" xmlns="http://www.w3.org/2000/svg">
<path d="M114.521 7.43359V72.9536C114.407 77.9027 112.361 82.6109 108.821 86.071C105.28 89.5311 100.527 91.4683 95.576 91.4683C90.6256 91.4683 85.8716 89.5311 82.3311 86.071C78.7906 82.6109 76.7448 77.9027 76.631 72.9536V53.2436C76.631 45.2871 73.4703 37.6565 67.8442 32.0304C62.2181 26.4043 54.5875 23.2436 46.631 23.2436H1.29102V382.544C1.29102 390.5 4.45173 398.131 10.0778 403.757C15.7039 409.383 23.3345 412.544 31.291 412.544H173.791V330.434C173.791 322.477 176.952 314.846 182.578 309.22C188.204 303.594 195.835 300.434 203.791 300.434H282.231C290.188 300.434 297.818 297.273 303.444 291.647C309.07 286.021 312.231 278.39 312.231 270.434V227.934H290.471C282.515 227.934 274.884 224.773 269.258 219.147C263.632 213.521 260.471 205.89 260.471 197.934V188.264C260.471 180.307 257.31 172.676 251.684 167.05C246.058 161.424 238.428 158.264 230.471 158.264H225.571C217.615 158.264 209.984 155.103 204.358 149.477C198.732 143.851 195.571 136.22 195.571 128.264V37.4336C195.571 29.4771 192.41 21.8465 186.784 16.2204C181.158 10.5943 173.528 7.43359 165.571 7.43359H114.521Z" fill="#001F4F" stroke="black"/>
<path d="M114.521 1.43359V66.9536C114.407 71.9027 112.361 76.6109 108.821 80.071C105.28 83.5311 100.527 85.4683 95.576 85.4683C90.6256 85.4683 85.8716 83.5311 82.3311 80.071C78.7906 76.6109 76.7448 71.9027 76.631 66.9536V47.2436C76.631 39.2871 73.4703 31.6565 67.8442 26.0304C62.2181 20.4043 54.5875 17.2436 46.631 17.2436H1.29102V376.544C1.29102 384.5 4.45173 392.131 10.0778 397.757C15.7039 403.383 23.3345 406.544 31.291 406.544H173.791V324.434C173.791 316.477 176.952 308.846 182.578 303.22C188.204 297.594 195.835 294.434 203.791 294.434H282.231C290.188 294.434 297.818 291.273 303.444 285.647C309.07 280.021 312.231 272.39 312.231 264.434V221.934H290.471C282.515 221.934 274.884 218.773 269.258 213.147C263.632 207.521 260.471 199.89 260.471 191.934V182.264C260.471 174.307 257.31 166.676 251.684 161.05C246.058 155.424 238.428 152.264 230.471 152.264H225.571C217.615 152.264 209.984 149.103 204.358 143.477C198.732 137.851 195.571 130.22 195.571 122.264V31.4336C195.571 23.4771 192.41 15.8465 186.784 10.2204C181.158 4.59431 173.528 1.43359 165.571 1.43359H114.521Z" fill="#001F4F" stroke="black"/>
<path d="M26.1656 242.513V228.429H27.7695V242.513H26.1656ZM26.9871 236.469V235.06H34.5764V236.469H26.9871ZM26.9871 229.838V228.429H35.1241V229.838H26.9871ZM37.8149 242.513V228.429H39.3797V242.513H37.8149ZM45.7609 242.708C45.1089 242.708 44.5286 242.578 44.02 242.317C43.5115 242.043 43.1137 241.665 42.8269 241.183C42.54 240.687 42.3965 240.12 42.3965 239.481V232.537H43.9613V239.07C43.9613 239.826 44.1439 240.394 44.509 240.772C44.8872 241.15 45.4218 241.339 46.113 241.339C46.7389 241.339 47.2931 241.196 47.7756 240.909C48.2581 240.622 48.6362 240.224 48.9101 239.716C49.1969 239.194 49.3404 238.601 49.3404 237.936L49.5947 240.302C49.2687 241.046 48.7601 241.632 48.069 242.063C47.3779 242.493 46.6085 242.708 45.7609 242.708ZM49.4382 242.513V240.165H49.3404V232.537H50.9052V242.513H49.4382ZM57.9652 242.689C56.8568 242.689 56.0483 242.441 55.5397 241.945C55.0442 241.437 54.7965 240.707 54.7965 239.755V230.209L56.3613 229.623V239.735C56.3613 240.296 56.5047 240.707 56.7916 240.967C57.0785 241.228 57.5479 241.359 58.1999 241.359C58.4607 241.359 58.6824 241.346 58.865 241.32C59.0606 241.28 59.2171 241.235 59.3344 241.183V242.513C59.204 242.565 59.0149 242.604 58.7672 242.63C58.5324 242.669 58.2651 242.689 57.9652 242.689ZM52.7426 233.867V232.537H59.3344V233.867H52.7426ZM65.6823 242.689C64.5739 242.689 63.7654 242.441 63.2568 241.945C62.7613 241.437 62.5135 240.707 62.5135 239.755V230.209L64.0784 229.623V239.735C64.0784 240.296 64.2218 240.707 64.5087 240.967C64.7956 241.228 65.265 241.359 65.917 241.359C66.1778 241.359 66.3995 241.346 66.5821 241.32C66.7777 241.28 66.9341 241.235 67.0515 241.183V242.513C66.9211 242.565 66.732 242.604 66.4843 242.63C66.2495 242.669 65.9822 242.689 65.6823 242.689ZM60.4597 233.867V232.537H67.0515V233.867H60.4597ZM72.9432 242.708C71.9913 242.708 71.1502 242.487 70.42 242.043C69.6897 241.587 69.116 240.967 68.6987 240.185C68.2814 239.403 68.0728 238.503 68.0728 237.486C68.0728 236.469 68.2749 235.575 68.6791 234.806C69.0964 234.024 69.6767 233.417 70.42 232.987C71.1633 232.557 72.0174 232.341 72.9824 232.341C73.9082 232.341 74.7102 232.544 75.3883 232.948C76.0794 233.352 76.6075 233.919 76.9726 234.65C77.3508 235.38 77.5399 236.24 77.5399 237.231C77.5399 237.362 77.5334 237.486 77.5203 237.603C77.5203 237.72 77.5073 237.851 77.4812 237.994H69.2464V236.684H76.5227L76.0142 237.407C76.0142 236.208 75.7469 235.288 75.2122 234.65C74.6906 233.998 73.9473 233.672 72.9824 233.672C71.9913 233.672 71.1893 234.017 70.5765 234.708C69.9766 235.386 69.6767 236.306 69.6767 237.466C69.6767 238.653 69.9766 239.605 70.5765 240.322C71.1893 241.026 72.0044 241.378 73.0215 241.378C73.6604 241.378 74.2212 241.241 74.7037 240.967C75.1861 240.681 75.5382 240.276 75.7599 239.755H77.2465C76.9205 240.668 76.3728 241.391 75.6034 241.926C74.8471 242.447 73.9604 242.708 72.9432 242.708ZM79.896 242.513V232.537H81.363V235.08H81.4608V242.513H79.896ZM81.4608 237.31L81.2065 234.943C81.4412 234.095 81.8585 233.45 82.4583 233.006C83.0582 232.563 83.7493 232.341 84.5317 232.341C84.8577 232.341 85.0794 232.367 85.1968 232.42V233.926C85.1316 233.9 85.0403 233.887 84.9229 233.887C84.8056 233.874 84.6621 233.867 84.4926 233.867C83.5015 233.867 82.7452 234.167 82.2236 234.767C81.7151 235.354 81.4608 236.201 81.4608 237.31ZM90.2862 242.513L95.724 228.429H97.1323L91.8315 242.513H90.2862ZM101.475 242.513L96.1738 228.429H97.68L103.118 242.513H101.475ZM92.9855 236.821H100.34V238.229H92.9855V236.821ZM110.307 242.689C109.368 242.689 108.579 242.461 107.94 242.004C107.301 241.548 106.864 240.902 106.63 240.068L106.942 240.029V246.523H105.378V232.537H106.845V234.865L106.63 234.806C106.877 234.037 107.347 233.437 108.038 233.006C108.729 232.563 109.531 232.341 110.444 232.341C111.33 232.341 112.1 232.557 112.752 232.987C113.417 233.417 113.932 234.017 114.297 234.786C114.662 235.556 114.845 236.456 114.845 237.486C114.845 238.529 114.656 239.442 114.278 240.224C113.899 241.007 113.371 241.613 112.693 242.043C112.015 242.474 111.22 242.689 110.307 242.689ZM110.072 241.32C111.063 241.32 111.839 240.98 112.4 240.302C112.96 239.611 113.241 238.672 113.241 237.486C113.241 236.312 112.96 235.393 112.4 234.728C111.839 234.05 111.063 233.711 110.072 233.711C109.081 233.711 108.299 234.056 107.725 234.747C107.151 235.425 106.864 236.358 106.864 237.544C106.864 238.705 107.151 239.624 107.725 240.302C108.299 240.98 109.081 241.32 110.072 241.32ZM122.169 242.689C121.23 242.689 120.441 242.461 119.802 242.004C119.163 241.548 118.726 240.902 118.492 240.068L118.805 240.029V246.523H117.24V232.537H118.707V234.865L118.492 234.806C118.739 234.037 119.209 233.437 119.9 233.006C120.591 232.563 121.393 232.341 122.306 232.341C123.193 232.341 123.962 232.557 124.614 232.987C125.279 233.417 125.794 234.017 126.159 234.786C126.524 235.556 126.707 236.456 126.707 237.486C126.707 238.529 126.518 239.442 126.14 240.224C125.762 241.007 125.233 241.613 124.555 242.043C123.877 242.474 123.082 242.689 122.169 242.689ZM121.934 241.32C122.925 241.32 123.701 240.98 124.262 240.302C124.823 239.611 125.103 238.672 125.103 237.486C125.103 236.312 124.823 235.393 124.262 234.728C123.701 234.05 122.925 233.711 121.934 233.711C120.943 233.711 120.161 234.056 119.587 234.747C119.013 235.425 118.726 236.358 118.726 237.544C118.726 238.705 119.013 239.624 119.587 240.302C120.161 240.98 120.943 241.32 121.934 241.32ZM27.124 267.513V266.104H30.8991C32.0727 266.104 33.0833 265.87 33.931 265.4C34.7786 264.918 35.4306 264.246 35.887 263.386C36.3434 262.525 36.5716 261.527 36.5716 260.393C36.5716 259.271 36.3434 258.293 35.887 257.459C35.4306 256.624 34.7786 255.979 33.931 255.522C33.0964 255.066 32.0858 254.838 30.8991 254.838H27.124V253.429H30.8991C32.3727 253.429 33.6571 253.723 34.7525 254.31C35.8479 254.883 36.6955 255.698 37.2953 256.755C37.9082 257.798 38.2146 259.024 38.2146 260.432C38.2146 261.84 37.9082 263.079 37.2953 264.148C36.6824 265.205 35.8283 266.033 34.7329 266.632C33.6506 267.219 32.3792 267.513 30.9187 267.513H27.124ZM26.1656 267.513V253.429H27.7695V267.513H26.1656ZM44.7682 267.708C43.8163 267.708 42.9752 267.487 42.2449 267.043C41.5147 266.587 40.9409 265.967 40.5236 265.185C40.1064 264.403 39.8977 263.503 39.8977 262.486C39.8977 261.469 40.0998 260.575 40.5041 259.806C40.9214 259.024 41.5017 258.417 42.2449 257.987C42.9882 257.557 43.8424 257.341 44.8073 257.341C45.7332 257.341 46.5351 257.544 47.2132 257.948C47.9043 258.352 48.4325 258.919 48.7976 259.65C49.1758 260.38 49.3648 261.24 49.3648 262.231C49.3648 262.362 49.3583 262.486 49.3453 262.603C49.3453 262.72 49.3322 262.851 49.3062 262.994H41.0713V261.684H48.3477L47.8391 262.407C47.8391 261.208 47.5718 260.288 47.0372 259.65C46.5156 258.998 45.7723 258.672 44.8073 258.672C43.8163 258.672 43.0143 259.017 42.4014 259.708C41.8016 260.386 41.5017 261.306 41.5017 262.466C41.5017 263.653 41.8016 264.605 42.4014 265.322C43.0143 266.026 43.8293 266.378 44.8464 266.378C45.4854 266.378 46.0461 266.241 46.5286 265.967C47.0111 265.681 47.3632 265.276 47.5849 264.755H49.0714C48.7454 265.668 48.1978 266.391 47.4284 266.926C46.6721 267.447 45.7853 267.708 44.7682 267.708ZM54.4062 267.513L50.279 257.537H51.9611L55.4037 266.456H54.7778L58.2008 257.537H59.8048L55.6776 267.513H54.4062ZM65.57 267.708C64.6181 267.708 63.777 267.487 63.0467 267.043C62.3165 266.587 61.7427 265.967 61.3254 265.185C60.9081 264.403 60.6995 263.503 60.6995 262.486C60.6995 261.469 60.9016 260.575 61.3059 259.806C61.7231 259.024 62.3034 258.417 63.0467 257.987C63.79 257.557 64.6441 257.341 65.6091 257.341C66.5349 257.341 67.3369 257.544 68.015 257.948C68.7061 258.352 69.2342 258.919 69.5994 259.65C69.9775 260.38 70.1666 261.24 70.1666 262.231C70.1666 262.362 70.1601 262.486 70.1471 262.603C70.1471 262.72 70.134 262.851 70.1079 262.994H61.8731V261.684H69.1495L68.6409 262.407C68.6409 261.208 68.3736 260.288 67.839 259.65C67.3174 258.998 66.5741 258.672 65.6091 258.672C64.6181 258.672 63.8161 259.017 63.2032 259.708C62.6034 260.386 62.3034 261.306 62.3034 262.466C62.3034 263.653 62.6034 264.605 63.2032 265.322C63.8161 266.026 64.6311 266.378 65.6482 266.378C66.2872 266.378 66.8479 266.241 67.3304 265.967C67.8129 265.681 68.165 265.276 68.3866 264.755H69.8732C69.5472 265.668 68.9995 266.391 68.2302 266.926C67.4738 267.447 66.5871 267.708 65.57 267.708ZM72.5227 267.513V253.429H74.0875V267.513H72.5227ZM81.3685 267.708C80.3905 267.708 79.5298 267.48 78.7865 267.024C78.0432 266.567 77.463 265.948 77.0457 265.165C76.6414 264.37 76.4393 263.477 76.4393 262.486C76.4393 261.482 76.648 260.595 77.0652 259.826C77.4825 259.056 78.0563 258.45 78.7865 258.006C79.5298 257.563 80.3905 257.341 81.3685 257.341C82.3595 257.341 83.2202 257.563 83.9504 258.006C84.6937 258.45 85.2675 259.056 85.6717 259.826C86.089 260.595 86.2976 261.482 86.2976 262.486C86.2976 263.477 86.089 264.37 85.6717 265.165C85.2675 265.948 84.6937 266.567 83.9504 267.024C83.2202 267.48 82.3595 267.708 81.3685 267.708ZM81.3685 266.378C82.0466 266.378 82.6334 266.215 83.1289 265.889C83.6244 265.55 84.0091 265.087 84.2829 264.5C84.5568 263.914 84.6937 263.236 84.6937 262.466C84.6937 261.319 84.3873 260.399 83.7744 259.708C83.1745 259.017 82.3726 258.672 81.3685 258.672C80.3774 258.672 79.5755 259.017 78.9626 259.708C78.3497 260.399 78.0432 261.319 78.0432 262.466C78.0432 263.236 78.1802 263.914 78.454 264.5C78.7279 265.087 79.1125 265.55 79.6081 265.889C80.1166 266.215 80.7034 266.378 81.3685 266.378ZM93.5737 267.689C92.6348 267.689 91.8459 267.461 91.2069 267.004C90.568 266.548 90.1311 265.902 89.8964 265.068L90.2094 265.029V271.523H88.6445V257.537H90.1116V259.865L89.8964 259.806C90.1442 259.037 90.6136 258.437 91.3047 258.006C91.9959 257.563 92.7978 257.341 93.7106 257.341C94.5974 257.341 95.3667 257.557 96.0187 257.987C96.6838 258.417 97.1989 259.017 97.564 259.786C97.9291 260.556 98.1117 261.456 98.1117 262.486C98.1117 263.529 97.9226 264.442 97.5444 265.224C97.1663 266.007 96.6381 266.613 95.96 267.043C95.282 267.474 94.4865 267.689 93.5737 267.689ZM93.339 266.32C94.33 266.32 95.1059 265.98 95.6666 265.302C96.2274 264.611 96.5077 263.672 96.5077 262.486C96.5077 261.312 96.2274 260.393 95.6666 259.728C95.1059 259.05 94.33 258.711 93.339 258.711C92.3479 258.711 91.5655 259.056 90.9918 259.747C90.418 260.425 90.1311 261.358 90.1311 262.544C90.1311 263.705 90.418 264.624 90.9918 265.302C91.5655 265.98 92.3479 266.32 93.339 266.32ZM100.507 267.513V257.537H101.974V259.884H102.072V267.513H100.507ZM107.235 267.513V260.901C107.235 260.145 107.066 259.591 106.727 259.239C106.388 258.887 105.899 258.711 105.26 258.711C104.66 258.711 104.119 258.854 103.636 259.141C103.154 259.428 102.769 259.826 102.482 260.334C102.208 260.843 102.072 261.436 102.072 262.114L101.817 259.747C102.156 259.004 102.665 258.417 103.343 257.987C104.021 257.557 104.758 257.341 105.553 257.341C106.518 257.341 107.301 257.628 107.9 258.202C108.5 258.763 108.8 259.526 108.8 260.491V267.513H107.235ZM113.964 267.513V260.901C113.964 260.145 113.795 259.591 113.456 259.239C113.116 258.887 112.627 258.711 111.989 258.711C111.389 258.711 110.848 258.854 110.365 259.141C109.883 259.428 109.498 259.826 109.211 260.334C108.937 260.843 108.8 261.436 108.8 262.114L108.409 259.747C108.748 259.004 109.27 258.417 109.974 257.987C110.678 257.557 111.434 257.341 112.243 257.341C113.208 257.341 113.997 257.628 114.61 258.202C115.222 258.763 115.529 259.526 115.529 260.491V267.513H113.964ZM122.627 267.708C121.675 267.708 120.834 267.487 120.104 267.043C119.373 266.587 118.8 265.967 118.382 265.185C117.965 264.403 117.756 263.503 117.756 262.486C117.756 261.469 117.958 260.575 118.363 259.806C118.78 259.024 119.36 258.417 120.104 257.987C120.847 257.557 121.701 257.341 122.666 257.341C123.592 257.341 124.394 257.544 125.072 257.948C125.763 258.352 126.291 258.919 126.656 259.65C127.034 260.38 127.223 261.24 127.223 262.231C127.223 262.362 127.217 262.486 127.204 262.603C127.204 262.72 127.191 262.851 127.165 262.994H118.93V261.684H126.206L125.698 262.407C125.698 261.208 125.43 260.288 124.896 259.65C124.374 258.998 123.631 258.672 122.666 258.672C121.675 258.672 120.873 259.017 120.26 259.708C119.66 260.386 119.36 261.306 119.36 262.466C119.36 263.653 119.66 264.605 120.26 265.322C120.873 266.026 121.688 266.378 122.705 266.378C123.344 266.378 123.905 266.241 124.387 265.967C124.87 265.681 125.222 265.276 125.443 264.755H126.93C126.604 265.668 126.056 266.391 125.287 266.926C124.531 267.447 123.644 267.708 122.627 267.708ZM129.58 267.513V257.537H131.047V259.884H131.144V267.513H129.58ZM136.719 267.513V260.98C136.719 260.223 136.53 259.656 136.152 259.278C135.774 258.9 135.213 258.711 134.47 258.711C133.818 258.711 133.237 258.854 132.729 259.141C132.233 259.428 131.842 259.826 131.555 260.334C131.281 260.843 131.144 261.436 131.144 262.114L130.89 259.747C131.229 259.004 131.744 258.417 132.435 257.987C133.139 257.557 133.935 257.341 134.822 257.341C135.865 257.341 136.699 257.641 137.325 258.241C137.964 258.828 138.284 259.604 138.284 260.569V267.513H136.719ZM145.012 267.689C143.903 267.689 143.095 267.441 142.586 266.945C142.091 266.437 141.843 265.707 141.843 264.755V255.209L143.408 254.623V264.735C143.408 265.296 143.551 265.707 143.838 265.967C144.125 266.228 144.594 266.359 145.246 266.359C145.507 266.359 145.729 266.346 145.912 266.32C146.107 266.28 146.264 266.235 146.381 266.183V267.513C146.251 267.565 146.061 267.604 145.814 267.63C145.579 267.669 145.312 267.689 145.012 267.689ZM139.789 258.867V257.537H146.381V258.867H139.789Z" fill="white"/>
<path d="M25.3832 192.101C25.3832 189.962 25.8722 188.202 26.8502 186.82C27.8282 185.424 29.08 184.727 30.6057 184.727C32.1314 184.727 33.3833 185.424 34.3613 186.82C35.3393 188.202 35.8283 189.962 35.8283 192.101C35.8283 194.239 35.3393 196.006 34.3613 197.402C33.3833 198.784 32.1314 199.475 30.6057 199.475C29.08 199.475 27.8282 198.784 26.8502 197.402C25.8722 196.006 25.3832 194.239 25.3832 192.101ZM34.8307 192.101C34.8307 190.249 34.433 188.71 33.6376 187.485C32.8421 186.259 31.8315 185.646 30.6057 185.646C29.38 185.646 28.3694 186.259 27.5739 187.485C26.7785 188.71 26.3807 190.249 26.3807 192.101C26.3807 193.952 26.7785 195.491 27.5739 196.717C28.3694 197.943 29.38 198.556 30.6057 198.556C31.8315 198.556 32.8421 197.943 33.6376 196.717C34.433 195.491 34.8307 193.952 34.8307 192.101ZM43.6128 184.961H44.6886L38.5076 194.585H44.1996V190.868H45.158V194.585H48.0138V195.426H45.158V199.24H44.1996V195.426H36.9036L43.6128 184.961Z" fill="white"/>
</svg>
