<svg width="571" height="558" viewBox="0 0 571 558" fill="none" xmlns="http://www.w3.org/2000/svg">
<path d="M1.13428 557.465H539.884C556.454 557.465 569.884 544.033 569.884 527.465V11.0205H547.994C531.424 11.0205 517.994 24.4515 517.994 41.0205V164.211C517.994 180.779 504.564 194.211 487.994 194.211H471.884V235.332C471.884 251.116 459.084 263.911 443.304 263.911C427.524 263.911 414.724 276.707 414.724 292.491V342.848C414.724 359.417 401.294 372.848 384.724 372.848H275.009V415.349C275.009 431.918 261.578 445.349 245.009 445.349H31.1343C14.5653 445.349 1.13428 458.781 1.13428 475.349V557.465Z" fill="#003274" stroke="black"/>
<path d="M1.13428 547.465H539.884C556.454 547.465 569.884 534.033 569.884 517.465V1.02051H547.994C531.424 1.02051 517.994 14.4515 517.994 31.0205V154.211C517.994 170.779 504.564 184.211 487.994 184.211H471.884V225.332C471.884 241.116 459.084 253.911 443.304 253.911C427.524 253.911 414.724 266.707 414.724 282.491V332.848C414.724 349.417 401.294 362.848 384.724 362.848H275.009V405.349C275.009 421.918 261.578 435.349 245.009 435.349H31.1343C14.5653 435.349 1.13428 448.781 1.13428 465.349V547.465Z" fill="#1B45CE" stroke="black"/>
<path d="M292.01 409.497C292.01 406.602 292.672 404.22 293.996 402.349C295.319 400.461 297.014 399.517 299.078 399.517C301.143 399.517 302.837 400.461 304.161 402.349C305.485 404.22 306.146 406.602 306.146 409.497C306.146 412.391 305.485 414.782 304.161 416.671C302.837 418.541 301.143 419.477 299.078 419.477C297.014 419.477 295.319 418.541 293.996 416.671C292.672 414.782 292.01 412.391 292.01 409.497ZM304.796 409.497C304.796 406.991 304.258 404.908 303.182 403.249C302.105 401.59 300.737 400.761 299.078 400.761C297.419 400.761 296.052 401.59 294.975 403.249C293.899 404.908 293.36 406.991 293.36 409.497C293.36 412.003 293.899 414.085 294.975 415.744C296.052 417.403 297.419 418.233 299.078 418.233C300.737 418.233 302.105 417.403 303.182 415.744C304.258 414.085 304.796 412.003 304.796 409.497ZM319.223 401.052H311.917L311.043 407.273C313.549 407.132 315.579 407.617 317.132 408.729C318.703 409.823 319.488 411.403 319.488 413.468C319.488 415.215 318.853 416.653 317.582 417.783C316.329 418.912 314.758 419.477 312.87 419.477C311.935 419.477 311.034 419.344 310.17 419.08C309.305 418.797 308.537 418.4 307.867 417.889V416.3C308.52 416.918 309.278 417.403 310.143 417.756C311.026 418.091 311.935 418.259 312.87 418.259C314.352 418.259 315.605 417.8 316.629 416.883C317.653 415.965 318.164 414.827 318.164 413.468C318.164 411.65 317.379 410.3 315.808 409.417C314.238 408.517 312.199 408.217 309.693 408.517L310.831 399.834H319.223V401.052Z" fill="white"/>
<path d="M293.069 484.207V465.147H296.405L303.287 483.519H302.282L309.111 465.147H312.5V484.207H310.356V466.285H310.647L304.002 484.207H301.408L294.763 466.444H295.055V484.207H293.069ZM322.513 484.472C321.189 484.472 320.025 484.163 319.019 483.545C318.013 482.928 317.227 482.089 316.663 481.03C316.116 479.954 315.842 478.745 315.842 477.404C315.842 476.045 316.124 474.845 316.689 473.803C317.254 472.762 318.03 471.941 319.019 471.341C320.025 470.741 321.189 470.441 322.513 470.441C323.854 470.441 325.019 470.741 326.007 471.341C327.013 471.941 327.79 472.762 328.337 473.803C328.902 474.845 329.184 476.045 329.184 477.404C329.184 478.745 328.902 479.954 328.337 481.03C327.79 482.089 327.013 482.928 326.007 483.545C325.019 484.163 323.854 484.472 322.513 484.472ZM322.513 482.672C323.431 482.672 324.225 482.451 324.896 482.01C325.566 481.551 326.087 480.924 326.457 480.13C326.828 479.336 327.013 478.418 327.013 477.377C327.013 475.824 326.599 474.58 325.769 473.645C324.957 472.709 323.872 472.241 322.513 472.241C321.172 472.241 320.086 472.709 319.257 473.645C318.428 474.58 318.013 475.824 318.013 477.377C318.013 478.418 318.198 479.336 318.569 480.13C318.939 480.924 319.46 481.551 320.131 482.01C320.819 482.451 321.613 482.672 322.513 482.672ZM339.031 484.445C337.761 484.445 336.693 484.136 335.828 483.519C334.964 482.901 334.372 482.027 334.055 480.898L334.346 480.845V484.207H332.36V465.147H334.478V473.856L334.187 473.777C334.522 472.736 335.131 471.924 336.014 471.341C336.914 470.741 337.981 470.441 339.217 470.441C340.417 470.441 341.458 470.733 342.341 471.315C343.241 471.897 343.938 472.709 344.432 473.75C344.926 474.792 345.173 476.009 345.173 477.404C345.173 478.815 344.917 480.051 344.405 481.11C343.894 482.169 343.179 482.989 342.261 483.572C341.343 484.154 340.267 484.445 339.031 484.445ZM338.714 482.592C340.055 482.592 341.105 482.133 341.864 481.216C342.623 480.28 343.002 479.01 343.002 477.404C343.002 475.815 342.623 474.571 341.864 473.671C341.105 472.753 340.055 472.294 338.714 472.294C337.373 472.294 336.314 472.762 335.537 473.697C334.761 474.615 334.372 475.877 334.372 477.483C334.372 479.054 334.761 480.298 335.537 481.216C336.314 482.133 337.373 482.592 338.714 482.592ZM348.363 484.207V470.706H350.481V484.207H348.363ZM348.204 467.635V465.147H350.639V467.635H348.204ZM354.722 484.207V465.147H356.84V484.207H354.722ZM366.615 484.472C365.326 484.472 364.188 484.172 363.2 483.572C362.211 482.954 361.435 482.116 360.87 481.057C360.305 479.998 360.023 478.78 360.023 477.404C360.023 476.027 360.297 474.818 360.844 473.777C361.408 472.718 362.194 471.897 363.2 471.315C364.206 470.733 365.362 470.441 366.668 470.441C367.921 470.441 369.006 470.715 369.924 471.262C370.859 471.809 371.574 472.577 372.068 473.565C372.58 474.553 372.836 475.718 372.836 477.059C372.836 477.236 372.827 477.404 372.809 477.562C372.809 477.721 372.792 477.898 372.756 478.092H361.611V476.318H371.459L370.771 477.298C370.771 475.674 370.409 474.43 369.686 473.565C368.98 472.683 367.974 472.241 366.668 472.241C365.326 472.241 364.241 472.709 363.412 473.645C362.6 474.562 362.194 475.806 362.194 477.377C362.194 478.983 362.6 480.271 363.412 481.242C364.241 482.195 365.344 482.672 366.721 482.672C367.585 482.672 368.344 482.486 368.997 482.116C369.65 481.727 370.127 481.18 370.427 480.474H372.439C371.997 481.71 371.256 482.689 370.215 483.413C369.191 484.119 367.991 484.472 366.615 484.472ZM390.06 484.472C388.119 484.472 386.433 484.075 385.004 483.28C383.574 482.486 382.471 481.374 381.695 479.945C380.918 478.498 380.53 476.795 380.53 474.836C380.53 472.877 380.909 471.156 381.668 469.674C382.445 468.174 383.512 467 384.871 466.153C386.248 465.306 387.827 464.882 389.61 464.882C391.004 464.882 392.266 465.147 393.396 465.676C394.543 466.206 395.478 466.938 396.202 467.874C396.943 468.809 397.393 469.894 397.552 471.13H395.381C395.204 469.824 394.596 468.782 393.554 468.006C392.531 467.229 391.242 466.841 389.689 466.841C388.295 466.841 387.077 467.176 386.036 467.847C384.995 468.5 384.183 469.418 383.601 470.6C383.036 471.783 382.754 473.177 382.754 474.783C382.754 476.389 383.045 477.774 383.627 478.939C384.227 480.086 385.083 480.969 386.195 481.586C387.325 482.204 388.675 482.513 390.245 482.513C391.322 482.513 392.284 482.363 393.131 482.063C393.978 481.745 394.746 481.26 395.434 480.607L397.605 481.401C396.634 482.425 395.513 483.192 394.243 483.704C392.99 484.216 391.595 484.472 390.06 484.472ZM395.434 481.401V475.233L396.255 476.054H390.219V474.148H397.605V481.401H395.434ZM409.671 484.207C409.601 483.907 409.548 483.563 409.512 483.175C409.495 482.786 409.486 482.292 409.486 481.692H409.353V475.233C409.353 474.209 409.115 473.459 408.639 472.983C408.18 472.489 407.43 472.241 406.389 472.241C405.365 472.241 404.544 472.453 403.927 472.877C403.327 473.283 402.991 473.865 402.921 474.624H400.882C400.97 473.318 401.518 472.294 402.524 471.553C403.529 470.812 404.844 470.441 406.468 470.441C408.145 470.441 409.389 470.838 410.201 471.633C411.012 472.427 411.418 473.618 411.418 475.206V481.692C411.418 482.08 411.445 482.486 411.498 482.91C411.551 483.316 411.621 483.748 411.709 484.207H409.671ZM405.038 484.472C403.644 484.472 402.532 484.136 401.703 483.466C400.891 482.778 400.485 481.842 400.485 480.66C400.485 479.477 400.891 478.56 401.703 477.907C402.515 477.254 403.697 476.795 405.25 476.53L409.962 475.736V477.483L405.568 478.171C404.58 478.33 403.83 478.595 403.318 478.965C402.806 479.336 402.55 479.874 402.55 480.58C402.55 481.269 402.779 481.789 403.238 482.142C403.715 482.495 404.412 482.672 405.33 482.672C406.512 482.672 407.474 482.407 408.215 481.877C408.974 481.33 409.353 480.624 409.353 479.76L409.698 481.639C409.415 482.539 408.859 483.236 408.03 483.731C407.218 484.225 406.221 484.472 405.038 484.472ZM415.5 484.207V470.706H417.486V473.883H417.618V484.207H415.5ZM424.607 484.207V475.259C424.607 474.236 424.378 473.486 423.919 473.009C423.46 472.533 422.798 472.294 421.933 472.294C421.121 472.294 420.389 472.489 419.736 472.877C419.083 473.265 418.562 473.803 418.174 474.492C417.804 475.18 417.618 475.983 417.618 476.901L417.274 473.697C417.733 472.692 418.421 471.897 419.339 471.315C420.257 470.733 421.254 470.441 422.33 470.441C423.636 470.441 424.695 470.83 425.507 471.606C426.319 472.365 426.725 473.397 426.725 474.703V484.207H424.607ZM433.713 484.207V475.259C433.713 474.236 433.484 473.486 433.025 473.009C432.566 472.533 431.905 472.294 431.04 472.294C430.228 472.294 429.496 472.489 428.843 472.877C428.19 473.265 427.669 473.803 427.281 474.492C426.91 475.18 426.725 475.983 426.725 476.901L426.195 473.697C426.654 472.692 427.36 471.897 428.313 471.315C429.266 470.733 430.29 470.441 431.384 470.441C432.69 470.441 433.758 470.83 434.587 471.606C435.417 472.365 435.831 473.397 435.831 474.703V484.207H433.713ZM445.437 484.472C444.149 484.472 443.011 484.172 442.022 483.572C441.034 482.954 440.258 482.116 439.693 481.057C439.128 479.998 438.846 478.78 438.846 477.404C438.846 476.027 439.119 474.818 439.666 473.777C440.231 472.718 441.017 471.897 442.022 471.315C443.028 470.733 444.184 470.441 445.49 470.441C446.743 470.441 447.829 470.715 448.746 471.262C449.682 471.809 450.397 472.577 450.891 473.565C451.403 474.553 451.658 475.718 451.658 477.059C451.658 477.236 451.65 477.404 451.632 477.562C451.632 477.721 451.614 477.898 451.579 478.092H440.434V476.318H450.282L449.594 477.298C449.594 475.674 449.232 474.43 448.508 473.565C447.802 472.683 446.796 472.241 445.49 472.241C444.149 472.241 443.064 472.709 442.234 473.645C441.422 474.562 441.017 475.806 441.017 477.377C441.017 478.983 441.422 480.271 442.234 481.242C443.064 482.195 444.167 482.672 445.543 482.672C446.408 482.672 447.167 482.486 447.82 482.116C448.473 481.727 448.949 481.18 449.249 480.474H451.261C450.82 481.71 450.079 482.689 449.038 483.413C448.014 484.119 446.814 484.472 445.437 484.472ZM458.982 484.207L466.341 465.147H468.247L461.073 484.207H458.982ZM474.124 484.207L466.95 465.147H468.989L476.348 484.207H474.124ZM462.635 476.504H472.589V478.41H462.635V476.504ZM486.078 484.445C484.807 484.445 483.739 484.136 482.874 483.519C482.01 482.901 481.418 482.027 481.101 480.898L481.524 480.845V489.634H479.407V470.706H481.392V473.856L481.101 473.777C481.436 472.736 482.071 471.924 483.007 471.341C483.942 470.741 485.028 470.441 486.263 470.441C487.463 470.441 488.504 470.733 489.387 471.315C490.287 471.897 490.984 472.709 491.478 473.75C491.972 474.792 492.219 476.009 492.219 477.404C492.219 478.815 491.963 480.051 491.451 481.11C490.94 482.169 490.225 482.989 489.307 483.572C488.39 484.154 487.313 484.445 486.078 484.445ZM485.76 482.592C487.101 482.592 488.151 482.133 488.91 481.216C489.669 480.28 490.048 479.01 490.048 477.404C490.048 475.815 489.669 474.571 488.91 473.671C488.151 472.753 487.101 472.294 485.76 472.294C484.419 472.294 483.36 472.762 482.583 473.697C481.807 474.615 481.418 475.877 481.418 477.483C481.418 479.054 481.807 480.298 482.583 481.216C483.36 482.133 484.419 482.592 485.76 482.592ZM502.132 484.445C500.861 484.445 499.793 484.136 498.929 483.519C498.064 482.901 497.473 482.027 497.155 480.898L497.578 480.845V489.634H495.461V470.706H497.446V473.856L497.155 473.777C497.49 472.736 498.126 471.924 499.061 471.341C499.996 470.741 501.082 470.441 502.317 470.441C503.517 470.441 504.558 470.733 505.441 471.315C506.341 471.897 507.038 472.709 507.532 473.75C508.026 474.792 508.273 476.009 508.273 477.404C508.273 478.815 508.017 480.051 507.506 481.11C506.994 482.169 506.279 482.989 505.361 483.572C504.444 484.154 503.367 484.445 502.132 484.445ZM501.814 482.592C503.155 482.592 504.205 482.133 504.964 481.216C505.723 480.28 506.103 479.01 506.103 477.404C506.103 475.815 505.723 474.571 504.964 473.671C504.205 472.753 503.155 472.294 501.814 472.294C500.473 472.294 499.414 472.762 498.637 473.697C497.861 474.615 497.473 475.877 497.473 477.483C497.473 479.054 497.861 480.298 498.637 481.216C499.414 482.133 500.473 482.592 501.814 482.592ZM294.366 518.207V516.301H299.475C301.064 516.301 302.432 515.983 303.579 515.348C304.726 514.695 305.608 513.786 306.226 512.621C306.844 511.457 307.152 510.106 307.152 508.571C307.152 507.053 306.844 505.73 306.226 504.6C305.608 503.471 304.726 502.597 303.579 501.979C302.449 501.362 301.081 501.053 299.475 501.053H294.366V499.147H299.475C301.47 499.147 303.208 499.544 304.691 500.338C306.173 501.115 307.32 502.218 308.132 503.647C308.961 505.059 309.376 506.718 309.376 508.624C309.376 510.53 308.961 512.207 308.132 513.654C307.302 515.083 306.146 516.204 304.664 517.016C303.199 517.81 301.479 518.207 299.502 518.207H294.366ZM293.069 518.207V499.147H295.24V518.207H293.069ZM318.246 518.472C316.957 518.472 315.819 518.172 314.831 517.572C313.842 516.954 313.066 516.116 312.501 515.057C311.936 513.998 311.654 512.78 311.654 511.404C311.654 510.027 311.928 508.818 312.475 507.777C313.039 506.718 313.825 505.897 314.831 505.315C315.837 504.733 316.993 504.441 318.299 504.441C319.552 504.441 320.637 504.715 321.555 505.262C322.49 505.809 323.205 506.577 323.699 507.565C324.211 508.553 324.467 509.718 324.467 511.059C324.467 511.236 324.458 511.404 324.44 511.562C324.44 511.721 324.423 511.898 324.387 512.092H313.242V510.318H323.09L322.402 511.298C322.402 509.674 322.04 508.43 321.316 507.565C320.611 506.683 319.605 506.241 318.299 506.241C316.957 506.241 315.872 506.709 315.042 507.645C314.231 508.562 313.825 509.806 313.825 511.377C313.825 512.983 314.231 514.271 315.042 515.242C315.872 516.195 316.975 516.672 318.352 516.672C319.216 516.672 319.975 516.486 320.628 516.116C321.281 515.727 321.758 515.18 322.058 514.474H324.07C323.628 515.71 322.887 516.689 321.846 517.413C320.822 518.119 319.622 518.472 318.246 518.472ZM331.29 518.207L325.704 504.706H327.98L332.64 516.778H331.792L336.425 504.706H338.596L333.01 518.207H331.29ZM346.398 518.472C345.11 518.472 343.972 518.172 342.984 517.572C341.995 516.954 341.219 516.116 340.654 515.057C340.089 513.998 339.807 512.78 339.807 511.404C339.807 510.027 340.08 508.818 340.627 507.777C341.192 506.718 341.978 505.897 342.984 505.315C343.989 504.733 345.145 504.441 346.451 504.441C347.704 504.441 348.79 504.715 349.708 505.262C350.643 505.809 351.358 506.577 351.852 507.565C352.364 508.553 352.619 509.718 352.619 511.059C352.619 511.236 352.611 511.404 352.593 511.562C352.593 511.721 352.575 511.898 352.54 512.092H341.395V510.318H351.243L350.555 511.298C350.555 509.674 350.193 508.43 349.469 507.565C348.763 506.683 347.757 506.241 346.451 506.241C345.11 506.241 344.025 506.709 343.195 507.645C342.383 508.562 341.978 509.806 341.978 511.377C341.978 512.983 342.383 514.271 343.195 515.242C344.025 516.195 345.128 516.672 346.504 516.672C347.369 516.672 348.128 516.486 348.781 516.116C349.434 515.727 349.91 515.18 350.21 514.474H352.222C351.781 515.71 351.04 516.689 349.999 517.413C348.975 518.119 347.775 518.472 346.398 518.472ZM355.808 518.207V499.147H357.926V518.207H355.808ZM367.78 518.472C366.456 518.472 365.292 518.163 364.286 517.545C363.28 516.928 362.494 516.089 361.93 515.03C361.382 513.954 361.109 512.745 361.109 511.404C361.109 510.045 361.391 508.845 361.956 507.803C362.521 506.762 363.297 505.941 364.286 505.341C365.292 504.741 366.456 504.441 367.78 504.441C369.121 504.441 370.286 504.741 371.274 505.341C372.28 505.941 373.057 506.762 373.604 507.803C374.169 508.845 374.451 510.045 374.451 511.404C374.451 512.745 374.169 513.954 373.604 515.03C373.057 516.089 372.28 516.928 371.274 517.545C370.286 518.163 369.121 518.472 367.78 518.472ZM367.78 516.672C368.698 516.672 369.492 516.451 370.162 516.01C370.833 515.551 371.354 514.924 371.724 514.13C372.095 513.336 372.28 512.418 372.28 511.377C372.28 509.824 371.865 508.58 371.036 507.645C370.224 506.709 369.139 506.241 367.78 506.241C366.439 506.241 365.353 506.709 364.524 507.645C363.694 508.58 363.28 509.824 363.28 511.377C363.28 512.418 363.465 513.336 363.836 514.13C364.206 514.924 364.727 515.551 365.397 516.01C366.086 516.451 366.88 516.672 367.78 516.672ZM384.298 518.445C383.028 518.445 381.96 518.136 381.095 517.519C380.23 516.901 379.639 516.027 379.321 514.898L379.745 514.845V523.634H377.627V504.706H379.613V507.856L379.321 507.777C379.657 506.736 380.292 505.924 381.227 505.341C382.163 504.741 383.248 504.441 384.484 504.441C385.684 504.441 386.725 504.733 387.607 505.315C388.507 505.897 389.205 506.709 389.699 507.75C390.193 508.792 390.44 510.009 390.44 511.404C390.44 512.815 390.184 514.051 389.672 515.11C389.16 516.169 388.446 516.989 387.528 517.572C386.61 518.154 385.534 518.445 384.298 518.445ZM383.981 516.592C385.322 516.592 386.372 516.133 387.131 515.216C387.89 514.28 388.269 513.01 388.269 511.404C388.269 509.815 387.89 508.571 387.131 507.671C386.372 506.753 385.322 506.294 383.981 506.294C382.639 506.294 381.58 506.762 380.804 507.697C380.027 508.615 379.639 509.877 379.639 511.483C379.639 513.054 380.027 514.298 380.804 515.216C381.58 516.133 382.639 516.592 383.981 516.592ZM393.681 518.207V504.706H395.667V507.883H395.799V518.207H393.681ZM402.788 518.207V509.259C402.788 508.236 402.558 507.486 402.1 507.009C401.641 506.533 400.979 506.294 400.114 506.294C399.302 506.294 398.57 506.489 397.917 506.877C397.264 507.265 396.743 507.803 396.355 508.492C395.984 509.18 395.799 509.983 395.799 510.901L395.455 507.697C395.914 506.692 396.602 505.897 397.52 505.315C398.438 504.733 399.435 504.441 400.511 504.441C401.817 504.441 402.876 504.83 403.688 505.606C404.5 506.365 404.906 507.397 404.906 508.703V518.207H402.788ZM411.894 518.207V509.259C411.894 508.236 411.665 507.486 411.206 507.009C410.747 506.533 410.085 506.294 409.221 506.294C408.409 506.294 407.676 506.489 407.023 506.877C406.37 507.265 405.85 507.803 405.462 508.492C405.091 509.18 404.906 509.983 404.906 510.901L404.376 507.697C404.835 506.692 405.541 505.897 406.494 505.315C407.447 504.733 408.471 504.441 409.565 504.441C410.871 504.441 411.938 504.83 412.768 505.606C413.597 506.365 414.012 507.397 414.012 508.703V518.207H411.894ZM423.618 518.472C422.33 518.472 421.192 518.172 420.203 517.572C419.215 516.954 418.439 516.116 417.874 515.057C417.309 513.998 417.027 512.78 417.027 511.404C417.027 510.027 417.3 508.818 417.847 507.777C418.412 506.718 419.197 505.897 420.203 505.315C421.209 504.733 422.365 504.441 423.671 504.441C424.924 504.441 426.01 504.715 426.927 505.262C427.863 505.809 428.578 506.577 429.072 507.565C429.583 508.553 429.839 509.718 429.839 511.059C429.839 511.236 429.831 511.404 429.813 511.562C429.813 511.721 429.795 511.898 429.76 512.092H418.615V510.318H428.463L427.775 511.298C427.775 509.674 427.413 508.43 426.689 507.565C425.983 506.683 424.977 506.241 423.671 506.241C422.33 506.241 421.245 506.709 420.415 507.645C419.603 508.562 419.197 509.806 419.197 511.377C419.197 512.983 419.603 514.271 420.415 515.242C421.245 516.195 422.348 516.672 423.724 516.672C424.589 516.672 425.348 516.486 426.001 516.116C426.654 515.727 427.13 515.18 427.43 514.474H429.442C429.001 515.71 428.26 516.689 427.219 517.413C426.195 518.119 424.995 518.472 423.618 518.472ZM433.028 518.207V504.706H435.014V507.883H435.146V518.207H433.028ZM442.691 518.207V509.365C442.691 508.342 442.435 507.574 441.923 507.062C441.411 506.55 440.652 506.294 439.646 506.294C438.764 506.294 437.978 506.489 437.29 506.877C436.62 507.265 436.09 507.803 435.702 508.492C435.331 509.18 435.146 509.983 435.146 510.901L434.802 507.697C435.261 506.692 435.958 505.897 436.893 505.315C437.846 504.733 438.923 504.441 440.123 504.441C441.535 504.441 442.664 504.847 443.511 505.659C444.376 506.453 444.808 507.503 444.808 508.809V518.207H442.691ZM453.914 518.445C452.414 518.445 451.319 518.11 450.631 517.439C449.961 516.751 449.625 515.763 449.625 514.474V501.556L451.743 500.762V514.448C451.743 515.207 451.937 515.763 452.325 516.116C452.714 516.469 453.349 516.645 454.231 516.645C454.584 516.645 454.884 516.628 455.132 516.592C455.396 516.539 455.608 516.477 455.767 516.407V518.207C455.59 518.278 455.334 518.331 454.999 518.366C454.681 518.419 454.32 518.445 453.914 518.445ZM446.846 506.506V504.706H455.767V506.506H446.846Z" fill="white"/>
</svg>
