<svg width="289" height="559" viewBox="0 0 289 559" fill="none" xmlns="http://www.w3.org/2000/svg">
<path d="M0.84668 557.731H258.347C266.303 557.731 273.934 554.57 279.56 548.944C285.186 543.318 288.347 535.687 288.347 527.731V11.3408C281.39 11.3408 274.718 14.1043 269.799 19.0234C264.88 23.9425 262.117 30.6142 262.117 37.5708V171.171C262.117 177.353 259.661 183.282 255.289 187.653C250.918 192.025 244.989 194.481 238.807 194.481V249.731C238.807 253.563 237.284 257.239 234.574 259.949C231.865 262.658 228.189 264.181 224.357 264.181C222.459 264.181 220.581 264.555 218.828 265.281C217.076 266.007 215.484 267.072 214.143 268.414C212.802 269.756 211.738 271.349 211.013 273.102C210.288 274.855 209.915 276.734 209.917 278.631V343.121C209.917 351.077 206.756 358.708 201.13 364.334C195.504 369.96 187.873 373.121 179.917 373.121H139.287V415.621C139.287 423.577 136.126 431.208 130.5 436.834C124.874 442.46 117.243 445.621 109.287 445.621H30.8467C22.8902 445.621 15.2596 448.782 9.63348 454.408C4.00739 460.034 0.84668 467.664 0.84668 475.621V557.731Z" fill="#C8E4FF" stroke="black"/>
<path d="M0.84668 547.731H258.347C266.303 547.731 273.934 544.57 279.56 538.944C285.186 533.318 288.347 525.687 288.347 517.731V1.34082C281.39 1.34082 274.718 4.10433 269.799 9.02341C264.88 13.9425 262.117 20.6142 262.117 27.5708V161.171C262.117 167.353 259.661 173.282 255.289 177.653C250.918 182.025 244.989 184.481 238.807 184.481V239.731C238.807 243.563 237.284 247.239 234.574 249.949C231.865 252.658 228.189 254.181 224.357 254.181C222.459 254.181 220.581 254.555 218.828 255.281C217.076 256.007 215.484 257.072 214.143 258.414C212.802 259.756 211.738 261.349 211.013 263.102C210.288 264.855 209.915 266.734 209.917 268.631V333.121C209.917 337.06 209.141 340.962 207.633 344.601C206.125 348.241 203.916 351.548 201.13 354.334C198.344 357.12 195.037 359.33 191.397 360.837C187.757 362.345 183.856 363.121 179.917 363.121H139.287V405.621C139.287 413.577 136.126 421.208 130.5 426.834C124.874 432.46 117.243 435.621 109.287 435.621H30.8467C22.8902 435.621 15.2596 438.782 9.63348 444.408C4.00739 450.034 0.84668 457.664 0.84668 465.621V547.731Z" fill="#C8E4FF" stroke="black"/>
<path d="M105.577 507.952V493.869H108.041L113.127 507.444H112.384L117.43 493.869H119.934V507.952H118.349V494.71H118.565L113.655 507.952H111.738L106.829 494.827H107.044V507.952H105.577ZM127.332 508.148C126.354 508.148 125.494 507.92 124.751 507.463C124.007 507.007 123.427 506.387 123.01 505.605C122.605 504.809 122.403 503.916 122.403 502.925C122.403 501.921 122.612 501.034 123.029 500.265C123.447 499.496 124.02 498.889 124.751 498.446C125.494 498.003 126.354 497.781 127.332 497.781C128.324 497.781 129.184 498.003 129.914 498.446C130.658 498.889 131.231 499.496 131.636 500.265C132.053 501.034 132.262 501.921 132.262 502.925C132.262 503.916 132.053 504.809 131.636 505.605C131.231 506.387 130.658 507.007 129.914 507.463C129.184 507.92 128.324 508.148 127.332 508.148ZM127.332 506.818C128.011 506.818 128.597 506.655 129.093 506.329C129.588 505.99 129.973 505.527 130.247 504.94C130.521 504.353 130.658 503.675 130.658 502.906C130.658 501.758 130.351 500.839 129.738 500.148C129.139 499.457 128.337 499.111 127.332 499.111C126.341 499.111 125.539 499.457 124.927 500.148C124.314 500.839 124.007 501.758 124.007 502.906C124.007 503.675 124.144 504.353 124.418 504.94C124.692 505.527 125.077 505.99 125.572 506.329C126.081 506.655 126.667 506.818 127.332 506.818ZM139.538 508.128C138.599 508.128 137.81 507.9 137.171 507.444C136.532 506.987 136.095 506.342 135.86 505.507L136.076 505.468V507.952H134.609V493.869H136.173V500.304L135.958 500.245C136.206 499.476 136.656 498.876 137.308 498.446C137.973 498.003 138.762 497.781 139.675 497.781C140.561 497.781 141.331 497.996 141.983 498.426C142.648 498.857 143.163 499.457 143.528 500.226C143.893 500.995 144.076 501.895 144.076 502.925C144.076 503.968 143.887 504.881 143.508 505.664C143.13 506.446 142.602 507.052 141.924 507.483C141.246 507.913 140.451 508.128 139.538 508.128ZM139.303 506.759C140.294 506.759 141.07 506.42 141.631 505.742C142.191 505.051 142.472 504.112 142.472 502.925C142.472 501.752 142.191 500.832 141.631 500.167C141.07 499.489 140.294 499.15 139.303 499.15C138.312 499.15 137.53 499.496 136.956 500.187C136.382 500.865 136.095 501.797 136.095 502.984C136.095 504.144 136.382 505.064 136.956 505.742C137.53 506.42 138.312 506.759 139.303 506.759ZM146.433 507.952V497.976H147.997V507.952H146.433ZM146.315 495.707V493.869H148.115V495.707H146.315ZM151.132 507.952V493.869H152.696V507.952H151.132ZM159.919 508.148C158.967 508.148 158.126 507.926 157.395 507.483C156.665 507.026 156.091 506.407 155.674 505.624C155.257 504.842 155.048 503.942 155.048 502.925C155.048 501.908 155.25 501.015 155.655 500.245C156.072 499.463 156.652 498.857 157.395 498.426C158.139 497.996 158.993 497.781 159.958 497.781C160.884 497.781 161.686 497.983 162.364 498.387C163.055 498.791 163.583 499.359 163.948 500.089C164.326 500.819 164.515 501.68 164.515 502.671C164.515 502.801 164.509 502.925 164.496 503.043C164.496 503.16 164.483 503.29 164.457 503.434H156.222V502.123H163.498L162.99 502.847C162.99 501.647 162.722 500.728 162.188 500.089C161.666 499.437 160.923 499.111 159.958 499.111C158.967 499.111 158.165 499.457 157.552 500.148C156.952 500.826 156.652 501.745 156.652 502.906C156.652 504.092 156.952 505.044 157.552 505.761C158.165 506.466 158.98 506.818 159.997 506.818C160.636 506.818 161.197 506.681 161.679 506.407C162.162 506.12 162.514 505.716 162.735 505.194H164.222C163.896 506.107 163.348 506.831 162.579 507.365C161.823 507.887 160.936 508.148 159.919 508.148ZM177.242 508.148C175.808 508.148 174.562 507.854 173.506 507.268C172.45 506.681 171.635 505.859 171.061 504.803C170.487 503.734 170.2 502.475 170.2 501.028C170.2 499.58 170.481 498.309 171.042 497.214C171.615 496.105 172.404 495.238 173.408 494.612C174.425 493.986 175.593 493.673 176.91 493.673C177.94 493.673 178.872 493.869 179.707 494.26C180.554 494.651 181.245 495.192 181.78 495.884C182.328 496.575 182.66 497.377 182.778 498.289H181.174C181.043 497.324 180.593 496.555 179.824 495.981C179.068 495.408 178.116 495.121 176.968 495.121C175.938 495.121 175.038 495.368 174.269 495.864C173.5 496.346 172.9 497.025 172.469 497.898C172.052 498.772 171.843 499.802 171.843 500.989C171.843 502.175 172.059 503.199 172.489 504.06C172.932 504.907 173.565 505.559 174.386 506.016C175.221 506.472 176.218 506.7 177.379 506.7C178.174 506.7 178.885 506.589 179.511 506.368C180.137 506.133 180.704 505.774 181.213 505.292L182.817 505.879C182.1 506.635 181.271 507.202 180.333 507.581C179.407 507.959 178.377 508.148 177.242 508.148ZM181.213 505.879V501.321L181.819 501.928H177.359V500.519H182.817V505.879H181.213ZM191.732 507.952C191.68 507.73 191.641 507.476 191.615 507.189C191.602 506.902 191.596 506.537 191.596 506.094H191.498V501.321C191.498 500.565 191.322 500.011 190.97 499.659C190.631 499.294 190.076 499.111 189.307 499.111C188.551 499.111 187.944 499.267 187.488 499.58C187.045 499.88 186.797 500.311 186.745 500.871H185.239C185.304 499.906 185.708 499.15 186.451 498.602C187.195 498.055 188.166 497.781 189.366 497.781C190.605 497.781 191.524 498.074 192.124 498.661C192.724 499.248 193.023 500.128 193.023 501.302V506.094C193.023 506.381 193.043 506.681 193.082 506.994C193.121 507.294 193.173 507.613 193.239 507.952H191.732ZM188.309 508.148C187.279 508.148 186.458 507.9 185.845 507.404C185.245 506.896 184.945 506.205 184.945 505.331C184.945 504.457 185.245 503.779 185.845 503.297C186.445 502.814 187.318 502.475 188.466 502.28L191.948 501.693V502.984L188.701 503.492C187.97 503.61 187.416 503.805 187.038 504.079C186.66 504.353 186.471 504.751 186.471 505.272C186.471 505.781 186.64 506.166 186.979 506.426C187.331 506.687 187.847 506.818 188.525 506.818C189.398 506.818 190.109 506.622 190.657 506.231C191.217 505.827 191.498 505.305 191.498 504.666L191.752 506.055C191.543 506.72 191.133 507.235 190.52 507.6C189.92 507.965 189.183 508.148 188.309 508.148ZM196.04 507.952V497.976H197.507V500.324H197.605V507.952H196.04ZM202.768 507.952V501.341C202.768 500.584 202.599 500.03 202.26 499.678C201.921 499.326 201.432 499.15 200.793 499.15C200.193 499.15 199.652 499.294 199.169 499.58C198.687 499.867 198.302 500.265 198.015 500.774C197.741 501.282 197.605 501.875 197.605 502.554L197.35 500.187C197.689 499.443 198.198 498.857 198.876 498.426C199.554 497.996 200.291 497.781 201.086 497.781C202.051 497.781 202.834 498.068 203.433 498.642C204.033 499.202 204.333 499.965 204.333 500.93V507.952H202.768ZM209.497 507.952V501.341C209.497 500.584 209.328 500.03 208.989 499.678C208.649 499.326 208.16 499.15 207.522 499.15C206.922 499.15 206.381 499.294 205.898 499.58C205.416 499.867 205.031 500.265 204.744 500.774C204.47 501.282 204.333 501.875 204.333 502.554L203.942 500.187C204.281 499.443 204.803 498.857 205.507 498.426C206.211 497.996 206.967 497.781 207.776 497.781C208.741 497.781 209.53 498.068 210.143 498.642C210.755 499.202 211.062 499.965 211.062 500.93V507.952H209.497ZM218.16 508.148C217.208 508.148 216.367 507.926 215.637 507.483C214.906 507.026 214.333 506.407 213.915 505.624C213.498 504.842 213.289 503.942 213.289 502.925C213.289 501.908 213.491 501.015 213.896 500.245C214.313 499.463 214.893 498.857 215.637 498.426C216.38 497.996 217.234 497.781 218.199 497.781C219.125 497.781 219.927 497.983 220.605 498.387C221.296 498.791 221.824 499.359 222.189 500.089C222.567 500.819 222.756 501.68 222.756 502.671C222.756 502.801 222.75 502.925 222.737 503.043C222.737 503.16 222.724 503.29 222.698 503.434H214.463V502.123H221.739L221.231 502.847C221.231 501.647 220.963 500.728 220.429 500.089C219.907 499.437 219.164 499.111 218.199 499.111C217.208 499.111 216.406 499.457 215.793 500.148C215.193 500.826 214.893 501.745 214.893 502.906C214.893 504.092 215.193 505.044 215.793 505.761C216.406 506.466 217.221 506.818 218.238 506.818C218.877 506.818 219.438 506.681 219.92 506.407C220.403 506.12 220.755 505.716 220.976 505.194H222.463C222.137 506.107 221.589 506.831 220.82 507.365C220.064 507.887 219.177 508.148 218.16 508.148ZM228.168 507.952L233.605 493.869H235.014L229.713 507.952H228.168ZM239.356 507.952L234.055 493.869H235.561L240.999 507.952H239.356ZM230.867 502.26H238.222V503.668H230.867V502.26ZM248.188 508.128C247.249 508.128 246.46 507.9 245.822 507.444C245.183 506.987 244.746 506.342 244.511 505.507L244.824 505.468V511.962H243.259V497.976H244.726V500.304L244.511 500.245C244.759 499.476 245.228 498.876 245.919 498.446C246.61 498.003 247.412 497.781 248.325 497.781C249.212 497.781 249.981 497.996 250.633 498.426C251.298 498.857 251.813 499.457 252.179 500.226C252.544 500.995 252.726 501.895 252.726 502.925C252.726 503.968 252.537 504.881 252.159 505.664C251.781 506.446 251.253 507.052 250.575 507.483C249.897 507.913 249.101 508.128 248.188 508.128ZM247.954 506.759C248.945 506.759 249.721 506.42 250.281 505.742C250.842 505.051 251.122 504.112 251.122 502.925C251.122 501.752 250.842 500.832 250.281 500.167C249.721 499.489 248.945 499.15 247.954 499.15C246.963 499.15 246.18 499.496 245.606 500.187C245.033 500.865 244.746 501.797 244.746 502.984C244.746 504.144 245.033 505.064 245.606 505.742C246.18 506.42 246.963 506.759 247.954 506.759ZM260.05 508.128C259.112 508.128 258.323 507.9 257.684 507.444C257.045 506.987 256.608 506.342 256.373 505.507L256.686 505.468V511.962H255.121V497.976H256.588V500.304L256.373 500.245C256.621 499.476 257.09 498.876 257.782 498.446C258.473 498.003 259.275 497.781 260.187 497.781C261.074 497.781 261.844 497.996 262.496 498.426C263.161 498.857 263.676 499.457 264.041 500.226C264.406 500.995 264.588 501.895 264.588 502.925C264.588 503.968 264.399 504.881 264.021 505.664C263.643 506.446 263.115 507.052 262.437 507.483C261.759 507.913 260.963 508.128 260.05 508.128ZM259.816 506.759C260.807 506.759 261.583 506.42 262.143 505.742C262.704 505.051 262.985 504.112 262.985 502.925C262.985 501.752 262.704 500.832 262.143 500.167C261.583 499.489 260.807 499.15 259.816 499.15C258.825 499.15 258.042 499.496 257.469 500.187C256.895 500.865 256.608 501.797 256.608 502.984C256.608 504.144 256.895 505.064 257.469 505.742C258.042 506.42 258.825 506.759 259.816 506.759ZM106.535 532.952V531.544H110.31C111.484 531.544 112.494 531.309 113.342 530.84C114.19 530.357 114.842 529.686 115.298 528.825C115.755 527.964 115.983 526.967 115.983 525.832C115.983 524.711 115.755 523.733 115.298 522.898C114.842 522.064 114.19 521.418 113.342 520.962C112.508 520.505 111.497 520.277 110.31 520.277H106.535V518.869H110.31C111.784 518.869 113.068 519.162 114.164 519.749C115.259 520.323 116.107 521.138 116.706 522.194C117.319 523.237 117.626 524.463 117.626 525.871C117.626 527.28 117.319 528.519 116.706 529.588C116.094 530.644 115.239 531.472 114.144 532.072C113.062 532.659 111.79 532.952 110.33 532.952H106.535ZM105.577 532.952V518.869H107.181V532.952H105.577ZM124.179 533.148C123.227 533.148 122.386 532.926 121.656 532.483C120.926 532.026 120.352 531.407 119.935 530.624C119.517 529.842 119.309 528.942 119.309 527.925C119.309 526.908 119.511 526.015 119.915 525.245C120.333 524.463 120.913 523.857 121.656 523.426C122.399 522.996 123.253 522.781 124.218 522.781C125.144 522.781 125.946 522.983 126.624 523.387C127.315 523.791 127.844 524.359 128.209 525.089C128.587 525.819 128.776 526.68 128.776 527.671C128.776 527.801 128.769 527.925 128.756 528.043C128.756 528.16 128.743 528.29 128.717 528.434H120.482V527.123H127.759L127.25 527.847C127.25 526.647 126.983 525.728 126.448 525.089C125.927 524.437 125.183 524.111 124.218 524.111C123.227 524.111 122.425 524.457 121.813 525.148C121.213 525.826 120.913 526.745 120.913 527.906C120.913 529.092 121.213 530.044 121.813 530.761C122.425 531.466 123.24 531.818 124.258 531.818C124.897 531.818 125.457 531.681 125.94 531.407C126.422 531.12 126.774 530.716 126.996 530.194H128.483C128.157 531.107 127.609 531.831 126.84 532.365C126.083 532.887 125.196 533.148 124.179 533.148ZM133.817 532.952L129.69 522.976H131.372L134.815 531.896H134.189L137.612 522.976H139.216L135.089 532.952H133.817ZM144.981 533.148C144.029 533.148 143.188 532.926 142.458 532.483C141.728 532.026 141.154 531.407 140.737 530.624C140.319 529.842 140.111 528.942 140.111 527.925C140.111 526.908 140.313 526.015 140.717 525.245C141.134 524.463 141.715 523.857 142.458 523.426C143.201 522.996 144.055 522.781 145.02 522.781C145.946 522.781 146.748 522.983 147.426 523.387C148.117 523.791 148.645 524.359 149.011 525.089C149.389 525.819 149.578 526.68 149.578 527.671C149.578 527.801 149.571 527.925 149.558 528.043C149.558 528.16 149.545 528.29 149.519 528.434H141.284V527.123H148.561L148.052 527.847C148.052 526.647 147.785 525.728 147.25 525.089C146.728 524.437 145.985 524.111 145.02 524.111C144.029 524.111 143.227 524.457 142.614 525.148C142.014 525.826 141.715 526.745 141.715 527.906C141.715 529.092 142.014 530.044 142.614 530.761C143.227 531.466 144.042 531.818 145.059 531.818C145.698 531.818 146.259 531.681 146.742 531.407C147.224 531.12 147.576 530.716 147.798 530.194H149.284C148.958 531.107 148.411 531.831 147.641 532.365C146.885 532.887 145.998 533.148 144.981 533.148ZM151.934 532.952V518.869H153.499V532.952H151.934ZM160.78 533.148C159.802 533.148 158.941 532.92 158.198 532.463C157.454 532.007 156.874 531.387 156.457 530.605C156.053 529.809 155.85 528.916 155.85 527.925C155.85 526.921 156.059 526.034 156.476 525.265C156.894 524.496 157.467 523.889 158.198 523.446C158.941 523.003 159.802 522.781 160.78 522.781C161.771 522.781 162.631 523.003 163.362 523.446C164.105 523.889 164.679 524.496 165.083 525.265C165.5 526.034 165.709 526.921 165.709 527.925C165.709 528.916 165.5 529.809 165.083 530.605C164.679 531.387 164.105 532.007 163.362 532.463C162.631 532.92 161.771 533.148 160.78 533.148ZM160.78 531.818C161.458 531.818 162.044 531.655 162.54 531.329C163.036 530.99 163.42 530.527 163.694 529.94C163.968 529.353 164.105 528.675 164.105 527.906C164.105 526.758 163.798 525.839 163.186 525.148C162.586 524.457 161.784 524.111 160.78 524.111C159.789 524.111 158.987 524.457 158.374 525.148C157.761 525.839 157.454 526.758 157.454 527.906C157.454 528.675 157.591 529.353 157.865 529.94C158.139 530.527 158.524 530.99 159.019 531.329C159.528 531.655 160.115 531.818 160.78 531.818ZM172.985 533.128C172.046 533.128 171.257 532.9 170.618 532.444C169.979 531.987 169.542 531.342 169.308 530.507L169.62 530.468V536.962H168.056V522.976H169.523V525.304L169.308 525.245C169.555 524.476 170.025 523.876 170.716 523.446C171.407 523.003 172.209 522.781 173.122 522.781C174.008 522.781 174.778 522.996 175.43 523.426C176.095 523.857 176.61 524.457 176.975 525.226C177.34 525.995 177.523 526.895 177.523 527.925C177.523 528.968 177.334 529.881 176.956 530.664C176.577 531.446 176.049 532.052 175.371 532.483C174.693 532.913 173.898 533.128 172.985 533.128ZM172.75 531.759C173.741 531.759 174.517 531.42 175.078 530.742C175.639 530.051 175.919 529.112 175.919 527.925C175.919 526.752 175.639 525.832 175.078 525.167C174.517 524.489 173.741 524.15 172.75 524.15C171.759 524.15 170.977 524.496 170.403 525.187C169.829 525.865 169.542 526.797 169.542 527.984C169.542 529.144 169.829 530.064 170.403 530.742C170.977 531.42 171.759 531.759 172.75 531.759ZM179.918 532.952V522.976H181.385V525.324H181.483V532.952H179.918ZM186.647 532.952V526.341C186.647 525.584 186.477 525.03 186.138 524.678C185.799 524.326 185.31 524.15 184.671 524.15C184.071 524.15 183.53 524.294 183.047 524.58C182.565 524.867 182.18 525.265 181.893 525.774C181.62 526.282 181.483 526.875 181.483 527.554L181.228 525.187C181.567 524.443 182.076 523.857 182.754 523.426C183.432 522.996 184.169 522.781 184.964 522.781C185.929 522.781 186.712 523.068 187.312 523.642C187.911 524.202 188.211 524.965 188.211 525.93V532.952H186.647ZM193.375 532.952V526.341C193.375 525.584 193.206 525.03 192.867 524.678C192.528 524.326 192.039 524.15 191.4 524.15C190.8 524.15 190.259 524.294 189.776 524.58C189.294 524.867 188.909 525.265 188.622 525.774C188.348 526.282 188.211 526.875 188.211 527.554L187.82 525.187C188.159 524.443 188.681 523.857 189.385 523.426C190.089 522.996 190.845 522.781 191.654 522.781C192.619 522.781 193.408 523.068 194.021 523.642C194.634 524.202 194.94 524.965 194.94 525.93V532.952H193.375ZM202.038 533.148C201.086 533.148 200.245 532.926 199.515 532.483C198.784 532.026 198.211 531.407 197.793 530.624C197.376 529.842 197.167 528.942 197.167 527.925C197.167 526.908 197.37 526.015 197.774 525.245C198.191 524.463 198.771 523.857 199.515 523.426C200.258 522.996 201.112 522.781 202.077 522.781C203.003 522.781 203.805 522.983 204.483 523.387C205.174 523.791 205.702 524.359 206.067 525.089C206.446 525.819 206.635 526.68 206.635 527.671C206.635 527.801 206.628 527.925 206.615 528.043C206.615 528.16 206.602 528.29 206.576 528.434H198.341V527.123H205.617L205.109 527.847C205.109 526.647 204.842 525.728 204.307 525.089C203.785 524.437 203.042 524.111 202.077 524.111C201.086 524.111 200.284 524.457 199.671 525.148C199.071 525.826 198.771 526.745 198.771 527.906C198.771 529.092 199.071 530.044 199.671 530.761C200.284 531.466 201.099 531.818 202.116 531.818C202.755 531.818 203.316 531.681 203.798 531.407C204.281 531.12 204.633 530.716 204.855 530.194H206.341C206.015 531.107 205.467 531.831 204.698 532.365C203.942 532.887 203.055 533.148 202.038 533.148ZM208.991 532.952V522.976H210.458V525.324H210.555V532.952H208.991ZM216.13 532.952V526.419C216.13 525.663 215.941 525.095 215.563 524.717C215.185 524.339 214.624 524.15 213.881 524.15C213.229 524.15 212.648 524.294 212.14 524.58C211.644 524.867 211.253 525.265 210.966 525.774C210.692 526.282 210.555 526.875 210.555 527.554L210.301 525.187C210.64 524.443 211.155 523.857 211.846 523.426C212.551 522.996 213.346 522.781 214.233 522.781C215.276 522.781 216.111 523.081 216.736 523.681C217.375 524.267 217.695 525.043 217.695 526.008V532.952H216.13ZM224.423 533.128C223.314 533.128 222.506 532.88 221.997 532.385C221.502 531.876 221.254 531.146 221.254 530.194V520.649L222.819 520.062V530.175C222.819 530.735 222.962 531.146 223.249 531.407C223.536 531.668 224.006 531.798 224.658 531.798C224.918 531.798 225.14 531.785 225.323 531.759C225.518 531.72 225.675 531.674 225.792 531.622V532.952C225.662 533.004 225.473 533.043 225.225 533.07C224.99 533.109 224.723 533.128 224.423 533.128ZM219.2 524.307V522.976H225.792V524.307H219.2Z" fill="#001F4F"/>
<path d="M104.794 457.54C104.794 455.402 105.283 453.641 106.261 452.259C107.239 450.864 108.491 450.166 110.017 450.166C111.543 450.166 112.794 450.864 113.772 452.259C114.75 453.641 115.239 455.402 115.239 457.54C115.239 459.679 114.75 461.446 113.772 462.841C112.794 464.223 111.543 464.914 110.017 464.914C108.491 464.914 107.239 464.223 106.261 462.841C105.283 461.446 104.794 459.679 104.794 457.54ZM114.242 457.54C114.242 455.689 113.844 454.15 113.049 452.924C112.253 451.698 111.243 451.085 110.017 451.085C108.791 451.085 107.78 451.698 106.985 452.924C106.19 454.15 105.792 455.689 105.792 457.54C105.792 459.392 106.19 460.931 106.985 462.156C107.78 463.382 108.791 463.995 110.017 463.995C111.243 463.995 112.253 463.382 113.049 462.156C113.844 460.931 114.242 459.392 114.242 457.54ZM124.902 451.301H119.503L118.858 455.897C120.709 455.793 122.209 456.151 123.356 456.973C124.517 457.781 125.097 458.949 125.097 460.474C125.097 461.765 124.628 462.828 123.689 463.663C122.763 464.497 121.603 464.914 120.207 464.914C119.516 464.914 118.851 464.817 118.212 464.621C117.573 464.412 117.006 464.119 116.51 463.741V462.567C116.993 463.024 117.554 463.382 118.193 463.643C118.845 463.891 119.516 464.015 120.207 464.015C121.303 464.015 122.228 463.676 122.985 462.998C123.741 462.319 124.119 461.478 124.119 460.474C124.119 459.131 123.539 458.134 122.378 457.482C121.218 456.817 119.712 456.595 117.86 456.817L118.701 450.401H124.902V451.301Z" fill="#001F4F"/>
</svg>
