<svg width="46" height="46" viewBox="0 0 46 46" fill="none" xmlns="http://www.w3.org/2000/svg">
<rect x="0.166748" y="0.597656" width="45.3333" height="45.3333" rx="22.6667" fill="white"/>
<g clip-path="url(#clip0_325_169)">
<path d="M22.8371 17.8734C19.8085 17.8734 17.3657 20.2781 17.3657 23.2594C17.3657 26.2406 19.8085 28.6453 22.8371 28.6453C25.8657 28.6453 28.3085 26.2406 28.3085 23.2594C28.3085 20.2781 25.8657 17.8734 22.8371 17.8734ZM22.8371 26.7609C20.88 26.7609 19.28 25.1906 19.28 23.2594C19.28 21.3281 20.8752 19.7578 22.8371 19.7578C24.799 19.7578 26.3942 21.3281 26.3942 23.2594C26.3942 25.1906 24.7942 26.7609 22.8371 26.7609ZM29.8085 17.6531C29.8085 18.3516 29.2371 18.9094 28.5323 18.9094C27.8228 18.9094 27.2561 18.3469 27.2561 17.6531C27.2561 16.9594 27.8276 16.3969 28.5323 16.3969C29.2371 16.3969 29.8085 16.9594 29.8085 17.6531ZM33.4323 18.9281C33.3514 17.2453 32.9609 15.7547 31.7085 14.5266C30.4609 13.2984 28.9466 12.9141 27.2371 12.8297C25.4752 12.7313 20.1942 12.7313 18.4323 12.8297C16.7276 12.9094 15.2133 13.2937 13.9609 14.5219C12.7085 15.75 12.3228 17.2406 12.2371 18.9234C12.1371 20.6578 12.1371 25.8562 12.2371 27.5906C12.3181 29.2734 12.7085 30.7641 13.9609 31.9922C15.2133 33.2203 16.7228 33.6047 18.4323 33.6891C20.1942 33.7875 25.4752 33.7875 27.2371 33.6891C28.9466 33.6094 30.4609 33.225 31.7085 31.9922C32.9561 30.7641 33.3466 29.2734 33.4323 27.5906C33.5323 25.8562 33.5323 20.6625 33.4323 18.9281ZM31.1561 29.4516C30.7847 30.3703 30.0657 31.0781 29.1276 31.4484C27.7228 31.9969 24.3895 31.8703 22.8371 31.8703C21.2847 31.8703 17.9466 31.9922 16.5466 31.4484C15.6133 31.0828 14.8943 30.375 14.5181 29.4516C13.9609 28.0687 14.0895 24.7875 14.0895 23.2594C14.0895 21.7312 13.9657 18.4453 14.5181 17.0672C14.8895 16.1484 15.6085 15.4406 16.5466 15.0703C17.9514 14.5219 21.2847 14.6484 22.8371 14.6484C24.3895 14.6484 27.7276 14.5266 29.1276 15.0703C30.0609 15.4359 30.78 16.1437 31.1561 17.0672C31.7133 18.45 31.5847 21.7312 31.5847 23.2594C31.5847 24.7875 31.7133 28.0734 31.1561 29.4516Z" fill="#003274"/>
</g>
<defs>
<clipPath id="clip0_325_169">
<rect width="21.3333" height="24" fill="white" transform="translate(12.1667 11.2637)"/>
</clipPath>
</defs>
</svg>
