<svg width="47" height="46" viewBox="0 0 47 46" fill="none" xmlns="http://www.w3.org/2000/svg">
<rect x="0.833252" y="0.597656" width="45.3333" height="45.3333" rx="22.6667" fill="white"/>
<g clip-path="url(#clip0_325_165)">
<path d="M17.6761 32.5977V19.1037H13.1024V32.5977H17.6761ZM15.3898 17.2602C16.9848 17.2602 17.9775 16.224 17.9775 14.9292C17.9478 13.6051 16.9848 12.5977 15.4201 12.5977C13.8556 12.5977 12.8325 13.6051 12.8325 14.9292C12.8325 16.2241 13.825 17.2602 15.36 17.2602H15.3897H15.3898ZM20.2077 32.5977H24.7814V25.062C24.7814 24.6587 24.8111 24.2558 24.9319 23.9675C25.2625 23.1617 26.0151 22.3272 27.2786 22.3272C28.9336 22.3272 29.5957 23.5646 29.5957 25.3786V32.5976H34.1692V24.8603C34.1692 20.7154 31.9127 18.7869 28.9035 18.7869C26.4361 18.7869 25.3528 20.1393 24.751 21.0605H24.7815V19.1034H20.2078C20.2678 20.3696 20.2078 32.5974 20.2078 32.5974L20.2077 32.5977Z" fill="#003274"/>
</g>
<defs>
<clipPath id="clip0_325_165">
<rect width="21.3333" height="20" fill="white" transform="translate(12.8333 12.5977)"/>
</clipPath>
</defs>
</svg>
