<svg xmlns="http://www.w3.org/2000/svg" viewBox="0 0 1000 1000"><defs><style>.a{fill:#231f20;}</style></defs><path class="a" d="M269,499.24a14.67,14.67,0,0,1-3.21-.28q-6-1.43-11.85-11.1a65.7,65.7,0,0,1-31.63,8.25q-13.8,0-21.84-4.74-15.33-8.91-15.37-30.07,0-13.85,5.4-30,1.53-4.54,3.36-8.82,14.72-34.9,38.84-54.82a89.41,89.41,0,0,1,58.79-21.25q25.53,0,29.83,19.44,3.14,14-4.39,36.24-2,6-4.76,12.42-15.36,36-36.78,57.1,4.29,15.84,2,22.67A6.18,6.18,0,0,1,274,498.1,11.88,11.88,0,0,1,269,499.24Zm-31.24-27.31a21.61,21.61,0,0,0,8.24-1.71q-5.31-15.95-3.22-22.1a14.81,14.81,0,0,1,4.86-6.83,8.44,8.44,0,0,1,5.31-2.28q8,0,14.55,12.05a131,131,0,0,0,9.28-14A179.32,179.32,0,0,0,291,405.34q4.11-12.13,4.47-20.77.54-14.51-11.08-14.51-12.29,0-25,13.47A121.53,121.53,0,0,0,241.06,410a127.25,127.25,0,0,0-8.52,19.35Q226.87,446.13,227,458,227.14,471.93,237.72,471.93Z"/><path class="a" d="M368.72,497.34q-12,0-13.19-13-1-11,5.11-29.69Q334,493,313.48,493q-12.59,0-10.59-17.92a94.19,94.19,0,0,1,4.71-19.83,320,320,0,0,1,14.54-36.61,98.64,98.64,0,0,1,12.2-19.44,21.42,21.42,0,0,1,17.36-8.44q7.56,0,9.43,3.69t-1.75,14.42q-12,35.67-29,62.6,5.3,0,21.74-21.24,12.75-16.51,29.06-41,3.87-5.88,8-11.1,9-11.65,20.23-11.76,9.56,0,10.91,4.93,1.91,7.5-5.1,28.27-8.79,26-27.34,54.35,11.22-7.5,26.61-23.38t23.36-26.61c2.49-3.28,4.46-5.69,5.88-7.21a14.94,14.94,0,0,1,3.34-2.89,4.81,4.81,0,0,1,2.15-.61c1.26,0,1.58.91,1,2.74a46.87,46.87,0,0,1-5.06,9.4q-8.65,13.27-19.53,27.31-14.39,18.49-27.9,30.26Q381.2,497.35,368.72,497.34Z"/><path class="a" d="M430,497.34q-12.94,0-13.34-14.79-.37-11.19,5.77-29.4A213.67,213.67,0,0,1,431,432q14-30.35,24.74-40.5,5.39-5,15.22-5,9.27,0,10.56,4.83,1.92,7.5-4.94,27.8-9,26.64-27.4,54.82,11.22-7.5,26.56-23.38t23.41-26.61a86.17,86.17,0,0,1,5.79-7.21,14.72,14.72,0,0,1,3.34-2.89,4.78,4.78,0,0,1,2.15-.61c1.26,0,1.58.91,1,2.74a46.83,46.83,0,0,1-5.16,9.4q-25.08,38.11-47.33,57.57Q442.42,497.35,430,497.34ZM474.3,379.16a14.87,14.87,0,0,1-6.67-1.51q-6.7-3.13-3.94-11.29a23.86,23.86,0,0,1,10.66-13.09,25.59,25.59,0,0,1,13.07-4,16.15,16.15,0,0,1,6.61,1.42q6.78,3.14,3.77,12a22.68,22.68,0,0,1-6.54,9.87A24.68,24.68,0,0,1,474.3,379.16Z"/><path class="a" d="M517.31,497.16q-24,0-31.62-15.13T485,446.51q10.2-30.17,32.12-47.38t46.42-17.22q17.6,0,22.32,9.77,3.3,7,.49,15.37a29.22,29.22,0,0,1-5.83,10c-2,2.28-3.77,3.41-5.4,3.41-2.4,0-3.51-1.55-3.35-4.64a43.83,43.83,0,0,0-.23-6.74,9.13,9.13,0,0,0-2.32-5.31q-2-2.09-6.57-2.09-9,0-19.77,12.9t-17,31.3q-9.81,29,10,29,13.71,0,37.67-25a285.8,285.8,0,0,0,22.36-25.9,79.06,79.06,0,0,1,5.84-7.21c2.17-2.33,4-3.5,5.44-3.5,1.26,0,1.58.91,1,2.74a46.83,46.83,0,0,1-5.16,9.4,322.91,322.91,0,0,1-21.88,29.78Q545.87,497.16,517.31,497.16Z"/><path class="a" d="M583.29,496.49h-.48q-11.62,0-11.23-9.15t8.76-33.91a528.61,528.61,0,0,1,37.73-86.22,79.69,79.69,0,0,1,7-10.81,23.82,23.82,0,0,1,19.94-9.77q11.63,0,11.32,9.29-.36,9.78-8.89,35-6,17.74-13.55,35.67a287.87,287.87,0,0,1,23.12-21,222.1,222.1,0,0,1,23.41-17q10.93-6.78,16.42-6.78,6.9,0,4.5,7.11-2.34,6.93-13.29,17a195.93,195.93,0,0,1-20,16.17,124.53,124.53,0,0,1-18,11,88.33,88.33,0,0,1,10.38,17.26q4.93,10.44,3.93,16.79a295.87,295.87,0,0,0,22.92-22.24q11.71-12.57,18-20.92a86.17,86.17,0,0,1,5.79-7.21,14.72,14.72,0,0,1,3.34-2.89,4.81,4.81,0,0,1,2.15-.61c1.26,0,1.58.91,1,2.74a46.83,46.83,0,0,1-5.16,9.4q-11.22,17-23.91,32.72A216.34,216.34,0,0,1,670.79,478q-7.18,6.83-12.92,9.15a33.47,33.47,0,0,1-12.65,2.32q-10.22,0-14.71-10.33T625.1,446.6a329.93,329.93,0,0,1-15.36,29.78,86.22,86.22,0,0,1-6.86,10.53A24,24,0,0,1,583.29,496.49Z"/><path class="a" d="M518.42,613.19q-6.7,0-9.57-3.74t-2.74-10.11a56.18,56.18,0,0,1,2.5-14.42q-21.11,24.39-41.53,24.39-17.59,0-18.72-13.89-.8-11,6.24-27.14,1.89-4.35,4.21-8.79,12.4-23.73,30.28-39.8,20-17.87,40.21-17.87a22.62,22.62,0,0,1,9.52,1.71,14.17,14.17,0,0,1,5.59,4.3,12.3,12.3,0,0,1,2.41,5.43,34.78,34.78,0,0,1,8.87-7.66,23.27,23.27,0,0,1,12.1-2.93q9.45,0,10.24,4.92,1.1,8.32-9.07,31.67a261.42,261.42,0,0,1-29.12,50.58q12-7.47,28.82-23.31a346.15,346.15,0,0,0,26-26.51q4.13-4.92,6.48-7.19a17.15,17.15,0,0,1,3.63-2.88,5.17,5.17,0,0,1,2.2-.62c1.26,0,1.49.92.7,2.74a53.42,53.42,0,0,1-6,9.36q-9.36,12.59-22.16,27.23a248.45,248.45,0,0,1-30.82,30.16Q530.81,613.19,518.42,613.19Zm-33.76-23.64q6.9,0,23.64-20.42a275.49,275.49,0,0,0,28.88-42.63q-1.81-5.4-7.67-5.39-9.56,0-20.44,11.53a130.22,130.22,0,0,0-18.16,24.77,131.83,131.83,0,0,0-6.46,12.67Q476,589.55,484.66,589.55Z"/><path class="a" d="M552,652.14q-9.45,0-10-6.43-.47-4.35,2.66-13.71,2.24-6.43,7.3-18.06,7.57-17.38,21.06-43.48a500,500,0,0,1,29.28-49.54,62.21,62.21,0,0,1,11.49-13.14q6.11-5.1,17.07-5.11c4.16,0,7,.75,8.53,2.23s2.14,3.56,1.82,6.24a58.93,58.93,0,0,1-1.89,9q-.25,1.23-3.84,10.12a118.81,118.81,0,0,1,14-14.37A70.25,70.25,0,0,1,665,505.65a36.85,36.85,0,0,1,16-3.83q15.6,0,17.46,12.67,1.35,9.27-4.74,23.26-1.37,3.12-3.09,6.43a158.49,158.49,0,0,1-32.57,42.44q26.58-12.86,55.09-46.6a90.51,90.51,0,0,1,6.53-7.19q3.6-3.5,5.78-3.5c1.26,0,1.49.92.7,2.74a51.07,51.07,0,0,1-6.07,9.36q-21.76,28.94-49,47.75-30.31,21-58.4,21-11.06,0-14.95-5.39-8.19,13.82-16,25.25a74.35,74.35,0,0,1-11.88,13.8Q560.84,652.13,552,652.14Zm60.64-57.39q5.39,0,11.7-4.72,12-9,24.52-28.08A165.88,165.88,0,0,0,662.25,538q6.71-15.4.75-15.41-4.72,0-11.09,5.39a104,104,0,0,0-13.15,13.71Q632,550,625.55,559.35T614.1,576.84q-5,8.17-7.73,13.09C607.36,593.15,609.46,594.75,612.68,594.75Z"/><path class="a" d="M670.6,652.14q-9.45,0-10.06-6.43-.46-4.35,2.67-13.71,2.24-6.43,7.29-18.06,7.57-17.38,21.07-43.48a500,500,0,0,1,29.28-49.54,61.93,61.93,0,0,1,11.49-13.14q6.1-5.1,17.07-5.11c4.16,0,7,.75,8.53,2.23s2.14,3.56,1.82,6.24a59.06,59.06,0,0,1-1.9,9c-.17.82-1.44,4.2-3.84,10.12a118.88,118.88,0,0,1,14.06-14.37,70.43,70.43,0,0,1,15.48-10.26,36.92,36.92,0,0,1,16-3.83q15.6,0,17.46,12.67,1.35,9.27-4.75,23.26-1.35,3.12-3.08,6.43a158.49,158.49,0,0,1-32.57,42.44q26.58-12.86,55.09-46.6a88.59,88.59,0,0,1,6.53-7.19q3.6-3.5,5.78-3.5c1.26,0,1.49.92.69,2.74a50.89,50.89,0,0,1-6.06,9.36q-21.77,28.94-49,47.75-30.33,21-58.4,21-11.05,0-15-5.39-8.19,13.82-16,25.25a73.93,73.93,0,0,1-11.87,13.8Q679.4,652.13,670.6,652.14Zm60.64-57.39q5.38,0,11.7-4.72,12-9,24.52-28.08A165.88,165.88,0,0,0,780.81,538q6.71-15.4.75-15.41-4.72,0-11.09,5.39a104.65,104.65,0,0,0-13.16,13.71q-6.78,8.31-13.21,17.63t-11.44,17.49q-5,8.17-7.74,13.09C725.92,593.15,728,594.75,731.24,594.75Z"/></svg>